<svg width="24" height="28" viewBox="0 0 24 28" fill="none" xmlns="http://www.w3.org/2000/svg">
<g clip-path="url(#clip0_237_205)">
<path d="M4.6272 0.845577C9.31226 -0.27497 14.1974 -0.281718 18.8856 0.825882C18.8894 0.941491 18.8814 1.05719 18.8618 1.1712C18.6159 1.98527 18.366 2.79759 18.1122 3.60816C17.2132 6.51254 16.3129 9.41605 15.4112 12.3187C14.8705 14.0505 14.3192 15.7798 13.7798 17.5117C13.1677 19.4628 12.5688 21.4152 11.9646 23.3716C11.9316 23.4793 11.8893 23.5843 11.8549 23.6802C11.8307 23.6827 11.8064 23.6827 11.7822 23.6802C11.769 23.6802 11.7465 23.671 11.7438 23.6605C10.8678 20.8699 9.99388 18.0789 9.1222 15.2874C7.62695 10.5041 6.13831 5.71292 4.6272 0.845577ZM15.2566 6.65041C15.3531 4.82926 13.8314 3.14072 11.7425 3.15254C9.78323 3.16436 8.32897 4.82269 8.30781 6.60445C8.30706 7.52721 8.67292 8.41299 9.32593 9.0694C9.97894 9.72581 10.8664 10.0998 11.7954 10.1102C13.5643 10.122 15.3544 8.6068 15.2566 6.65041Z" fill="white"/>
<path d="M18.0209 9.25937C18.2311 8.58448 18.4334 7.93454 18.6409 7.27278C21.3803 8.9902 23.9437 12.9476 23.5326 17.6771C23.1042 22.656 19.6523 26.2668 16.2388 27.4643C16.2123 27.4315 16.1594 27.3973 16.1568 27.3593C16.1118 26.834 16.0841 26.318 16.0246 25.7994C15.9915 25.4869 16.1303 25.3241 16.3948 25.1875C17.2715 24.7327 18.0673 24.1384 18.7507 23.4281C20.242 21.8814 21.1819 20.0431 21.4212 17.9134C21.7623 14.8935 20.9215 12.2307 18.7771 10.017C18.5444 9.77407 18.2985 9.5351 18.0209 9.25937Z" fill="white"/>
<path d="M7.40345 27.4787C4.26224 26.4388 0.831491 23.0906 0.138732 18.5135C-0.628063 13.4649 1.89046 9.23705 4.93252 7.26096C5.14141 7.93979 5.34501 8.60155 5.54067 9.23048C5.13348 9.65721 4.74743 10.0314 4.39444 10.4371C3.08537 11.9456 2.28547 13.8238 2.10728 15.8074C1.92562 17.5722 2.25349 19.352 3.05255 20.9386C3.89445 22.6751 5.25065 24.1146 6.93941 25.0641C7.60969 25.4449 7.61631 25.4751 7.51715 26.2235C7.46427 26.6279 7.44312 27.0336 7.40345 27.4787Z" fill="white"/>
<path d="M9.09302 28L8.32887 27.8241C8.37117 26.5452 8.36853 25.3293 8.46107 24.1069C8.55362 22.9252 8.48222 21.7566 8.40951 20.5933C8.21897 17.6335 7.77671 14.695 7.08745 11.8092C6.4311 9.04239 5.5798 6.32476 4.53984 3.67644C4.27543 3.0068 3.96078 2.36343 3.66992 1.70692L3.45972 1.22898L4.10753 0.735291C4.27278 1.24868 4.41953 1.69116 4.55703 2.13628C5.04355 3.71189 5.5283 5.28751 6.01129 6.86312C6.4273 8.22253 6.84287 9.5815 7.258 10.94C7.77536 12.6259 8.29273 14.3118 8.8101 15.9978C8.9542 16.4652 9.14325 16.9261 9.22654 17.4053C9.29133 17.7795 9.22654 18.1774 9.21465 18.5634C9.19217 19.0308 9.13136 19.4969 9.13003 19.963C9.12078 22.203 9.13003 24.4417 9.13003 26.6817C9.1221 27.0966 9.10491 27.5089 9.09302 28Z" fill="white"/>
<path d="M15.3082 27.7991L14.4951 27.979C14.4806 27.761 14.4608 27.6035 14.4608 27.4459C14.4608 24.4697 14.4608 21.4936 14.4608 18.5174C14.4608 18.1235 14.4237 17.7401 14.4185 17.3515C14.4211 17.2223 14.4439 17.0943 14.4859 16.972C15.0826 15.0182 15.6806 13.0658 16.2799 11.1147C17.3147 7.74284 18.3525 4.37059 19.3934 0.997893C19.4119 0.938808 19.4383 0.882348 19.4714 0.800941C19.7352 0.873528 19.9595 1.04673 20.0954 1.28282C19.9103 1.69904 19.7226 2.11395 19.5401 2.53149C18.255 5.46903 17.2503 8.51984 16.539 11.6438C16.1504 13.3428 15.8357 15.0576 15.5568 16.7803C15.3822 17.8557 15.3413 18.9507 15.2315 20.0366C15.0332 21.993 15.1575 23.9546 15.1509 25.9136C15.1535 26.5229 15.2527 27.1413 15.3082 27.7991Z" fill="white"/>
<path d="M7.47632 25.0103C4.78064 23.5095 3.05138 21.3181 2.51992 18.3008C1.85889 14.5456 3.52733 11.393 5.56066 9.757C5.86605 10.1338 5.87266 10.3479 5.5514 10.6682C4.17671 12.0351 3.3221 13.8333 3.13335 15.7562C2.95342 17.257 3.18548 18.7782 3.80496 20.1587C4.50429 21.7383 5.66192 23.075 7.12994 23.9979C7.6191 24.3078 7.62571 24.3328 7.47632 25.0103Z" fill="white"/>
<path d="M18.0276 9.70448C20.3676 11.871 21.4649 14.5259 21.1423 17.6574C20.796 20.957 19.027 23.3743 16.0974 25.0103C15.9546 24.3078 15.9744 24.2973 16.494 23.9599C18.485 22.6639 19.7793 20.8703 20.2777 18.5503C20.8568 15.8625 20.2632 13.4295 18.5511 11.2735C18.3889 11.0687 18.2175 10.8709 18.0368 10.6801C17.6944 10.3124 17.6878 10.2415 18.0276 9.70448Z" fill="white"/>
<path d="M15.0715 6.63072C15.2157 8.26279 13.6926 9.89618 11.8219 9.91325C9.87849 9.93032 8.51677 8.20633 8.49165 6.67405C8.46124 4.86603 10.0107 3.33243 11.7664 3.34293C13.7614 3.35475 15.1905 4.99602 15.0715 6.63072ZM14.8561 6.63072C14.8673 6.22882 14.7967 5.82881 14.6485 5.45468C14.5003 5.08054 14.2775 4.73998 13.9936 4.45343C13.7096 4.16688 13.3703 3.94023 12.996 3.78709C12.6217 3.63395 12.2201 3.55746 11.8153 3.56221C9.91551 3.54514 8.75606 5.06298 8.72566 6.60315C8.6926 7.95949 9.7833 9.70579 11.8113 9.6966C13.6067 9.68873 14.9195 8.19714 14.8521 6.62809L14.8561 6.63072Z" fill="white"/>
<path d="M10.7087 8.34551C10.6721 8.22099 10.6229 8.10046 10.5619 7.98575C10.3649 7.68638 10.3967 7.42115 10.5897 7.12441C11.0061 6.48366 10.9956 6.47709 11.7544 6.47709C11.8364 6.47709 11.9197 6.47709 12.0017 6.47709C12.2066 6.46528 12.4115 6.47709 12.5186 6.68192C12.6918 7.00886 12.8451 7.33843 13.0077 7.6785C12.8266 8.0724 12.6521 8.5162 12.2449 8.66326C11.8086 8.82082 11.3049 8.85496 10.8977 8.48732C10.8369 8.43348 10.7655 8.38884 10.7034 8.34026L10.7087 8.34551Z" fill="white"/>
<path d="M14.2782 7.31742C14.1041 7.40415 13.9227 7.47576 13.7362 7.53144C13.3144 7.62466 13.2073 7.56033 12.9813 7.18874C12.9757 7.17341 12.9681 7.15885 12.9588 7.14541C12.4141 6.59526 12.6349 6.01097 12.8848 5.42931C12.9171 5.35686 12.9699 5.29529 13.0368 5.25205C13.2668 5.11156 13.8512 5.20872 14.0442 5.41486C14.306 5.69165 14.4565 6.05416 14.4673 6.43376C14.4752 6.59657 14.4567 6.75939 14.4488 6.92351C14.3932 7.04956 14.3377 7.18349 14.2782 7.31742Z" fill="white"/>
<path d="M9.86774 7.46579C9.38519 7.4566 9.33892 7.39226 9.16309 6.94978C8.93305 6.36155 9.10492 5.86785 9.46319 5.4083C9.63506 5.18771 10.2287 5.09711 10.4587 5.23761C10.4732 5.24549 10.4931 5.25336 10.497 5.26518C10.616 5.6 10.7535 5.93088 10.8381 6.27489C10.8672 6.38912 10.7747 6.53749 10.7059 6.66879C10.6187 6.84342 10.5089 7.00624 10.4045 7.17167C10.2207 7.47367 10.2194 7.47236 9.86774 7.46579Z" fill="white"/>
<path d="M10.899 4.90804C11.088 4.81482 11.2824 4.72947 11.4661 4.62575C11.5472 4.56907 11.644 4.53865 11.7431 4.53865C11.8423 4.53865 11.939 4.56907 12.0201 4.62575C12.8887 5.21266 12.9283 5.03803 12.5119 6.07006C12.4858 6.1723 12.4216 6.26088 12.3323 6.31792C12.2429 6.37495 12.1351 6.39618 12.0307 6.37731C11.8841 6.35902 11.7367 6.3485 11.5891 6.34579C11.0166 6.3563 11.0193 6.35498 10.8289 5.81008C10.7165 5.48971 10.624 5.18246 10.9096 4.90279L10.899 4.90804Z" fill="white"/>
<path d="M11.8642 4.35264C11.8587 4.29587 11.8587 4.23871 11.8642 4.18194C11.8774 4.08609 11.9012 3.99287 11.9356 3.83006C12.089 3.81561 12.2435 3.81561 12.397 3.83006C12.8804 3.92473 13.3285 4.14905 13.6926 4.47869C13.8909 4.65594 13.8856 4.67695 13.8116 5.05772C13.3819 5.11287 12.9655 5.16933 12.5913 4.81744C12.3772 4.62574 12.0995 4.50232 11.8642 4.35264Z" fill="white"/>
<path d="M10.9057 4.90279C10.5196 5.09449 10.119 5.03409 9.7158 4.99076C9.63912 4.69665 9.80702 4.53515 9.99211 4.39991C10.4707 4.05065 10.9731 3.75653 11.5997 3.83794C11.7438 4.30537 11.7319 4.308 11.3842 4.52333C11.2133 4.64138 11.0499 4.76987 10.8951 4.90805L10.9057 4.90279Z" fill="white"/>
<path d="M14.105 7.66274C14.1293 7.97439 14.0431 8.28466 13.8613 8.5398C13.6795 8.79495 13.4135 8.9789 13.1095 9.05979C13.02 9.07882 12.9266 9.06741 12.8444 9.02741C12.7621 8.98741 12.6958 8.92113 12.6561 8.8392C12.636 8.78148 12.6288 8.72012 12.6349 8.65936C12.6411 8.5986 12.6605 8.5399 12.6918 8.48732C12.8038 8.26909 12.9366 8.06201 13.0884 7.86889C13.1645 7.76862 13.2742 7.69875 13.3977 7.67194C13.6331 7.65375 13.8693 7.65068 14.105 7.66274Z" fill="white"/>
<path d="M10.6096 9.02434C9.88779 8.97838 9.36558 8.39541 9.36426 7.63386C9.84417 7.50256 10.1575 7.61416 10.4034 7.97524C10.4933 8.10654 10.607 8.22209 10.7088 8.34551V8.33895L10.841 8.70528L10.603 9.0309L10.6096 9.02434Z" fill="white"/>
<path d="M10.6042 9.0309C11.1146 8.71972 11.6817 8.82213 12.2264 8.84839C12.43 8.85758 12.623 9.03615 12.865 9.15826C12.5583 9.46551 12.2039 9.50227 11.8814 9.49571C11.5223 9.47434 11.1672 9.40997 10.8237 9.30401C10.7325 9.27906 10.677 9.1215 10.6056 9.02434L10.6042 9.0309Z" fill="white"/>
<path d="M14.2783 7.31742C14.3352 7.18612 14.3907 7.05482 14.4462 6.92352L14.6207 6.5585C14.7397 7.09684 14.5295 7.52488 14.2783 7.94767V7.31742Z" fill="white"/>
</g>
<defs>
<clipPath id="clip0_237_205">
<rect width="23.5789" height="28" fill="white"/>
</clipPath>
</defs>
</svg>
