<svg width="26" height="17" viewBox="0 0 26 17" fill="none" xmlns="http://www.w3.org/2000/svg">
<g clip-path="url(#clip0_138_5)">
<path d="M12.3377 0.00578379C15.915 0.00578379 19.4923 0.00578379 23.0696 0.00578379C23.7637 0.00578379 24.263 0.334014 24.5415 0.971676C24.6082 1.13217 24.6437 1.30393 24.6461 1.47776C24.6591 2.09807 24.6519 2.7191 24.6519 3.33941C24.6519 3.57583 24.6519 3.57583 24.4218 3.58233C23.232 3.61631 22.2644 4.70511 22.325 5.89151C22.377 6.90874 23.2154 7.93464 24.4441 7.97657C24.6144 7.98235 24.6555 8.04019 24.6548 8.19997C24.6505 10.6345 24.6488 13.0685 24.6498 15.502C24.6498 16.2055 24.1 16.8756 23.4022 16.9479C22.7947 17.0094 22.1757 16.9986 21.5667 16.9993C17.1058 17.0027 12.6449 17.0027 8.18393 16.9993C6.00782 16.9993 3.83148 16.9993 1.65489 16.9993C0.849672 16.9993 0.262354 16.5706 0.0509482 15.8302C0.0183869 15.7013 0.00357881 15.5685 0.00693545 15.4355C0.00693545 11.917 0.00693545 8.39854 0.00693545 4.88007C0.00621393 3.80356 0.0213659 2.72489 -0.00027976 1.64693C-0.0183178 0.704899 0.703924 0 1.64479 0C5.20982 0.00939866 8.77486 0.00361487 12.3377 0.00361487V0.00578379ZM6.41548 12.8465C6.24177 12.8355 6.06754 12.8355 5.89382 12.8465C5.19467 12.9448 4.55685 13.2304 3.90603 13.4733C3.73503 13.5377 3.59578 13.5666 3.45653 13.4097C3.20399 13.1263 2.89518 13.0974 2.56112 13.247C2.52793 13.2622 2.48464 13.3013 2.48247 13.3316C2.47093 13.5485 2.31797 13.7119 2.24221 13.8977C2.12388 14.1869 1.85403 14.419 1.65561 14.68C1.62154 14.7326 1.60675 14.7955 1.61376 14.8578C1.63036 14.9887 1.63324 15.1029 1.52141 15.2034C1.4875 15.2331 1.49543 15.3213 1.5012 15.3805C1.51057 15.4317 1.52915 15.4807 1.55604 15.5251C1.6015 15.6155 1.63324 15.7355 1.70828 15.7811C1.75951 15.8122 1.88722 15.7572 1.95865 15.7088C2.33023 15.4536 2.69099 15.1832 3.06402 14.9301C3.16282 14.864 3.27626 14.823 3.39448 14.8108C4.48974 14.7197 5.58573 14.6373 6.681 14.5556C6.96312 14.5347 7.25822 14.5397 7.4855 14.346C7.75631 14.1189 8.01894 13.8825 8.2734 13.6367C8.34406 13.5627 8.38908 13.4679 8.40183 13.3663C8.42455 13.1693 8.43035 12.9708 8.41915 12.7728C8.38379 12.1221 8.33617 11.4758 8.29721 10.8273C8.29721 10.7701 8.29721 10.6776 8.3304 10.6602C8.4747 10.5879 8.44223 10.4622 8.44296 10.3465C8.44296 10.1238 8.45017 9.9004 8.44296 9.67772C8.43791 9.51361 8.45522 9.38853 8.66807 9.40733C8.6991 9.40733 8.73229 9.37986 8.76548 9.36974C8.8434 9.34516 8.92638 9.29744 9.00069 9.30395C10.0924 9.43697 11.1818 9.58374 12.2858 9.5606C12.3976 9.5606 12.5131 9.61989 12.6227 9.66254C12.8262 9.74207 13.0196 9.86714 13.2295 9.90835C14.2584 10.1086 15.3039 10.1477 16.3487 10.1824C16.3955 10.1818 16.4417 10.1943 16.4819 10.2184C16.5222 10.2425 16.5549 10.2774 16.5767 10.319C16.6661 10.452 16.7606 10.5995 16.8905 10.6805C17.0323 10.7619 17.1925 10.8057 17.3559 10.8077C17.5053 10.8128 17.5861 10.6053 17.7592 10.6154C17.7657 10.6154 17.7708 10.5829 17.7816 10.5692C17.8181 10.5103 17.8617 10.4561 17.9115 10.4079C18.0767 10.2785 18.2448 10.1505 18.4201 10.0349C18.5955 9.9192 18.7376 9.71893 18.9837 9.70737C19.0096 9.70737 19.0522 9.65025 19.0558 9.61772C19.0652 9.49409 19.1402 9.46517 19.2448 9.44059C19.4065 9.40299 19.3524 9.23816 19.3891 9.13043C19.3956 9.11164 19.2759 9.02488 19.2059 9.01114C19.1097 8.99957 19.0124 9.00298 18.9173 9.02126C18.4396 9.0726 17.9634 9.13983 17.4843 9.17526C17.2702 9.19883 17.0536 9.18041 16.8465 9.12103C16.107 8.87161 15.3782 8.59182 14.6451 8.32576C14.0138 8.09514 13.3847 7.85872 12.7504 7.63894C12.5953 7.58472 12.4063 7.6187 12.2598 7.55146C11.5238 7.21383 10.7511 6.99983 9.96825 6.80897C9.87906 6.7823 9.79314 6.74568 9.71211 6.6998C9.65367 6.67088 9.60388 6.60581 9.54544 6.59786C9.23591 6.55665 8.92493 6.52556 8.61396 6.49953C8.51006 6.49013 8.4444 6.48001 8.46388 6.34409C8.53603 5.80765 8.60818 5.27048 8.67529 4.73403C8.68467 4.66173 8.6991 4.58944 8.71136 4.51063C9.10387 4.60534 9.06635 4.58293 9.46607 4.40436C9.51752 4.37351 9.57474 4.35358 9.63419 4.34579C9.8391 4.35085 9.95093 4.23084 10.0411 4.07034C10.1461 3.85689 10.3306 3.69331 10.5548 3.61487C10.6225 3.59498 10.6808 3.5516 10.7194 3.49251C10.758 3.43342 10.7744 3.36249 10.7655 3.29242C10.7532 3.06045 10.7226 2.82982 10.6739 2.6027C10.6155 2.33526 10.4648 2.09703 10.2484 1.92999C10.0319 1.76296 9.76357 1.67782 9.4906 1.68959C8.92637 1.70839 8.56273 2.03589 8.30875 2.51016C8.20485 2.7032 8.20991 2.7032 8.02015 2.58825C7.69907 2.39666 7.37583 2.2029 6.99198 2.18049C6.0439 2.1241 5.12829 2.32508 4.21629 2.54559C4.16867 2.55716 4.09002 2.60777 4.09291 2.63307C4.11455 2.82683 3.95582 2.81887 3.84903 2.88033C3.76655 2.92703 3.69632 2.99269 3.64412 3.07191C3.32521 3.57414 3.01255 4.08022 2.70614 4.59016C2.62101 4.73042 2.54019 4.85911 2.37713 4.92996C2.28424 4.97419 2.20826 5.04754 2.16068 5.1389C2.05153 5.37537 1.86769 5.56923 1.63757 5.69053C1.6015 5.7086 1.5914 5.77584 1.56903 5.82066C1.62098 5.83657 1.67942 5.87633 1.72343 5.86404C1.82809 5.82898 1.93029 5.78695 2.02936 5.73824L2.0676 5.77728C1.97091 5.89223 1.87495 6.00791 1.77899 6.12069C1.68303 6.23348 1.69024 6.33759 1.84032 6.39687C1.9187 6.427 2.00252 6.4403 2.08636 6.43591C2.44712 6.40699 2.90817 5.99056 2.99115 5.64064C3.02073 5.51629 3.04959 5.36736 3.13545 5.28494C3.51136 4.91261 3.90748 4.56196 4.28988 4.20048C4.40638 4.07879 4.5576 3.99621 4.7228 3.96406C5.09005 3.90189 5.45514 3.82598 5.82167 3.75874C5.87681 3.74933 5.93247 3.7433 5.98834 3.74067C5.8312 3.84947 5.65945 3.9354 5.47823 3.99587C5.42274 4.00996 5.37283 4.04059 5.33509 4.0837C5.29734 4.12682 5.27354 4.18039 5.26682 4.23735C5.12252 4.97406 4.9544 5.70715 4.82525 6.44676C4.7531 6.85379 4.68095 7.29625 4.87287 7.67581C4.99769 7.92451 4.97749 8.14791 4.98254 8.38939C4.98227 8.46787 4.98637 8.54632 4.99481 8.62435C5.12252 9.5512 5.41113 10.4361 5.72355 11.3145C5.7301 11.3344 5.74057 11.3528 5.75432 11.3686C5.76808 11.3843 5.78484 11.3972 5.80363 11.4064C5.94144 11.4476 5.9768 11.5596 6.01576 11.6753C6.06699 11.8293 6.12255 11.9826 6.1745 12.1358C6.2517 12.3628 6.32818 12.5877 6.41548 12.8465Z" fill="white"/>
<path d="M26 5.79823C26 6.58483 25.4062 7.20008 24.6377 7.20442C24.4572 7.20366 24.2786 7.16719 24.1122 7.0971C23.9458 7.027 23.7949 6.92466 23.668 6.79596C23.5412 6.66725 23.441 6.51471 23.3731 6.34709C23.3053 6.17947 23.2711 6.00008 23.2726 5.8192C23.269 5.02393 23.8701 4.40362 24.6435 4.4C25.3845 4.39711 25.9971 5.02827 26 5.79823Z" fill="white"/>
</g>
<defs>
<clipPath id="clip0_138_5">
<rect width="26" height="17" fill="white"/>
</clipPath>
</defs>
</svg>
