<svg width="24" height="29" viewBox="0 0 24 29" fill="none" xmlns="http://www.w3.org/2000/svg">
<path d="M11.754 3.17218C15.4649 3.17218 19.1758 3.17218 22.8867 3.17218C23.3245 3.17218 23.4988 3.46745 23.4976 3.78582C23.4885 5.28396 23.4976 6.78211 23.4898 8.27897C23.4883 8.39586 23.46 8.51088 23.4072 8.61531C23.3705 8.6881 23.3143 8.74941 23.2448 8.79245C23.1753 8.8355 23.0951 8.85861 23.0132 8.85922C22.9693 8.85922 22.9241 8.85922 22.8841 8.85922C15.464 8.85922 8.04786 8.85922 0.635557 8.85922C0.564397 8.86203 0.493126 8.85902 0.422461 8.85024C0.308574 8.82909 0.205143 8.77051 0.128785 8.6839C0.0524268 8.59729 0.00757456 8.48768 0.00143395 8.37268C0.00143395 8.34957 0.00143395 8.32518 0.00143395 8.30207V3.7242C-0.00778871 3.60139 0.0277002 3.47937 0.10143 3.38039C0.17516 3.28142 0.282219 3.21208 0.403088 3.18502C0.472951 3.17257 0.543984 3.16784 0.614893 3.1709L11.754 3.17218ZM14.1019 5.9528L14.2479 5.89503C14.5501 5.76665 14.7774 5.57024 14.8226 5.23005C14.8463 5.07883 14.8268 4.92402 14.7663 4.78329C14.7058 4.64256 14.6067 4.52156 14.4804 4.43412C14.2854 4.30241 14.0611 4.22001 13.8269 4.19405C13.2315 4.09777 12.6296 4.14784 12.0304 4.15811C11.9598 4.15365 11.8895 4.17131 11.8295 4.20862C11.7695 4.24593 11.7228 4.30099 11.6959 4.36608C11.6653 4.45481 11.6513 4.54835 11.6546 4.64209C11.6546 5.59335 11.6546 6.54461 11.6546 7.49587C11.6546 7.51256 11.6546 7.53054 11.6546 7.54722C11.6662 7.80398 11.7928 7.94005 12.042 7.94005C12.6154 7.94005 13.1889 7.94005 13.761 7.91566C14.1047 7.90727 14.434 7.77705 14.6896 7.54851C14.7893 7.46285 14.868 7.35557 14.9195 7.23494C14.971 7.11431 14.9939 6.98354 14.9866 6.8527C14.9792 6.72186 14.9417 6.59445 14.877 6.48028C14.8123 6.3661 14.7221 6.26821 14.6134 6.19415C14.486 6.1248 14.354 6.06432 14.2182 6.01314L14.1019 5.9528ZM16.7908 7.92336H17.239C17.4973 7.92336 17.7478 7.92337 18.0023 7.91566C18.0481 7.91686 18.0937 7.90896 18.1364 7.89243C18.1791 7.8759 18.2181 7.85108 18.251 7.8194C18.284 7.78772 18.3102 7.74984 18.3283 7.70795C18.3463 7.66607 18.3558 7.62103 18.3561 7.57547C18.3665 7.4779 18.3561 7.38034 18.3561 7.28277C18.3561 7.18521 18.3187 7.1544 18.2141 7.1544C17.6613 7.1544 17.1073 7.1544 16.5545 7.1544C16.4137 7.1544 16.4137 7.15439 16.4137 7.0196C16.4137 6.88481 16.4137 6.72947 16.4137 6.58441C16.4137 6.48556 16.4344 6.44961 16.5429 6.45603C16.9303 6.45603 17.31 6.45603 17.6936 6.45603C17.7715 6.45648 17.8492 6.45047 17.9261 6.43806C17.9841 6.43412 18.0397 6.4131 18.0857 6.37766C18.1317 6.34222 18.166 6.29398 18.1844 6.23908C18.2219 6.10051 18.241 5.95765 18.2412 5.81415C18.2412 5.67294 18.2231 5.67166 18.081 5.67166C17.5644 5.67166 17.0478 5.67166 16.5312 5.67166C16.4486 5.67166 16.415 5.64855 16.4189 5.56254C16.4189 5.39437 16.4189 5.22491 16.4189 5.05674C16.4189 4.95917 16.455 4.93606 16.548 4.93863C16.8063 4.93863 17.0569 4.93863 17.3126 4.93863C17.5154 4.93863 17.7194 4.93863 17.9222 4.92451C18.0105 4.92736 18.0967 4.89715 18.1636 4.83985C18.2306 4.78256 18.2735 4.70236 18.2838 4.61513C18.2985 4.49502 18.3015 4.37379 18.2928 4.25311C18.2941 4.24023 18.2922 4.22726 18.2873 4.21527C18.2824 4.20328 18.2747 4.19263 18.2649 4.18421C18.255 4.17578 18.2432 4.16983 18.2306 4.16686C18.2179 4.16388 18.2047 4.16396 18.1921 4.1671H18.1818C17.4792 4.1671 16.7766 4.1671 16.0741 4.1671C15.6866 4.1671 15.4942 4.3802 15.4864 4.75762V4.85904C15.4916 5.75253 15.4963 6.64646 15.5006 7.54081C15.5006 7.62168 15.5006 7.70256 15.5006 7.78344C15.5006 7.92208 15.5006 7.92208 15.6453 7.92208L16.7908 7.92336ZM6.88767 8.43687C7.33711 8.63457 7.66257 8.51132 7.85887 8.08512L8.15721 7.42013C8.36772 6.95285 8.57694 6.48427 8.78875 6.01699C8.98893 5.57409 9.19299 5.13248 9.39575 4.69087C9.419 4.6408 9.42675 4.60357 9.35959 4.58303C9.02768 4.4829 8.6893 4.52655 8.48396 4.87573C8.44713 4.93997 8.41434 5.00643 8.3858 5.07471C8.28378 5.31734 8.18175 5.56125 8.0836 5.80517C8.03064 5.93354 7.98286 6.06192 7.92216 6.23009C7.84983 6.10172 7.79301 5.99902 7.73489 5.90017C7.47659 5.47909 7.21829 5.05931 6.95225 4.64337C6.92162 4.59801 6.87589 4.56483 6.8231 4.54965C6.6567 4.50325 6.48075 4.50262 6.31403 4.54784C6.1473 4.59305 5.99606 4.68242 5.87643 4.80641C5.5329 5.16457 5.1984 5.5343 4.85874 5.89631C4.81741 5.93996 4.8342 5.96949 4.85874 6.00928L5.25652 6.63319C5.38567 6.83474 5.51482 7.04014 5.64397 7.23656C5.90226 7.59986 6.41886 7.57033 6.67716 7.4304L6.5196 7.19034L5.81315 6.09786C5.78732 6.05807 5.75633 6.02469 5.81315 5.96949C5.91389 5.87449 6.00687 5.77179 6.10761 5.67679C6.20835 5.58179 6.34266 5.45599 6.46406 5.34173C6.47349 5.35083 6.48213 5.36071 6.48989 5.37126C6.83214 5.90273 7.1718 6.43549 7.51534 6.96568C7.53116 6.98901 7.53962 7.0165 7.53962 7.04463C7.53962 7.07277 7.53116 7.10026 7.51534 7.12358C7.32161 7.5177 7.12789 7.91309 6.94062 8.30721C6.92254 8.35342 6.90575 8.39194 6.8838 8.43815L6.88767 8.43687ZM20.6214 4.14527H19.2369C19.1229 4.13484 19.0093 4.16936 18.9206 4.2414C18.832 4.31345 18.7753 4.41724 18.7629 4.5304C18.7482 4.61515 18.7421 4.70118 18.7449 4.78715C18.7449 4.91552 18.772 4.93221 18.8973 4.93221C19.2266 4.93221 19.5559 4.93221 19.8853 4.93221C19.964 4.93221 19.9924 4.96046 19.9924 5.03877C19.9924 5.41234 20.0054 5.7872 20.0067 6.16205C20.0067 6.71749 20.0067 7.27378 20.0067 7.83093C20.0067 7.91181 20.0325 7.95032 20.1164 7.94904C20.221 7.94904 20.3269 7.94904 20.4316 7.94904C20.8087 7.91823 20.9223 7.79114 20.9236 7.41371C20.9236 6.63319 20.9262 5.85352 20.9314 5.07471C20.9314 4.93478 20.9314 4.93606 21.0721 4.9335C21.3085 4.9335 21.5474 4.9335 21.7837 4.91809C21.8633 4.91496 21.9395 4.88583 22.0007 4.83523C22.0619 4.78464 22.1046 4.71539 22.1221 4.63823C22.1485 4.51699 22.1645 4.39373 22.1699 4.2698C22.1777 4.17993 22.1389 4.14142 22.0408 4.14142C21.5694 4.14784 21.0941 4.14527 20.6214 4.14527ZM2.57538 4.49445C2.38295 4.51243 2.17243 4.5227 1.96579 4.55736C1.74333 4.58455 1.54012 4.69636 1.39883 4.86931C1.01138 5.38281 1.2064 6.01057 1.82631 6.21469C1.96959 6.25573 2.11485 6.28958 2.26155 6.3161C2.44623 6.35847 2.6322 6.3957 2.8143 6.44448C2.8525 6.45106 2.88687 6.47153 2.91074 6.5019C2.93461 6.53226 2.94627 6.57036 2.94345 6.6088C2.94274 6.64581 2.92966 6.68154 2.90628 6.71036C2.8829 6.73918 2.85055 6.75945 2.8143 6.76798C2.73716 6.79294 2.65651 6.8055 2.57538 6.80521C2.30158 6.79623 2.02779 6.77055 1.7527 6.76285C1.67598 6.75708 1.59904 6.7707 1.52905 6.80244C1.45905 6.83419 1.39828 6.88303 1.35239 6.94441C1.30649 7.00578 1.27697 7.07771 1.26658 7.15348C1.25618 7.22926 1.26525 7.30641 1.29293 7.37777C1.2989 7.39373 1.30856 7.40809 1.32112 7.41968C1.33367 7.43127 1.34879 7.43978 1.36525 7.44452C1.78757 7.46763 2.21118 7.50229 2.6335 7.49716C2.83952 7.49164 3.04272 7.44811 3.23275 7.36878C3.38638 7.30904 3.51683 7.20212 3.6051 7.06359C3.69337 6.92505 3.73485 6.76213 3.72352 6.59853C3.73247 6.43272 3.68994 6.26819 3.6017 6.1272C3.51346 5.98621 3.38376 5.87559 3.23017 5.8103C3.08485 5.74653 2.93279 5.69917 2.77685 5.66909C2.5715 5.62416 2.36228 5.59977 2.15564 5.55997C2.08074 5.54585 1.9955 5.52017 1.99033 5.42261C1.98517 5.32504 2.06007 5.29423 2.13756 5.26599C2.16303 5.25697 2.18947 5.25094 2.21634 5.24802C2.34549 5.24802 2.4811 5.23646 2.61154 5.23903C2.79493 5.23903 2.97832 5.26342 3.16042 5.26342C3.24978 5.26986 3.33843 5.24369 3.40975 5.1898C3.48108 5.13592 3.53019 5.05803 3.54787 4.97073C3.56661 4.88645 3.57528 4.80027 3.5737 4.71398C3.57729 4.69474 3.57641 4.67494 3.57112 4.6561C3.56583 4.63725 3.55628 4.61986 3.5432 4.60524C3.53011 4.59063 3.51384 4.57918 3.49563 4.57177C3.47741 4.56436 3.45773 4.56119 3.4381 4.56249C3.15526 4.54195 2.87501 4.51628 2.57538 4.49445ZM4.77092 4.78201H4.77996C4.77996 4.40459 4.77996 4.02588 4.77996 3.64846C4.77996 3.55218 4.75025 3.50981 4.65081 3.52008C4.62715 3.52138 4.60344 3.52138 4.57978 3.52008C4.14196 3.52008 3.97407 3.68569 3.97665 4.12088C3.97665 4.80512 3.99085 5.48936 3.99602 6.17489C3.99602 6.58569 3.99602 6.99778 3.99602 7.40986C3.99602 7.48689 4.01668 7.52155 4.09934 7.51256C4.20395 7.50229 4.30985 7.50614 4.41317 7.49331C4.67147 7.45993 4.76962 7.35209 4.76962 7.09149C4.76962 6.31995 4.76833 5.5497 4.76833 4.78073L4.77092 4.78201Z" fill="white"/>
<path d="M21.4569 14.1765C21.4569 15.5604 21.4737 16.9443 21.4569 18.3282C21.4537 20.7429 20.5378 23.0683 18.8907 24.8433C17.4627 26.4378 15.5309 27.5013 13.4135 27.8588C12.5063 28.0202 11.5799 28.0453 10.6652 27.9333C8.60948 27.7027 6.68711 26.8063 5.19447 25.3824C4.20885 24.46 3.42496 23.3456 2.89169 22.1087C2.35841 20.8718 2.08717 19.539 2.09489 18.1934C2.09489 15.2836 2.09489 12.3737 2.09489 9.46387C2.09489 9.3188 2.09489 9.3188 2.24083 9.3188C2.35189 9.3188 2.46425 9.3188 2.57661 9.3188C2.65281 9.3188 2.67477 9.34576 2.67477 9.41893C2.67477 9.81818 2.67477 10.2161 2.67477 10.6141C2.67477 13.1328 2.67477 15.6511 2.67477 18.169C2.6478 20.3036 3.37545 22.3799 4.73082 24.0358C6.13726 25.7714 7.94535 26.887 10.1551 27.2696C13.1139 27.7831 15.724 27.0025 17.9299 24.9806C19.5249 23.5197 20.4573 21.6891 20.7712 19.558C20.8368 19.0833 20.8683 18.6045 20.8654 18.1254C20.8732 15.2498 20.8654 12.3729 20.8654 9.49724C20.8596 9.46412 20.8596 9.43023 20.8654 9.39711C20.8784 9.36758 20.9094 9.32522 20.9352 9.32394C21.0837 9.32394 21.2335 9.32394 21.3833 9.32394C21.4053 9.32394 21.4363 9.36245 21.4466 9.38941C21.4518 9.42258 21.4518 9.45636 21.4466 9.48954L21.4569 14.1765Z" fill="white"/>
<path d="M11.7772 0.00130582H21.2297C21.2671 0.00323045 21.3046 0.00323045 21.342 0.00130582C21.4311 -0.00768047 21.4583 0.0295485 21.457 0.118128C21.457 0.944866 21.457 1.77161 21.457 2.59834C21.457 2.68179 21.4311 2.7126 21.3472 2.70875C21.2319 2.70234 21.1164 2.70234 21.0011 2.70875C20.899 2.70875 20.8655 2.68307 20.8655 2.58037C20.8655 1.97572 20.8655 1.37236 20.8655 0.767708C20.8655 0.736898 20.8655 0.707372 20.8655 0.676561C20.8732 0.604671 20.8383 0.578996 20.7699 0.585415C20.7428 0.585415 20.7156 0.585415 20.6885 0.585415H2.84268C2.65541 0.585415 2.67091 0.562307 2.67091 0.751019C2.67091 1.36209 2.67091 1.97187 2.67091 2.58294C2.67091 2.6805 2.64379 2.71131 2.54176 2.71131C2.43974 2.71131 2.30413 2.71131 2.18531 2.71131C2.11815 2.71131 2.08716 2.69206 2.08716 2.61888C2.08716 1.77845 2.08716 0.93802 2.08716 0.0975875C2.08716 0.0256972 2.11428 2.20639e-05 2.18273 0.00387333C2.22018 0.00387333 2.25764 0.00387333 2.29509 0.00387333L11.7772 0.00130582Z" fill="white"/>
<path d="M11.7811 12.6758H19.7613C19.8042 12.6721 19.8474 12.6721 19.8904 12.6758C19.9059 12.6766 19.921 12.6807 19.9347 12.6879C19.9484 12.695 19.9604 12.705 19.9699 12.7172C19.9793 12.7294 19.986 12.7435 19.9895 12.7585C19.9929 12.7736 19.993 12.7891 19.9899 12.8042C19.9795 12.8479 19.9253 12.8877 19.8827 12.9159C19.84 12.9441 19.8168 12.9159 19.7819 12.9159H3.75966C3.60727 12.9159 3.54657 12.8787 3.54915 12.7875C3.55173 12.6964 3.60856 12.6591 3.76612 12.6591L11.7811 12.6758Z" fill="white"/>
<path d="M8.83911 23.6853C8.83911 23.3002 8.83911 22.9228 8.83911 22.5415C8.83911 22.4555 8.86107 22.4234 8.95276 22.4234C9.45386 22.4234 9.95582 22.4234 10.4586 22.4234C10.5555 22.4234 10.5878 22.458 10.5775 22.5518C10.5775 22.693 10.5775 22.8355 10.5775 22.9767C10.5775 23.0665 10.5555 23.1051 10.4586 23.0986C10.2003 23.0986 9.92913 23.0986 9.66438 23.0986C9.58559 23.0986 9.55202 23.1192 9.55847 23.2001C9.56364 23.2744 9.56364 23.3491 9.55847 23.4234C9.55847 23.5017 9.58689 23.5197 9.65921 23.5197C9.89684 23.5197 10.1345 23.5197 10.3721 23.5197C10.4638 23.5197 10.4896 23.5505 10.4858 23.6365C10.4858 23.788 10.4858 23.9408 10.4858 24.0923C10.4858 24.1731 10.4574 24.1963 10.3786 24.195C10.1384 24.195 9.89684 24.195 9.65663 24.195C9.57914 24.195 9.5546 24.2206 9.55847 24.2951C9.56295 24.3703 9.56295 24.4458 9.55847 24.521C9.55847 24.5981 9.58559 24.6199 9.65921 24.6186C9.91751 24.6186 10.1887 24.6186 10.4535 24.6186C10.5439 24.6186 10.571 24.6469 10.5671 24.7354C10.5671 24.8869 10.5671 25.0384 10.5671 25.1899C10.5671 25.2541 10.5478 25.281 10.4793 25.281C10.0751 25.281 9.67212 25.281 9.26789 25.281C9.21069 25.2807 9.15414 25.269 9.10156 25.2467C9.04898 25.2243 9.00143 25.1917 8.96172 25.1508C8.92201 25.1099 8.89093 25.0615 8.87031 25.0084C8.8497 24.9554 8.83997 24.8988 8.84169 24.842C8.84169 24.4569 8.84169 24.0717 8.84169 23.6866L8.83911 23.6853Z" fill="white"/>
<path d="M11.0464 23.6853C11.0464 23.3002 11.0464 22.9228 11.0464 22.5402C11.0464 22.4529 11.0722 22.4234 11.1613 22.4234C11.671 22.4234 12.1803 22.4234 12.6892 22.4234C12.7679 22.4234 12.7989 22.4478 12.7964 22.5274C12.7964 22.6789 12.7964 22.8316 12.7964 22.9831C12.7964 23.0665 12.7718 23.0948 12.6866 23.0935C12.4154 23.0935 12.1429 23.0935 11.8717 23.0935C11.7929 23.0935 11.7593 23.114 11.7657 23.1962C11.7729 23.2632 11.7729 23.3308 11.7657 23.3978C11.7541 23.4966 11.7993 23.5159 11.8949 23.5146C12.1325 23.5146 12.3702 23.5146 12.6078 23.5146C12.6827 23.5146 12.7098 23.5377 12.7072 23.6121C12.7072 23.7713 12.7072 23.9305 12.7072 24.0884C12.7072 24.1629 12.6853 24.1898 12.6091 24.1885C12.3637 24.1885 12.1196 24.1885 11.8755 24.1885C11.7929 24.1885 11.7709 24.2155 11.7722 24.2938C11.7722 24.5904 11.7722 24.8882 11.7722 25.1847C11.7722 25.2643 11.7464 25.2836 11.6676 25.29C11.1872 25.3247 11.0296 25.0666 11.049 24.6854C11.0593 24.3477 11.0464 24.0165 11.0464 23.6853Z" fill="white"/>
<path d="M13.9418 22.4272V22.5749C13.9418 23.2167 13.9418 23.8586 13.9418 24.5082C13.9418 24.5981 13.9676 24.625 14.0567 24.6225C14.2801 24.6225 14.5049 24.6225 14.7283 24.6225C14.8084 24.6225 14.8368 24.6481 14.8355 24.7264C14.8355 24.8792 14.8355 25.0307 14.8355 25.1822C14.8355 25.2528 14.8174 25.2862 14.7373 25.2849C14.3809 25.2849 14.0244 25.2849 13.668 25.2849C13.6099 25.2857 13.5522 25.275 13.4984 25.2533C13.4446 25.2316 13.3957 25.1994 13.3546 25.1586C13.3135 25.1178 13.2811 25.0692 13.2593 25.0157C13.2375 24.9622 13.2267 24.9048 13.2276 24.8471C13.2276 24.0769 13.2276 23.3066 13.2276 22.5287C13.2276 22.485 13.2198 22.4349 13.287 22.4337L13.9418 22.4272Z" fill="white"/>
<path d="M8.20232 10.7733C8.20232 10.8092 8.20232 10.8439 8.20232 10.8786C8.20232 11.1931 8.20232 11.5063 8.20232 11.8196C8.20232 11.9146 8.16875 11.9479 8.07318 11.9479C7.81488 11.9479 7.84716 11.9479 7.85362 11.731C7.86654 11.2624 7.88978 10.7938 7.90399 10.3188C7.90399 10.229 7.94532 10.2123 8.03314 10.2033C8.10233 10.189 8.17441 10.2013 8.23482 10.2377C8.29523 10.2742 8.33947 10.3321 8.3586 10.3997C8.45287 10.6295 8.57427 10.849 8.69309 11.0891C8.71634 11.0467 8.73055 11.0223 8.74346 10.9967C8.84807 10.7707 8.95526 10.5448 9.05471 10.3163C9.06644 10.2796 9.09065 10.2482 9.12317 10.2273C9.15569 10.2065 9.1945 10.1975 9.23294 10.202C9.50028 10.202 9.45636 10.1853 9.47057 10.4228C9.4964 10.8876 9.50286 11.3536 9.52223 11.8183C9.52223 11.9158 9.48736 11.9389 9.39308 11.9389C9.18773 11.9389 9.18386 11.9389 9.17869 11.7348C9.17094 11.4563 9.17094 11.17 9.17094 10.8901C9.17287 10.8479 9.16256 10.806 9.14124 10.7694C9.11024 10.8349 9.07796 10.8978 9.04825 10.9659C8.97593 11.1186 8.90361 11.2714 8.83516 11.4254C8.82525 11.4541 8.80607 11.4788 8.78061 11.4955C8.75514 11.5122 8.72482 11.5201 8.69438 11.5179C8.664 11.5198 8.6338 11.512 8.60822 11.4956C8.58265 11.4792 8.56305 11.455 8.55232 11.4267C8.46321 11.2406 8.37022 11.0557 8.27981 10.8721L8.22557 10.7682L8.20232 10.7733Z" fill="white"/>
<path d="M14.5322 11.2727V11.0159C14.5322 10.7836 14.5322 10.5499 14.5322 10.3176C14.5322 10.2393 14.5593 10.211 14.6394 10.2097C14.8421 10.2097 14.8421 10.2097 14.8421 10.4023C14.8421 10.8644 14.8421 11.3266 14.8421 11.7888C14.8421 11.8414 14.877 11.9171 14.7853 11.9402C14.7395 11.9563 14.6897 11.9574 14.6432 11.9433C14.5967 11.9293 14.556 11.9007 14.527 11.8619C14.3978 11.6347 14.2609 11.4075 14.1279 11.179L13.9381 10.8529L13.9109 10.8606V10.989C13.9109 11.2688 13.9109 11.5491 13.9109 11.8298C13.9109 11.9402 13.8851 11.9582 13.7818 11.9313C13.743 11.9235 13.7074 11.9043 13.6797 11.8762C13.652 11.848 13.6336 11.8121 13.6268 11.7733C13.6143 11.7143 13.6082 11.654 13.6087 11.5936C13.6087 11.1854 13.6087 10.7772 13.6087 10.3689C13.6087 10.315 13.5752 10.2405 13.6643 10.2174C13.7117 10.1997 13.7636 10.1974 13.8124 10.2111C13.8612 10.2247 13.9043 10.2535 13.9355 10.2932L14.3656 11.0416L14.5063 11.2791L14.5322 11.2727Z" fill="white"/>
<path d="M13.3039 11.0763C13.311 11.187 13.311 11.298 13.3039 11.4088C13.294 11.5156 13.2642 11.6196 13.216 11.7156C13.0972 11.9274 12.7679 12.016 12.4476 11.9402C12.3289 11.92 12.2216 11.858 12.145 11.7656C12.0684 11.6733 12.0278 11.5566 12.0304 11.437C12.0188 11.1982 12.0188 10.9582 12.0304 10.7194C12.0459 10.401 12.2423 10.2213 12.5871 10.1892C13.0456 10.143 13.3039 10.3792 13.3039 10.8439V11.0763ZM12.9616 11.0763H12.95C12.95 10.9659 12.95 10.8542 12.95 10.7425C12.9488 10.7189 12.9445 10.6956 12.9371 10.6732C12.9221 10.6127 12.8856 10.5598 12.8343 10.5241C12.7829 10.4885 12.7203 10.4725 12.6581 10.4793C12.5031 10.4793 12.3998 10.5512 12.3998 10.6899C12.3868 10.9464 12.3868 11.2035 12.3998 11.4601C12.4076 11.6103 12.5044 11.6719 12.6697 11.6732C12.835 11.6745 12.928 11.6154 12.9448 11.4652C12.9579 11.3368 12.9643 11.2079 12.9642 11.0788L12.9616 11.0763Z" fill="white"/>
<path d="M17.607 11.0827C17.607 11.3394 17.607 11.5885 17.607 11.8414C17.607 11.9235 17.576 11.9467 17.4972 11.9377C17.4641 11.938 17.4314 11.9314 17.401 11.9183C17.3706 11.9053 17.3434 11.886 17.321 11.8618C17.2986 11.8376 17.2815 11.809 17.271 11.7778C17.2604 11.7467 17.2565 11.7137 17.2596 11.6809C17.2596 11.5525 17.2596 11.4242 17.2596 11.2855C17.2596 11.2213 17.2376 11.1944 17.1705 11.1969C17.0555 11.1969 16.9406 11.1969 16.8244 11.1969C16.7559 11.1969 16.7288 11.2175 16.7301 11.2894C16.7301 11.4678 16.7301 11.6463 16.7301 11.8247C16.7301 11.921 16.6926 11.9415 16.6009 11.93C16.5688 11.9291 16.5371 11.9216 16.508 11.9079C16.4789 11.8943 16.453 11.8748 16.4318 11.8506C16.4107 11.8265 16.3949 11.7983 16.3853 11.7677C16.3757 11.7372 16.3726 11.705 16.3762 11.6732C16.3762 11.2111 16.3762 10.7489 16.3762 10.2868C16.3762 10.22 16.4046 10.1982 16.4679 10.1982C16.7817 10.1982 16.7262 10.1738 16.7262 10.4357C16.7262 10.564 16.7262 10.7053 16.7262 10.8401C16.7262 10.8965 16.7482 10.9196 16.8037 10.9184C16.9328 10.9184 17.0491 10.9184 17.1705 10.9184C17.2402 10.9184 17.2557 10.8863 17.2557 10.8246C17.2557 10.6501 17.2557 10.4742 17.2557 10.2983C17.2557 10.2251 17.2815 10.1956 17.3564 10.1969C17.6587 10.1969 17.6018 10.1738 17.6057 10.4318C17.6096 10.6565 17.607 10.8696 17.607 11.0827Z" fill="white"/>
<path d="M6.09592 11.0763C6.09592 11.333 6.09592 11.5821 6.09592 11.835C6.09592 11.9223 6.06493 11.9479 5.98098 11.9377C5.94927 11.9374 5.91795 11.9307 5.88888 11.9181C5.85982 11.9055 5.8336 11.8872 5.81179 11.8643C5.78997 11.8415 5.77302 11.8145 5.76193 11.7849C5.75083 11.7554 5.74583 11.724 5.74722 11.6925C5.74722 11.5641 5.74722 11.4229 5.74722 11.2881C5.74722 11.2278 5.72656 11.2021 5.66456 11.2034C5.53541 11.2034 5.42047 11.2034 5.29778 11.2034C5.2345 11.2034 5.21771 11.2316 5.21771 11.2894C5.21771 11.4717 5.21771 11.654 5.21771 11.8363C5.21771 11.9261 5.18155 11.9467 5.10018 11.9364C5.06928 11.9366 5.03865 11.9305 5.01016 11.9186C4.98167 11.9067 4.9559 11.8892 4.93441 11.8672C4.91293 11.8451 4.89617 11.8189 4.88515 11.7902C4.87412 11.7615 4.86907 11.7309 4.8703 11.7002C4.8703 11.2316 4.8703 10.763 4.8703 10.2945C4.8703 10.2816 4.8703 10.2624 4.8703 10.2547C4.94908 10.1674 5.0524 10.2251 5.14409 10.2136C5.2035 10.2059 5.21512 10.2495 5.21512 10.2996C5.21512 10.478 5.21512 10.6578 5.21512 10.8362C5.21512 10.9055 5.23579 10.9338 5.30811 10.9312C5.4166 10.9312 5.52508 10.9312 5.63357 10.9312C5.71622 10.9312 5.74851 10.9094 5.74464 10.8234C5.74464 10.6513 5.74464 10.4793 5.74464 10.3099C5.74464 10.2418 5.76918 10.2123 5.83892 10.2123C6.15275 10.2123 6.09076 10.1879 6.09721 10.4524C6.0998 10.6565 6.09721 10.867 6.09592 11.0763Z" fill="white"/>
<path d="M6.98725 10.2097C7.01391 10.2117 7.04067 10.2117 7.06733 10.2097C7.08736 10.2059 7.10797 10.2062 7.12787 10.2107C7.14776 10.2152 7.1665 10.2238 7.18289 10.2358C7.19929 10.2479 7.21298 10.2632 7.2231 10.2808C7.23322 10.2984 7.23954 10.3179 7.24168 10.3381C7.37083 10.8349 7.51806 11.3317 7.66012 11.8273C7.68337 11.912 7.66012 11.9492 7.5723 11.9415H7.56197C7.2688 11.9415 7.32563 11.9415 7.27526 11.7143C7.25718 11.6321 7.22747 11.5859 7.13578 11.5988C7.02739 11.6052 6.91871 11.6052 6.81032 11.5988C6.74445 11.5988 6.707 11.618 6.70054 11.6861C6.69938 11.6993 6.69634 11.7122 6.6915 11.7246C6.67084 11.7913 6.66567 11.8992 6.62564 11.9146C6.53142 11.9398 6.43311 11.9464 6.33634 11.9338C6.26402 11.9338 6.29114 11.8709 6.30147 11.8324C6.37896 11.5397 6.45645 11.2457 6.53652 10.953C6.59077 10.7592 6.64888 10.5679 6.707 10.3715C6.75608 10.211 6.76124 10.2085 6.92526 10.2072L6.98725 10.2097ZM7.18614 11.315L6.99371 10.5166H6.96401L6.77803 11.315H7.18614Z" fill="white"/>
<path d="M18.8728 10.9851C18.8728 10.763 18.8728 10.5397 18.8728 10.3176C18.8728 10.2495 18.8896 10.2072 18.9684 10.2097C19.1686 10.2097 19.3687 10.2097 19.5676 10.2264C19.6234 10.2247 19.679 10.2342 19.731 10.2544C19.783 10.2746 19.8303 10.305 19.8701 10.3439C19.9099 10.3828 19.9414 10.4292 19.9627 10.4805C19.984 10.5318 19.9945 10.5869 19.9938 10.6424C20.0042 10.739 20.0015 10.8365 19.9861 10.9325C19.9683 11.0402 19.9125 11.1381 19.8287 11.2086C19.745 11.2792 19.6387 11.3178 19.5289 11.3176C19.4644 11.3221 19.3997 11.3221 19.3352 11.3176C19.2577 11.3176 19.2254 11.342 19.228 11.4229C19.228 11.5513 19.228 11.6925 19.228 11.8273C19.228 11.9133 19.1944 11.9402 19.1104 11.9287C18.949 11.9081 18.8754 11.8298 18.8728 11.645C18.8728 11.4229 18.8728 11.2008 18.8728 10.9774V10.9851ZM19.2293 10.7694C19.2293 10.8362 19.2293 10.9042 19.2293 10.971C19.2293 10.997 19.239 11.0222 19.2564 11.0416C19.3403 11.0981 19.5973 11.0211 19.618 10.9235C19.6367 10.8255 19.6367 10.7249 19.618 10.6269C19.596 10.5153 19.4475 10.4601 19.2835 10.4986C19.1724 10.5204 19.2383 10.6141 19.2241 10.6732C19.2217 10.7053 19.2235 10.7377 19.2293 10.7694Z" fill="white"/>
<path d="M10.1437 10.2046C10.2651 10.2046 10.3865 10.2136 10.5079 10.2264C10.6095 10.228 10.707 10.2671 10.7812 10.3362C10.8555 10.4052 10.9012 10.4993 10.9095 10.6C10.9252 10.6934 10.9274 10.7885 10.916 10.8824C10.9095 10.9985 10.8593 11.1079 10.7752 11.1888C10.6912 11.2697 10.5796 11.3162 10.4627 11.3189C10.4252 11.3208 10.3877 11.3208 10.3503 11.3189C10.1501 11.3189 10.1501 11.3189 10.1501 11.5307C10.1501 11.6347 10.1501 11.74 10.1501 11.844C10.1501 11.9158 10.1191 11.9377 10.0507 11.9338C10.0167 11.9359 9.98265 11.9305 9.95094 11.9182C9.91923 11.9059 9.89059 11.8868 9.867 11.8624C9.84342 11.838 9.82546 11.8088 9.81435 11.7768C9.80325 11.7448 9.79928 11.7107 9.80271 11.6771C9.80271 11.2162 9.80271 10.754 9.80271 10.2919C9.80271 10.2277 9.82725 10.1995 9.89182 10.2007C9.97706 10.2007 10.0623 10.2007 10.1501 10.2007L10.1437 10.2046ZM10.1437 10.7656C10.1437 10.8298 10.1437 10.894 10.1437 10.9569C10.1437 11.0198 10.1656 11.0583 10.2367 11.0519C10.3077 11.0455 10.3516 11.0442 10.4084 11.0352C10.4444 11.0315 10.4779 11.0155 10.5033 10.99C10.5288 10.9645 10.5445 10.931 10.5479 10.8953C10.5601 10.8101 10.5601 10.7237 10.5479 10.6385C10.5272 10.5101 10.3929 10.4562 10.2057 10.487C10.0907 10.505 10.1617 10.6 10.145 10.659C10.1411 10.6946 10.1424 10.7305 10.1488 10.7656H10.1437Z" fill="white"/>
<path d="M15.0925 11.5846C15.1547 11.6073 15.2186 11.6249 15.2837 11.6373C15.3969 11.6541 15.5114 11.6614 15.6259 11.6591C15.6691 11.6593 15.7111 11.6446 15.7445 11.6174C15.778 11.5902 15.8009 11.5523 15.8093 11.5102C15.8251 11.4621 15.8234 11.4101 15.8045 11.3632C15.7856 11.3163 15.7507 11.2774 15.706 11.2534C15.6195 11.2072 15.5252 11.1764 15.4361 11.1379C15.3265 11.0974 15.2349 11.0196 15.1776 10.9183C15.1204 10.8169 15.1012 10.6987 15.1235 10.5846C15.1331 10.5015 15.1673 10.423 15.2218 10.3593C15.2763 10.2955 15.3486 10.2493 15.4296 10.2264C15.605 10.1698 15.7933 10.1662 15.9707 10.2162C16.0495 10.2367 16.0999 10.4293 16.0405 10.4845C16.0237 10.4999 15.985 10.4973 15.9565 10.496C15.8519 10.496 15.7473 10.4806 15.6427 10.4832C15.6034 10.4807 15.5645 10.4923 15.533 10.5158C15.5015 10.5394 15.4795 10.5733 15.4709 10.6115C15.4566 10.6572 15.4585 10.7064 15.4764 10.7509C15.4942 10.7953 15.527 10.8322 15.5691 10.8555C15.6556 10.9004 15.7512 10.9299 15.8403 10.971C15.957 11.0107 16.0537 11.0935 16.1105 11.2023C16.1673 11.3111 16.1797 11.4375 16.1451 11.5551C16.1285 11.6563 16.0785 11.7491 16.003 11.8188C15.9274 11.8886 15.8307 11.9313 15.7279 11.9402C15.5802 11.9486 15.432 11.9447 15.285 11.9287C15.2627 11.93 15.2404 11.9266 15.2195 11.9187C15.1987 11.9107 15.1798 11.8984 15.1641 11.8826C15.1484 11.8668 15.1364 11.8478 15.1287 11.827C15.121 11.8062 15.1179 11.7839 15.1197 11.7618C15.1119 11.713 15.1042 11.6604 15.0925 11.5846Z" fill="white"/>
<path d="M3.54004 11.0775C3.54779 10.9222 3.54004 10.7669 3.56587 10.6141C3.57388 10.5112 3.61863 10.4146 3.69205 10.3416C3.76547 10.2686 3.86271 10.2241 3.96623 10.2161C4.15394 10.2038 4.34238 10.2081 4.52932 10.229C4.56032 10.229 4.61198 10.2701 4.61456 10.297C4.62057 10.3662 4.61622 10.4358 4.60165 10.5037C4.57089 10.5092 4.53941 10.5092 4.50866 10.5037C4.39113 10.5037 4.27232 10.4806 4.15479 10.4857C4.12455 10.4827 4.09401 10.486 4.06512 10.4953C4.03623 10.5047 4.00963 10.52 3.98701 10.5402C3.9644 10.5603 3.94628 10.585 3.9338 10.6125C3.92133 10.6401 3.91478 10.6699 3.91457 10.7001C3.90037 10.9569 3.90553 11.2136 3.91457 11.4704C3.91524 11.4963 3.92106 11.5218 3.93169 11.5455C3.94233 11.5691 3.95757 11.5905 3.97654 11.6082C3.99551 11.626 4.01783 11.6399 4.04221 11.6491C4.0666 11.6582 4.09257 11.6625 4.11863 11.6617C4.26282 11.661 4.4067 11.6481 4.54869 11.6231C4.62231 11.6129 4.64943 11.6154 4.63652 11.6989C4.60294 11.9107 4.58873 11.9312 4.37047 11.9556C4.25579 11.9666 4.14032 11.9666 4.02564 11.9556C3.71052 11.9248 3.5607 11.7618 3.54779 11.4421C3.54779 11.3215 3.54779 11.1995 3.54779 11.0788L3.54004 11.0775Z" fill="white"/>
<path d="M10.8862 16.4C10.9937 16.4005 11.0987 16.4327 11.1878 16.4925C11.2769 16.5523 11.3462 16.6371 11.3869 16.736C11.4276 16.835 11.4378 16.9437 11.4163 17.0484C11.3948 17.1532 11.3426 17.2492 11.2662 17.3244C11.1898 17.3997 11.0927 17.4507 10.9871 17.471C10.8815 17.4914 10.7723 17.4802 10.6731 17.4388C10.574 17.3974 10.4894 17.3277 10.43 17.2386C10.3707 17.1494 10.3393 17.0448 10.3398 16.9379C10.3409 16.7947 10.3989 16.6577 10.5013 16.5569C10.6037 16.4561 10.7421 16.3997 10.8862 16.4Z" fill="white"/>
<path d="M11.4027 19.6505C11.295 19.6507 11.1897 19.6192 11.1001 19.5599C11.0105 19.5006 10.9406 19.4162 10.8993 19.3174C10.858 19.2186 10.8471 19.1098 10.8681 19.0049C10.889 18.8999 10.9408 18.8035 11.0169 18.7278C11.093 18.6522 11.19 18.6007 11.2956 18.5799C11.4012 18.5591 11.5106 18.5699 11.6101 18.6109C11.7095 18.652 11.7944 18.7215 11.854 18.8105C11.9137 18.8996 11.9454 19.0043 11.9451 19.1113C11.9458 19.1823 11.9322 19.2527 11.9052 19.3184C11.8782 19.3842 11.8383 19.4439 11.7878 19.4941C11.7373 19.5443 11.6772 19.584 11.6111 19.6108C11.5449 19.6377 11.4741 19.6512 11.4027 19.6505Z" fill="white"/>
<path d="M13.5764 17.5888C13.5764 17.7305 13.5199 17.8665 13.4192 17.9668C13.3184 18.0672 13.1818 18.1237 13.0392 18.1241C12.8957 18.1241 12.758 18.0674 12.6565 17.9665C12.5551 17.8657 12.498 17.7289 12.498 17.5862C12.498 17.4435 12.5551 17.3067 12.6565 17.2058C12.758 17.105 12.8957 17.0483 13.0392 17.0483C13.1104 17.0479 13.1809 17.0617 13.2467 17.0889C13.3125 17.116 13.3721 17.1559 13.4222 17.2062C13.4722 17.2566 13.5116 17.3163 13.5381 17.382C13.5646 17.4477 13.5776 17.518 13.5764 17.5888Z" fill="white"/>
<path d="M18.2503 10.2097C18.3523 10.2097 18.4543 10.2097 18.5564 10.2097C18.6287 10.2097 18.6481 10.2393 18.6403 10.3099C18.63 10.41 18.6106 10.4896 18.4789 10.4716C18.4634 10.4716 18.4233 10.5114 18.4233 10.5332C18.4233 10.894 18.4233 11.2547 18.4233 11.6154C18.4233 11.6873 18.4698 11.6899 18.5189 11.6848C18.6364 11.6694 18.6274 11.7438 18.6313 11.8234C18.6352 11.903 18.6042 11.9518 18.515 11.9428C18.3291 11.9428 18.1418 11.9428 17.9558 11.9428C17.8551 11.9428 17.8525 11.885 17.8525 11.8144C17.8525 11.7438 17.859 11.6758 17.9584 11.6861C18.0579 11.6963 18.0734 11.6565 18.0721 11.5705C18.0721 11.2427 18.0721 10.9154 18.0721 10.5884C18.0721 10.5011 18.054 10.4601 17.9545 10.4601C17.8551 10.4601 17.8564 10.392 17.8525 10.3201C17.8486 10.2482 17.868 10.1918 17.9584 10.202C18.0488 10.2123 18.1521 10.2097 18.2503 10.2097Z" fill="white"/>
<path d="M11.4402 10.2097C11.5357 10.2097 11.6313 10.2097 11.7256 10.2097C11.7695 10.2097 11.8379 10.1956 11.825 10.2713C11.8121 10.3471 11.8599 10.4613 11.7346 10.4613C11.6093 10.4613 11.6055 10.514 11.6055 10.6141C11.6055 10.9338 11.6055 11.256 11.6055 11.5756C11.6055 11.6578 11.6274 11.704 11.714 11.686C11.825 11.6706 11.8199 11.7438 11.8224 11.8144C11.825 11.885 11.8018 11.9428 11.7088 11.9428C11.5228 11.9428 11.3355 11.9428 11.1496 11.9428C11.0475 11.9428 11.0424 11.8889 11.0437 11.8144C11.045 11.74 11.0437 11.6719 11.1457 11.686C11.2309 11.6963 11.2568 11.6617 11.2568 11.5782C11.2568 11.2432 11.2568 10.9094 11.2568 10.5756C11.2568 10.4909 11.2296 10.4562 11.1457 10.4665C11.0411 10.4793 11.045 10.41 11.0437 10.3381C11.0424 10.2662 11.0437 10.2097 11.1496 10.2097C11.2555 10.2097 11.342 10.2097 11.4402 10.2097Z" fill="white"/>
<path d="M10.9197 20.3026C10.9197 20.1709 10.9723 20.0445 11.0661 19.9513C11.1598 19.8582 11.2869 19.8058 11.4195 19.8058C11.552 19.8058 11.6792 19.8582 11.7729 19.9513C11.8666 20.0445 11.9193 20.1709 11.9193 20.3026C11.9173 20.4341 11.8636 20.5595 11.7697 20.6521C11.6758 20.7448 11.5492 20.7972 11.4169 20.7982C11.285 20.7975 11.1587 20.745 11.0656 20.6522C10.9725 20.5594 10.92 20.4337 10.9197 20.3026Z" fill="white"/>
<path d="M10.3333 16.3589C10.3338 16.4238 10.3213 16.4881 10.2966 16.5482C10.2718 16.6082 10.2353 16.6628 10.1892 16.7086C10.143 16.7545 10.0881 16.7908 10.0277 16.8154C9.96734 16.84 9.90262 16.8524 9.83735 16.8519C9.70534 16.8522 9.57852 16.8008 9.48445 16.7087C9.39038 16.6167 9.33666 16.4914 9.33496 16.3602C9.33598 16.2272 9.38968 16.0999 9.48444 16.0059C9.5792 15.912 9.70739 15.8589 9.84123 15.8583C9.97311 15.8603 10.0988 15.914 10.191 16.0078C10.2832 16.1016 10.3343 16.2278 10.3333 16.3589Z" fill="white"/>
<path d="M13.57 16.9661C13.5703 16.9011 13.5837 16.8368 13.6094 16.7769C13.6351 16.7171 13.6726 16.663 13.7196 16.6178C13.7667 16.5726 13.8223 16.5372 13.8834 16.5136C13.9444 16.4901 14.0095 16.479 14.0749 16.4809C14.1419 16.4783 14.2087 16.4894 14.2713 16.5133C14.3338 16.5372 14.3909 16.5735 14.4389 16.62C14.4869 16.6665 14.5249 16.7222 14.5506 16.7837C14.5763 16.8453 14.5891 16.9114 14.5883 16.978C14.5875 17.0446 14.5731 17.1104 14.546 17.1713C14.5188 17.2322 14.4795 17.287 14.4304 17.3324C14.3813 17.3777 14.3235 17.4127 14.2604 17.4351C14.1973 17.4576 14.1302 17.467 14.0633 17.463C13.9978 17.4637 13.9328 17.4512 13.8722 17.4264C13.8116 17.4016 13.7566 17.365 13.7106 17.3186C13.6645 17.2722 13.6284 17.2171 13.6042 17.1566C13.58 17.096 13.5684 17.0313 13.57 16.9661Z" fill="white"/>
<path d="M12.5729 18.5888C12.6692 18.5883 12.7635 18.6162 12.8439 18.6689C12.9242 18.7217 12.987 18.797 13.0243 18.8852C13.0617 18.9734 13.0718 19.0707 13.0535 19.1647C13.0353 19.2587 12.9893 19.3451 12.9216 19.4132C12.8539 19.4812 12.7674 19.5278 12.673 19.5469C12.5787 19.5661 12.4807 19.557 12.3916 19.5209C12.3024 19.4847 12.226 19.4231 12.1721 19.3438C12.1182 19.2645 12.0891 19.1711 12.0886 19.0753C12.0883 18.9471 12.139 18.8239 12.2298 18.7327C12.3205 18.6416 12.4439 18.5898 12.5729 18.5888Z" fill="white"/>
<path d="M10.3333 17.4899C10.4289 17.4904 10.5222 17.519 10.6014 17.5721C10.6807 17.6252 10.7423 17.7004 10.7787 17.7883C10.815 17.8761 10.8244 17.9727 10.8056 18.0659C10.7868 18.159 10.7408 18.2445 10.6732 18.3117C10.6056 18.3789 10.5196 18.4247 10.4259 18.4433C10.3322 18.462 10.235 18.4527 10.1466 18.4166C10.0582 18.3804 9.98255 18.3191 9.92913 18.2404C9.87572 18.1616 9.84695 18.0689 9.84644 17.9739C9.84627 17.9103 9.85874 17.8473 9.88315 17.7885C9.90756 17.7297 9.94342 17.6763 9.98866 17.6313C10.0339 17.5863 10.0877 17.5507 10.1468 17.5264C10.206 17.5021 10.2693 17.4897 10.3333 17.4899Z" fill="white"/>
<path d="M12.8995 16.5874C12.9 16.6825 12.8722 16.7757 12.8195 16.855C12.7668 16.9344 12.6917 16.9965 12.6035 17.0335C12.5154 17.0705 12.4182 17.0807 12.3242 17.0628C12.2302 17.0449 12.1437 16.9998 12.0755 16.9331C12.0073 16.8664 11.9605 16.7811 11.941 16.688C11.9216 16.5949 11.9303 16.4981 11.9661 16.4099C12.0019 16.3217 12.0631 16.246 12.1421 16.1924C12.2211 16.1388 12.3144 16.1096 12.41 16.1086C12.5385 16.1086 12.6619 16.1588 12.7534 16.2484C12.845 16.3379 12.8975 16.4597 12.8995 16.5874Z" fill="white"/>
<path d="M12.5355 19.68C12.6294 19.68 12.7212 19.7077 12.7992 19.7597C12.8773 19.8116 12.938 19.8854 12.9738 19.9717C13.0095 20.0581 13.0187 20.153 13.0001 20.2445C12.9815 20.336 12.936 20.4199 12.8693 20.4856C12.8026 20.5514 12.7178 20.5959 12.6256 20.6137C12.5334 20.6314 12.438 20.6215 12.3514 20.5853C12.2649 20.549 12.1911 20.4881 12.1395 20.4101C12.0879 20.3321 12.0608 20.2406 12.0615 20.1473C12.061 20.0854 12.0729 20.0241 12.0966 19.967C12.1203 19.9098 12.1553 19.8579 12.1994 19.8143C12.2436 19.7708 12.2961 19.7365 12.3538 19.7134C12.4115 19.6903 12.4733 19.679 12.5355 19.68Z" fill="white"/>
<path d="M9.4203 16.9251C9.51389 16.9261 9.60506 16.9547 9.68227 17.0073C9.75947 17.0599 9.81924 17.1341 9.85398 17.2205C9.88872 17.3069 9.89689 17.4016 9.87743 17.4926C9.85798 17.5836 9.81178 17.6668 9.7447 17.7316C9.67762 17.7965 9.59267 17.8401 9.50062 17.857C9.40857 17.8738 9.31357 17.8631 9.22764 17.8262C9.14172 17.7893 9.06875 17.7279 9.01798 17.6498C8.9672 17.5716 8.94092 17.4802 8.94245 17.3872C8.94277 17.3255 8.95545 17.2645 8.97974 17.2078C9.00404 17.151 9.03945 17.0996 9.08393 17.0566C9.12841 17.0136 9.18106 16.9798 9.23881 16.9572C9.29656 16.9346 9.35825 16.9237 9.4203 16.9251Z" fill="white"/>
<path d="M13.8475 16.0855C13.8475 16.2101 13.7977 16.3296 13.709 16.4177C13.6204 16.5058 13.5002 16.5553 13.3748 16.5553C13.2494 16.5553 13.1292 16.5058 13.0405 16.4177C12.9519 16.3296 12.9021 16.2101 12.9021 16.0855C12.9021 16.0238 12.9143 15.9627 12.9381 15.9057C12.9618 15.8487 12.9967 15.7969 13.0405 15.7532C13.0844 15.7096 13.1365 15.675 13.1939 15.6514C13.2512 15.6278 13.3127 15.6156 13.3748 15.6156C13.4369 15.6156 13.4983 15.6278 13.5557 15.6514C13.613 15.675 13.6651 15.7096 13.709 15.7532C13.7529 15.7969 13.7877 15.8487 13.8115 15.9057C13.8352 15.9627 13.8475 16.0238 13.8475 16.0855Z" fill="white"/>
<path d="M11.5269 21.2346C11.5274 21.1497 11.5532 21.0668 11.601 20.9964C11.6489 20.926 11.7166 20.8713 11.7957 20.8391C11.8748 20.807 11.9617 20.7988 12.0455 20.8157C12.1292 20.8326 12.2061 20.8738 12.2663 20.934C12.3266 20.9943 12.3675 21.0709 12.384 21.1542C12.4005 21.2376 12.3918 21.3239 12.359 21.4024C12.3261 21.4808 12.2707 21.5478 12.1996 21.595C12.1285 21.6421 12.045 21.6673 11.9595 21.6673C11.8445 21.6666 11.7345 21.6207 11.6534 21.5396C11.5724 21.4586 11.5269 21.3489 11.5269 21.2346Z" fill="white"/>
<path d="M8.32891 16.3538C8.32804 16.2968 8.33866 16.2402 8.36013 16.1873C8.3816 16.1345 8.41349 16.0864 8.45392 16.046C8.49435 16.0055 8.54251 15.9736 8.59557 15.9519C8.64862 15.9302 8.7055 15.9194 8.76285 15.9199C8.84915 15.9196 8.93357 15.9449 9.0054 15.9924C9.07722 16.04 9.13321 16.1077 9.16623 16.187C9.19925 16.2662 9.20783 16.3534 9.19086 16.4375C9.1739 16.5217 9.13216 16.5989 9.07096 16.6593C9.00975 16.7198 8.93184 16.7608 8.84713 16.7772C8.76241 16.7935 8.67471 16.7845 8.59518 16.7512C8.51565 16.7179 8.44787 16.6619 8.40045 16.5902C8.35304 16.5185 8.32814 16.4344 8.32891 16.3487V16.3538Z" fill="white"/>
<path d="M14.6057 16.4668C14.4959 16.4608 14.3926 16.4132 14.317 16.3338C14.2414 16.2544 14.1992 16.1492 14.1992 16.0399C14.1992 15.9306 14.2414 15.8254 14.317 15.746C14.3926 15.6666 14.4959 15.619 14.6057 15.6131C14.6641 15.6099 14.7225 15.6186 14.7774 15.6386C14.8323 15.6586 14.8825 15.6895 14.9249 15.7295C14.9674 15.7694 15.0012 15.8175 15.0243 15.8709C15.0474 15.9243 15.0594 15.9818 15.0594 16.0399C15.0594 16.098 15.0474 16.1555 15.0243 16.2089C15.0012 16.2623 14.9674 16.3104 14.9249 16.3504C14.8825 16.3903 14.8323 16.4212 14.7774 16.4412C14.7225 16.4613 14.6641 16.4699 14.6057 16.4668Z" fill="white"/>
<path d="M8.41162 17.6619C8.35887 17.6607 8.30689 17.6491 8.25865 17.6279C8.2104 17.6066 8.16684 17.5762 8.13044 17.5382C8.09404 17.5002 8.06553 17.4555 8.04652 17.4066C8.02751 17.3577 8.01838 17.3055 8.01965 17.2531C8.02092 17.2006 8.03257 17.149 8.05393 17.101C8.07529 17.053 8.10594 17.0097 8.14414 16.9736C8.18234 16.9374 8.22733 16.909 8.27654 16.8901C8.32576 16.8712 8.37824 16.8622 8.43099 16.8634C8.48373 16.8647 8.53571 16.8763 8.58396 16.8975C8.6322 16.9187 8.67577 16.9492 8.71216 16.9872C8.74856 17.0251 8.77708 17.0699 8.79609 17.1188C8.8151 17.1677 8.82423 17.2199 8.82296 17.2723C8.82168 17.3247 8.81004 17.3764 8.78868 17.4244C8.76732 17.4723 8.73666 17.5156 8.69847 17.5518C8.66027 17.588 8.61528 17.6163 8.56606 17.6352C8.51684 17.6541 8.46436 17.6632 8.41162 17.6619Z" fill="white"/>
<path d="M12.9164 21.4734C12.8369 21.4737 12.7592 21.4505 12.693 21.4068C12.6268 21.3632 12.5751 21.301 12.5445 21.2281C12.5139 21.1553 12.5056 21.075 12.5209 20.9975C12.5361 20.92 12.5742 20.8488 12.6302 20.7928C12.6861 20.7367 12.7576 20.6985 12.8355 20.6828C12.9133 20.6672 12.9941 20.6748 13.0676 20.7048C13.1411 20.7348 13.204 20.7858 13.2483 20.8513C13.2927 20.9168 13.3165 20.9939 13.3167 21.0729C13.3169 21.1253 13.3067 21.1773 13.2867 21.2258C13.2666 21.2743 13.2372 21.3184 13.2 21.3556C13.1628 21.3928 13.1186 21.4223 13.07 21.4425C13.0213 21.4627 12.9691 21.4732 12.9164 21.4734Z" fill="white"/>
<path d="M13.5621 19.2859C13.4826 19.2861 13.4048 19.2629 13.3386 19.2192C13.2724 19.1755 13.2207 19.1132 13.1901 19.0403C13.1595 18.9674 13.1514 18.8871 13.1667 18.8095C13.1821 18.732 13.2202 18.6607 13.2764 18.6048C13.3325 18.5488 13.4041 18.5107 13.482 18.4952C13.5599 18.4796 13.6408 18.4875 13.7142 18.5177C13.7877 18.5478 13.8505 18.599 13.8947 18.6647C13.9389 18.7304 13.9625 18.8076 13.9625 18.8866C13.9621 18.9922 13.9199 19.0934 13.8449 19.1681C13.77 19.2429 13.6683 19.2852 13.5621 19.2859Z" fill="white"/>
<path d="M10.0003 19.3039C9.92086 19.3023 9.84368 19.2774 9.77851 19.2323C9.71333 19.1871 9.66308 19.1238 9.63411 19.0503C9.60514 18.9768 9.59875 18.8964 9.61575 18.8192C9.63275 18.7421 9.67238 18.6717 9.72962 18.617C9.78686 18.5622 9.85914 18.5256 9.93734 18.5117C10.0155 18.4978 10.0961 18.5072 10.1689 18.5388C10.2417 18.5704 10.3034 18.6228 10.3463 18.6893C10.3891 18.7558 10.4112 18.8334 10.4097 18.9123C10.407 19.018 10.3625 19.1183 10.2858 19.1916C10.2092 19.2649 10.1066 19.3052 10.0003 19.3039Z" fill="white"/>
<path d="M13.5906 15.2921C13.5906 15.1869 13.6326 15.086 13.7075 15.0116C13.7823 14.9372 13.8838 14.8954 13.9896 14.8954C14.0955 14.8954 14.197 14.9372 14.2718 15.0116C14.3467 15.086 14.3887 15.1869 14.3887 15.2921C14.3887 15.3973 14.3467 15.4982 14.2718 15.5726C14.197 15.647 14.0955 15.6888 13.9896 15.6888C13.8838 15.6888 13.7823 15.647 13.7075 15.5726C13.6326 15.4982 13.5906 15.3973 13.5906 15.2921Z" fill="white"/>
<path d="M12.1661 15.8429C12.164 15.9495 12.1195 16.0511 12.0423 16.1252C11.9651 16.1993 11.8614 16.24 11.7541 16.2382C11.6476 16.2371 11.5459 16.1939 11.4714 16.1181C11.3969 16.0424 11.3558 15.9404 11.357 15.8345C11.3582 15.7286 11.4016 15.6275 11.4778 15.5535C11.554 15.4795 11.6566 15.4386 11.7631 15.4398C11.8702 15.4404 11.9727 15.4832 12.0482 15.5587C12.1237 15.6342 12.1661 15.7364 12.1661 15.8429Z" fill="white"/>
<path d="M9.21893 18.7788C9.11545 18.7788 9.01608 18.7385 8.94219 18.6665C8.86829 18.5945 8.82576 18.4965 8.82373 18.3937C8.82356 18.3413 8.83379 18.2894 8.85384 18.241C8.87388 18.1926 8.90334 18.1485 8.94054 18.1114C8.97773 18.0744 9.02193 18.0449 9.07058 18.0248C9.11924 18.0048 9.17141 17.9944 9.2241 17.9944C9.32853 17.9967 9.42804 18.039 9.50191 18.1124C9.57577 18.1858 9.61828 18.2847 9.62058 18.3885C9.61855 18.493 9.5753 18.5924 9.50016 18.6654C9.42501 18.7384 9.32401 18.7792 9.21893 18.7788Z" fill="white"/>
<path d="M13.4911 20.2153C13.4393 20.2153 13.3881 20.205 13.3404 20.1851C13.2927 20.1651 13.2495 20.1358 13.2134 20.0989C13.1773 20.0621 13.149 20.0184 13.1301 19.9705C13.1113 19.9225 13.1023 19.8714 13.1037 19.8199C13.1043 19.7157 13.1461 19.6159 13.22 19.542C13.2939 19.468 13.394 19.4259 13.4989 19.4245C13.6036 19.4265 13.7036 19.4686 13.778 19.542C13.8523 19.6154 13.8953 19.7145 13.8979 19.8186C13.8979 19.8714 13.8874 19.9236 13.8668 19.9722C13.8463 20.0209 13.8162 20.065 13.7783 20.1019C13.7404 20.1388 13.6955 20.1679 13.6462 20.1874C13.5969 20.2068 13.5442 20.2163 13.4911 20.2153Z" fill="white"/>
<path d="M12.6065 15.8159C12.528 15.8156 12.4515 15.7922 12.3865 15.7485C12.3215 15.7048 12.2711 15.6429 12.2416 15.5707C12.2121 15.4984 12.205 15.4191 12.221 15.3428C12.237 15.2664 12.2755 15.1966 12.3316 15.1421C12.3877 15.0876 12.4589 15.051 12.536 15.0368C12.6131 15.0226 12.6928 15.0316 12.7647 15.0625C12.8367 15.0935 12.8978 15.145 12.9402 15.2106C12.9827 15.2762 13.0045 15.3528 13.003 15.4308C13.0009 15.5338 12.9582 15.632 12.884 15.704C12.8099 15.7761 12.7102 15.8162 12.6065 15.8159Z" fill="white"/>
<path d="M8.35098 17.7967C8.40027 17.7969 8.44905 17.8067 8.49451 17.8257C8.53997 17.8446 8.58122 17.8723 8.6159 17.9071C8.65057 17.942 8.67799 17.9832 8.69658 18.0286C8.71517 18.074 8.72456 18.1226 8.72422 18.1716C8.72319 18.271 8.68248 18.3659 8.61103 18.4355C8.53958 18.5051 8.44325 18.5436 8.34323 18.5426C8.24321 18.5416 8.1477 18.5011 8.07771 18.4301C8.00771 18.3591 7.96896 18.2633 7.96999 18.1639C7.97049 18.1148 7.98077 18.0664 8.00024 18.0213C8.01971 17.9762 8.04798 17.9354 8.08341 17.9013C8.11884 17.8671 8.16073 17.8403 8.20666 17.8224C8.25259 17.8044 8.30164 17.7957 8.35098 17.7967Z" fill="white"/>
<path d="M13.3671 20.6852C13.3727 20.5897 13.4148 20.5 13.4848 20.4344C13.5548 20.3688 13.6474 20.3323 13.7436 20.3323C13.8398 20.3323 13.9323 20.3688 14.0023 20.4344C14.0723 20.5 14.1144 20.5897 14.12 20.6852C14.123 20.7362 14.1155 20.7872 14.098 20.8352C14.0804 20.8832 14.0532 20.9271 14.0179 20.9643C13.9827 21.0015 13.9401 21.0311 13.893 21.0513C13.8458 21.0715 13.795 21.082 13.7436 21.082C13.6922 21.082 13.6414 21.0715 13.5942 21.0513C13.547 21.0311 13.5045 21.0015 13.4692 20.9643C13.434 20.9271 13.4067 20.8832 13.3892 20.8352C13.3716 20.7872 13.3641 20.7362 13.3671 20.6852Z" fill="white"/>
<path d="M13.2368 15.1496C13.163 15.1496 13.091 15.1279 13.0297 15.0873C12.9683 15.0466 12.9205 14.9888 12.8922 14.9212C12.8639 14.8535 12.8563 14.7791 12.8705 14.7072C12.8847 14.6353 12.92 14.5692 12.9719 14.5172C13.0239 14.4652 13.0901 14.4297 13.1624 14.4151C13.2346 14.4005 13.3096 14.4074 13.3778 14.4351C13.4461 14.4628 13.5045 14.51 13.5458 14.5706C13.5872 14.6313 13.6095 14.7028 13.61 14.7761C13.6102 14.8249 13.6006 14.8734 13.582 14.9186C13.5633 14.9639 13.5359 15.005 13.5012 15.0397C13.4666 15.0744 13.4254 15.1019 13.38 15.1208C13.3346 15.1397 13.2859 15.1495 13.2368 15.1496Z" fill="white"/>
<path d="M10.0184 19.3989C10.0839 19.3986 10.1479 19.4176 10.2026 19.4535C10.2572 19.4894 10.3 19.5405 10.3254 19.6005C10.3509 19.6604 10.3579 19.7266 10.3457 19.7905C10.3334 19.8544 10.3024 19.9133 10.2566 19.9598C10.2107 20.0063 10.1521 20.0382 10.088 20.0516C10.0239 20.065 9.9573 20.0593 9.89649 20.0352C9.83568 20.011 9.78342 19.9695 9.74628 19.9159C9.70914 19.8623 9.68877 19.799 9.68775 19.7339C9.68707 19.646 9.72147 19.5613 9.78344 19.4985C9.84541 19.4357 9.92989 19.3999 10.0184 19.3989Z" fill="white"/>
<path d="M13.9341 18.4591C13.9354 18.3942 13.9559 18.3311 13.9931 18.2778C14.0302 18.2244 14.0824 18.1831 14.1431 18.1591C14.2038 18.135 14.2702 18.1293 14.3342 18.1427C14.3981 18.156 14.4566 18.1878 14.5025 18.2341C14.5483 18.2803 14.5794 18.339 14.5918 18.4027C14.6042 18.4665 14.5975 18.5324 14.5724 18.5924C14.5473 18.6523 14.5049 18.7036 14.4507 18.7397C14.3964 18.7758 14.3326 18.7952 14.2673 18.7955C14.2232 18.7953 14.1795 18.7865 14.1388 18.7694C14.0981 18.7524 14.0612 18.7276 14.0302 18.6963C13.9993 18.665 13.9748 18.628 13.9583 18.5873C13.9418 18.5466 13.9336 18.503 13.9341 18.4591Z" fill="white"/>
<path d="M11.0373 15.7671C10.9497 15.7661 10.8661 15.7307 10.8046 15.6687C10.7432 15.6066 10.7089 15.523 10.7092 15.4359C10.7095 15.3705 10.7293 15.3067 10.7661 15.2526C10.8029 15.1984 10.855 15.1563 10.9159 15.1317C10.9768 15.107 11.0437 15.1009 11.1081 15.1141C11.1725 15.1273 11.2315 15.1592 11.2777 15.2057C11.3238 15.2523 11.355 15.3115 11.3672 15.3757C11.3795 15.4399 11.3723 15.5063 11.3465 15.5664C11.3208 15.6266 11.2776 15.6777 11.2226 15.7135C11.1675 15.7492 11.103 15.7679 11.0373 15.7671Z" fill="white"/>
<path d="M9.55859 19.2358C9.5591 19.2788 9.55103 19.3214 9.53484 19.3613C9.51865 19.4011 9.49466 19.4374 9.46427 19.468C9.43387 19.4985 9.39768 19.5228 9.35778 19.5394C9.31789 19.5559 9.27508 19.5645 9.23184 19.5645C9.14628 19.5605 9.06551 19.5241 9.00616 19.4627C8.94681 19.4013 8.91341 19.3197 8.91284 19.2345C8.91451 19.1494 8.94937 19.0682 9.01008 19.0081C9.0708 18.948 9.15262 18.9136 9.2383 18.9123C9.2807 18.9127 9.32262 18.9213 9.36166 18.9377C9.4007 18.9542 9.43611 18.9781 9.46585 19.0081C9.49559 19.0382 9.51909 19.0737 9.535 19.1128C9.55091 19.1519 9.55893 19.1937 9.55859 19.2358Z" fill="white"/>
<path d="M14.2286 19.7082C14.1837 19.711 14.1387 19.7047 14.0964 19.6895C14.0541 19.6744 14.0153 19.6508 13.9825 19.6201C13.9497 19.5895 13.9236 19.5526 13.9057 19.5115C13.8879 19.4705 13.8787 19.4262 13.8787 19.3815C13.8787 19.3368 13.8879 19.2926 13.9057 19.2515C13.9236 19.2105 13.9497 19.1735 13.9825 19.1429C14.0153 19.1123 14.0541 19.0887 14.0964 19.0735C14.1387 19.0584 14.1837 19.052 14.2286 19.0548C14.3144 19.0565 14.396 19.0916 14.4559 19.1526C14.5159 19.2136 14.5493 19.2956 14.5489 19.3809C14.5496 19.4233 14.5418 19.4654 14.5261 19.5049C14.5103 19.5443 14.4869 19.5803 14.4572 19.6107C14.4274 19.6411 14.3919 19.6654 14.3527 19.6821C14.3134 19.6989 14.2713 19.7077 14.2286 19.7082Z" fill="white"/>
<path d="M11.8573 15.3332C11.8148 15.3332 11.7727 15.3249 11.7334 15.3087C11.6942 15.2924 11.6585 15.2687 11.6285 15.2387C11.5985 15.2088 11.5748 15.1733 11.5586 15.1342C11.5425 15.0951 11.5343 15.0532 11.5344 15.011C11.5344 14.9256 11.5681 14.8436 11.6282 14.7827C11.6883 14.7217 11.7701 14.6866 11.856 14.6849C11.8999 14.6852 11.9433 14.6942 11.9837 14.7114C12.0241 14.7285 12.0607 14.7534 12.0913 14.7847C12.122 14.816 12.1461 14.853 12.1622 14.8936C12.1783 14.9342 12.1862 14.9776 12.1853 15.0213C12.1823 15.1055 12.1463 15.1852 12.0851 15.2435C12.0238 15.3017 11.9421 15.3339 11.8573 15.3332Z" fill="white"/>
<path d="M8.44661 19.282C8.36501 19.2791 8.28762 19.2453 8.23025 19.1876C8.17288 19.1298 8.13986 19.0525 8.13794 18.9714C8.13994 18.8879 8.17445 18.8085 8.23419 18.7498C8.29394 18.6911 8.37425 18.6578 8.45823 18.6568C8.54239 18.6592 8.62219 18.6945 8.68026 18.7551C8.73832 18.8157 8.76993 18.8967 8.76819 18.9804C8.76483 19.0624 8.7293 19.1399 8.66921 19.1963C8.60912 19.2527 8.52922 19.2834 8.44661 19.282Z" fill="white"/>
<path d="M12.4837 14.1573C12.5265 14.1545 12.5694 14.1606 12.6098 14.175C12.6502 14.1894 12.6872 14.2119 12.7185 14.241C12.7498 14.2702 12.7747 14.3055 12.7918 14.3446C12.8088 14.3837 12.8176 14.4259 12.8176 14.4686C12.8176 14.5112 12.8088 14.5534 12.7918 14.5926C12.7747 14.6317 12.7498 14.667 12.7185 14.6961C12.6872 14.7253 12.6502 14.7478 12.6098 14.7622C12.5694 14.7766 12.5265 14.7826 12.4837 14.7799C12.4041 14.7748 12.3294 14.7398 12.2749 14.682C12.2203 14.6242 12.1899 14.5479 12.1899 14.4686C12.1899 14.3893 12.2203 14.313 12.2749 14.2552C12.3294 14.1974 12.4041 14.1624 12.4837 14.1573Z" fill="white"/>
<path d="M14.7012 20.1961C14.7004 20.2578 14.6812 20.3178 14.6459 20.3686C14.6106 20.4194 14.5609 20.4586 14.5031 20.4812C14.4453 20.5037 14.3821 20.5087 14.3215 20.4954C14.2609 20.4822 14.2056 20.4512 14.1627 20.4066C14.1198 20.362 14.0913 20.3057 14.0807 20.2449C14.0702 20.1841 14.0781 20.1215 14.1034 20.0652C14.1288 20.0088 14.1704 19.9613 14.2231 19.9286C14.2757 19.8959 14.337 19.8795 14.399 19.8815C14.481 19.8836 14.5588 19.9178 14.6155 19.9768C14.6721 20.0357 14.703 20.1146 14.7012 20.1961Z" fill="white"/>
<path d="M14.7373 17.6979C14.7719 17.6979 14.8061 17.7048 14.838 17.7181C14.8699 17.7315 14.8987 17.7511 14.9228 17.7758C14.9469 17.8004 14.9657 17.8297 14.9782 17.8617C14.9908 17.8938 14.9967 17.928 14.9956 17.9623C14.9933 18.0317 14.9637 18.0974 14.9133 18.1454C14.8628 18.1933 14.7955 18.2198 14.7257 18.2191C14.6582 18.216 14.5943 18.1879 14.5466 18.1404C14.4988 18.0929 14.4706 18.0294 14.4674 17.9623C14.4663 17.927 14.4726 17.8918 14.4858 17.8589C14.499 17.8261 14.5189 17.7963 14.5443 17.7715C14.5696 17.7467 14.5998 17.7273 14.6331 17.7147C14.6663 17.702 14.7018 17.6963 14.7373 17.6979Z" fill="white"/>
<path d="M10.4857 20.3899C10.4842 20.4403 10.4678 20.4892 10.4385 20.5304C10.4092 20.5716 10.3683 20.6033 10.321 20.6216C10.2737 20.6398 10.222 20.6438 10.1724 20.6331C10.1229 20.6223 10.0776 20.5973 10.0422 20.5611C10.0069 20.5249 9.98302 20.4791 9.97366 20.4295C9.96431 20.38 9.96986 20.3287 9.98961 20.2823C10.0094 20.2358 10.0425 20.1961 10.0848 20.1683C10.127 20.1404 10.1767 20.1255 10.2274 20.1255C10.262 20.1254 10.2962 20.1323 10.3281 20.1457C10.3599 20.1591 10.3888 20.1787 10.4129 20.2034C10.437 20.228 10.4558 20.2573 10.4683 20.2893C10.4808 20.3213 10.4868 20.3556 10.4857 20.3899Z" fill="white"/>
<path d="M10.1073 15.278C10.1091 15.2273 10.126 15.1783 10.1558 15.1371C10.1856 15.096 10.227 15.0645 10.2748 15.0467C10.3226 15.0289 10.3746 15.0255 10.4242 15.0371C10.4739 15.0486 10.5191 15.0745 10.5539 15.1115C10.5888 15.1485 10.6119 15.195 10.6203 15.245C10.6286 15.295 10.6219 15.3464 10.6009 15.3926C10.58 15.4389 10.5457 15.4779 10.5024 15.5048C10.4592 15.5317 10.4089 15.5452 10.3579 15.5437C10.3239 15.5427 10.2903 15.5351 10.2593 15.5212C10.2283 15.5072 10.2003 15.4874 10.177 15.4627C10.1537 15.438 10.1356 15.4089 10.1236 15.3772C10.1117 15.3456 10.1061 15.3118 10.1073 15.278Z" fill="white"/>
<path d="M14.7387 19.1614C14.6817 19.1484 14.6307 19.1166 14.5942 19.0711C14.5577 19.0257 14.5378 18.9692 14.5378 18.911C14.5378 18.8529 14.5577 18.7964 14.5942 18.7509C14.6307 18.7054 14.6817 18.6736 14.7387 18.6607C14.8072 18.6607 14.8729 18.6877 14.9214 18.7359C14.9698 18.784 14.997 18.8494 14.997 18.9174C14.9937 18.9833 14.9651 19.0453 14.917 19.0908C14.8689 19.1362 14.8051 19.1614 14.7387 19.1614Z" fill="white"/>
<path d="M9.38932 19.662C9.42281 19.6608 9.4562 19.6663 9.48749 19.6782C9.51878 19.6902 9.54734 19.7082 9.57145 19.7313C9.59556 19.7545 9.61474 19.7822 9.62782 19.8129C9.64091 19.8435 9.64765 19.8765 9.64762 19.9098C9.64768 19.9761 9.62189 20.0399 9.57566 20.0878C9.52943 20.1357 9.46635 20.1639 9.39966 20.1665C9.33247 20.1666 9.26792 20.1406 9.2197 20.0941C9.17147 20.0476 9.14337 19.9842 9.14136 19.9175C9.14164 19.8514 9.16758 19.7879 9.21377 19.7403C9.25996 19.6927 9.32285 19.6647 9.38932 19.662Z" fill="white"/>
<path d="M11.1973 14.5591C11.2306 14.5594 11.2634 14.5664 11.2939 14.5795C11.3244 14.5927 11.3519 14.6119 11.3748 14.6358C11.3976 14.6598 11.4155 14.688 11.4271 14.719C11.4388 14.7499 11.4441 14.7828 11.4427 14.8158C11.4407 14.8816 11.4124 14.9438 11.3642 14.9888C11.316 15.0338 11.2518 15.058 11.1857 15.0559C11.1196 15.0539 11.057 15.0258 11.0117 14.9779C10.9664 14.93 10.9422 14.8662 10.9442 14.8004C10.9481 14.7359 10.9763 14.6753 11.0232 14.6305C11.0702 14.5858 11.1323 14.5603 11.1973 14.5591Z" fill="white"/>
<path d="M8.91277 19.6055C8.91523 19.6393 8.91065 19.6732 8.89934 19.7052C8.88802 19.7371 8.87021 19.7664 8.847 19.7912C8.82379 19.816 8.79569 19.8358 8.76446 19.8493C8.73322 19.8628 8.69952 19.8698 8.66545 19.8698C8.63138 19.8698 8.59767 19.8628 8.56644 19.8493C8.5352 19.8358 8.5071 19.816 8.4839 19.7912C8.46069 19.7664 8.44287 19.7371 8.43156 19.7052C8.42024 19.6732 8.41567 19.6393 8.41813 19.6055C8.42265 19.5434 8.45067 19.4853 8.49655 19.4429C8.54243 19.4004 8.60278 19.3768 8.66545 19.3768C8.72812 19.3768 8.78846 19.4004 8.83434 19.4429C8.88023 19.4853 8.90825 19.5434 8.91277 19.6055Z" fill="white"/>
<path d="M15.086 19.689C15.0872 19.7211 15.0819 19.7532 15.0702 19.7832C15.0586 19.8133 15.041 19.8406 15.0184 19.8637C14.9958 19.8867 14.9687 19.905 14.9389 19.9173C14.909 19.9297 14.8768 19.9358 14.8445 19.9355C14.8118 19.937 14.7791 19.9321 14.7483 19.9209C14.7175 19.9098 14.6893 19.8927 14.6652 19.8705C14.6412 19.8484 14.6218 19.8218 14.6082 19.7922C14.5947 19.7625 14.5872 19.7305 14.5862 19.698C14.5861 19.6314 14.6121 19.5674 14.6586 19.5195C14.7051 19.4716 14.7685 19.4436 14.8354 19.4412C14.8683 19.4409 14.901 19.447 14.9314 19.4594C14.9619 19.4717 14.9896 19.4899 15.0129 19.513C15.0362 19.536 15.0547 19.5634 15.0672 19.5937C15.0798 19.6239 15.0862 19.6563 15.086 19.689Z" fill="white"/>
<path d="M11.8264 14.0841C11.8914 14.0853 11.9534 14.1121 11.9985 14.1587C12.0437 14.2053 12.0684 14.2678 12.0672 14.3325C12.066 14.3972 12.039 14.4588 11.9922 14.5037C11.9453 14.5486 11.8824 14.5731 11.8173 14.5719C11.7851 14.5713 11.7533 14.5645 11.7238 14.5517C11.6942 14.5388 11.6675 14.5204 11.6451 14.4973C11.6228 14.4743 11.6052 14.447 11.5934 14.4172C11.5816 14.3874 11.5759 14.3556 11.5765 14.3235C11.5771 14.2915 11.584 14.2599 11.5969 14.2305C11.6097 14.2012 11.6283 14.1746 11.6515 14.1524C11.6747 14.1301 11.7021 14.1127 11.7321 14.101C11.7621 14.0892 11.7941 14.0835 11.8264 14.0841Z" fill="white"/>
<path d="M10.7208 20.9034C10.7216 20.9454 10.7098 20.9866 10.687 21.0219C10.6642 21.0571 10.6313 21.0849 10.5926 21.1016C10.5539 21.1183 10.511 21.1232 10.4695 21.1156C10.428 21.1081 10.3897 21.0885 10.3594 21.0593C10.3291 21.0301 10.3082 20.9926 10.2994 20.9516C10.2906 20.9106 10.2942 20.8679 10.3098 20.8289C10.3254 20.7899 10.3523 20.7564 10.3871 20.7327C10.4219 20.7089 10.463 20.696 10.5052 20.6954C10.5331 20.6949 10.5608 20.6999 10.5868 20.7101C10.6128 20.7203 10.6365 20.7355 10.6565 20.7548C10.6766 20.7742 10.6926 20.7972 10.7036 20.8227C10.7146 20.8482 10.7205 20.8757 10.7208 20.9034Z" fill="white"/>
<path d="M15.0447 17.2486C15.1002 17.2486 15.1534 17.2705 15.1926 17.3095C15.2318 17.3485 15.2539 17.4014 15.2539 17.4565C15.2539 17.5117 15.2318 17.5646 15.1926 17.6036C15.1534 17.6426 15.1002 17.6645 15.0447 17.6645C14.9892 17.6645 14.936 17.6426 14.8967 17.6036C14.8575 17.5646 14.8354 17.5117 14.8354 17.4565C14.8354 17.4014 14.8575 17.3485 14.8967 17.3095C14.936 17.2705 14.9892 17.2486 15.0447 17.2486Z" fill="white"/>
<path d="M9.773 15.4757C9.73192 15.4752 9.69194 15.4625 9.65816 15.4392C9.62437 15.416 9.59832 15.3833 9.58333 15.3453C9.56835 15.3072 9.5651 15.2656 9.57401 15.2258C9.58292 15.1859 9.60358 15.1496 9.63336 15.1214C9.66313 15.0933 9.70067 15.0746 9.74118 15.0678C9.78168 15.061 9.82331 15.0663 9.86076 15.0831C9.8982 15.0999 9.92975 15.1274 9.95139 15.1621C9.97303 15.1969 9.98376 15.2372 9.98222 15.278C9.97957 15.3314 9.95636 15.3817 9.91741 15.4185C9.87846 15.4553 9.82675 15.4758 9.773 15.4757Z" fill="white"/>
<path d="M9.11559 20.0947C9.11509 20.1204 9.10942 20.1459 9.09891 20.1695C9.0884 20.1931 9.07326 20.2143 9.05437 20.232C9.03549 20.2497 9.01324 20.2635 8.98894 20.2725C8.96463 20.2816 8.93875 20.2857 8.91282 20.2846C8.86185 20.2814 8.81394 20.2594 8.77855 20.2228C8.74317 20.1862 8.72287 20.1377 8.72168 20.0869C8.72218 20.0609 8.72787 20.0353 8.73843 20.0115C8.74899 19.9877 8.76421 19.9662 8.78319 19.9482C8.80218 19.9303 8.82456 19.9163 8.84903 19.9071C8.8735 19.8979 8.89957 19.8935 8.92574 19.8944C8.95173 19.8941 8.9775 19.8993 9.00141 19.9094C9.02532 19.9195 9.04687 19.9345 9.0647 19.9533C9.08253 19.9721 9.09625 19.9943 9.10501 20.0187C9.11377 20.043 9.11737 20.0689 9.11559 20.0947Z" fill="white"/>
<path d="M15.1312 19.033C15.1566 19.0325 15.1818 19.037 15.2055 19.0462C15.2291 19.0554 15.2506 19.0692 15.2689 19.0867C15.2871 19.1043 15.3017 19.1252 15.3118 19.1484C15.3218 19.1716 15.3272 19.1965 15.3275 19.2217C15.3327 19.2495 15.3318 19.2781 15.3248 19.3055C15.3178 19.3329 15.3049 19.3584 15.287 19.3804C15.2691 19.4023 15.2466 19.4201 15.221 19.4326C15.1955 19.445 15.1675 19.4518 15.1391 19.4525C15.1107 19.4532 15.0825 19.4477 15.0564 19.4364C15.0303 19.4252 15.007 19.4084 14.988 19.3873C14.9691 19.3662 14.955 19.3413 14.9467 19.3142C14.9385 19.2872 14.9362 19.2587 14.9401 19.2307C14.9394 19.2052 14.9438 19.1798 14.9531 19.156C14.9623 19.1322 14.9763 19.1105 14.9941 19.0921C15.0118 19.0737 15.0331 19.059 15.0567 19.0489C15.0802 19.0387 15.1056 19.0333 15.1312 19.033Z" fill="white"/>
<path d="M11.0773 14.3088C11.0773 14.2577 11.0977 14.2087 11.134 14.1726C11.1703 14.1365 11.2196 14.1162 11.271 14.1162C11.3224 14.1162 11.3716 14.1365 11.408 14.1726C11.4443 14.2087 11.4647 14.2577 11.4647 14.3088C11.466 14.335 11.4618 14.3612 11.4523 14.3858C11.4429 14.4103 11.4284 14.4326 11.4098 14.4513C11.3913 14.47 11.369 14.4847 11.3444 14.4944C11.3199 14.5041 11.2935 14.5087 11.2671 14.5077C11.2412 14.508 11.2156 14.5029 11.1918 14.4928C11.1679 14.4828 11.1465 14.468 11.1286 14.4493C11.1108 14.4306 11.0971 14.4085 11.0882 14.3844C11.0794 14.3602 11.0757 14.3344 11.0773 14.3088Z" fill="white"/>
<path d="M15.2567 18.386C15.2567 18.4113 15.2516 18.4364 15.2416 18.4597C15.2317 18.483 15.2171 18.5041 15.1988 18.5217C15.1805 18.5393 15.1588 18.5531 15.135 18.5622C15.1112 18.5713 15.0859 18.5755 15.0604 18.5747C15.01 18.5735 14.9622 18.5525 14.9275 18.5162C14.8927 18.48 14.8739 18.4315 14.8751 18.3815C14.8763 18.3314 14.8974 18.2839 14.9339 18.2494C14.9703 18.2148 15.0191 18.1961 15.0694 18.1973C15.1191 18.1986 15.1664 18.219 15.2013 18.2542C15.2362 18.2893 15.256 18.3366 15.2567 18.386Z" fill="white"/>
<path d="M9.68767 20.6428C9.66151 20.645 9.63519 20.6417 9.61036 20.6332C9.58553 20.6247 9.56274 20.6112 9.54343 20.5936C9.52412 20.5759 9.50871 20.5544 9.49816 20.5305C9.48762 20.5066 9.48218 20.4808 9.48218 20.4547C9.48218 20.4286 9.48762 20.4028 9.49816 20.3789C9.50871 20.355 9.52412 20.3336 9.54343 20.3159C9.56274 20.2982 9.58553 20.2847 9.61036 20.2763C9.63519 20.2678 9.66151 20.2645 9.68767 20.2667C9.71383 20.2645 9.74016 20.2678 9.76498 20.2763C9.78981 20.2847 9.8126 20.2982 9.83191 20.3159C9.85122 20.3336 9.86664 20.355 9.87718 20.3789C9.88772 20.4028 9.89317 20.4286 9.89317 20.4547C9.89317 20.4808 9.88772 20.5066 9.87718 20.5305C9.86664 20.5544 9.85122 20.5759 9.83191 20.5936C9.8126 20.6112 9.78981 20.6247 9.76498 20.6332C9.74016 20.6417 9.71383 20.645 9.68767 20.6428Z" fill="white"/>
<path d="M10.5711 14.9776C10.5466 14.9773 10.5224 14.9721 10.5 14.9624C10.4775 14.9527 10.4573 14.9387 10.4403 14.9211C10.4234 14.9036 10.4101 14.8828 10.4013 14.8601C10.3925 14.8374 10.3883 14.8132 10.389 14.7889C10.389 14.7398 10.4083 14.6927 10.4428 14.6577C10.4774 14.6227 10.5243 14.6025 10.5737 14.6015C10.599 14.6018 10.624 14.6071 10.6472 14.6171C10.6705 14.6272 10.6915 14.6417 10.709 14.6598C10.7266 14.678 10.7403 14.6994 10.7494 14.7229C10.7586 14.7464 10.7629 14.7714 10.7622 14.7966C10.7605 14.8456 10.7396 14.8921 10.7038 14.9259C10.6681 14.9597 10.6204 14.9783 10.5711 14.9776Z" fill="white"/>
<path d="M9.41132 20.458C9.41149 20.4816 9.40694 20.5051 9.39791 20.5269C9.38888 20.5488 9.37557 20.5687 9.35875 20.5854C9.34192 20.6021 9.32192 20.6154 9.29991 20.6243C9.2779 20.6333 9.25431 20.6379 9.23051 20.6377C9.18442 20.6368 9.14039 20.6185 9.10731 20.5866C9.07423 20.5546 9.05457 20.5114 9.05229 20.4657C9.05126 20.4183 9.06919 20.3725 9.10213 20.3384C9.13507 20.3042 9.18032 20.2844 9.22793 20.2834C9.27554 20.2823 9.32161 20.3002 9.356 20.3329C9.3904 20.3657 9.4103 20.4106 9.41132 20.458Z" fill="white"/>
<path d="M15.4735 18.7737C15.4739 18.7973 15.4695 18.8207 15.4606 18.8426C15.4517 18.8644 15.4385 18.8843 15.4218 18.9011C15.4051 18.9178 15.3852 18.9311 15.3632 18.94C15.3413 18.949 15.3178 18.9536 15.294 18.9534C15.2464 18.9534 15.2007 18.9346 15.1671 18.9011C15.1334 18.8677 15.1145 18.8223 15.1145 18.775C15.1145 18.7276 15.1334 18.6822 15.1671 18.6488C15.2007 18.6153 15.2464 18.5965 15.294 18.5965C15.3414 18.5965 15.3869 18.6151 15.4205 18.6483C15.4541 18.6815 15.4732 18.7266 15.4735 18.7737Z" fill="white"/>
<path d="M10.9688 14.3948C10.9695 14.4176 10.9655 14.4404 10.9571 14.4616C10.9487 14.4829 10.936 14.5022 10.9198 14.5184C10.9036 14.5346 10.8842 14.5474 10.8629 14.556C10.8416 14.5645 10.8187 14.5686 10.7958 14.5681C10.7728 14.5683 10.7499 14.5639 10.7286 14.5553C10.7073 14.5466 10.688 14.5339 10.6716 14.5178C10.6553 14.5017 10.6424 14.4825 10.6335 14.4614C10.6247 14.4403 10.6201 14.4176 10.6201 14.3948C10.6211 14.3488 10.6399 14.3049 10.6727 14.2724C10.7054 14.2399 10.7495 14.2212 10.7958 14.2202C10.8187 14.2202 10.8414 14.2247 10.8626 14.2335C10.8838 14.2423 10.903 14.2552 10.9191 14.2715C10.9352 14.2877 10.9479 14.307 10.9564 14.3282C10.9649 14.3493 10.9692 14.372 10.9688 14.3948Z" fill="white"/>
<path d="M15.5124 17.8455C15.5117 17.8912 15.4931 17.9347 15.4605 17.9669C15.4279 17.999 15.3839 18.0172 15.338 18.0175C15.2905 18.0155 15.2456 17.9953 15.2129 17.961C15.1801 17.9268 15.162 17.8812 15.1624 17.834C15.1653 17.7883 15.186 17.7456 15.2199 17.7148C15.2538 17.6839 15.2985 17.6673 15.3445 17.6684C15.3672 17.6688 15.3897 17.6738 15.4105 17.6831C15.4313 17.6923 15.4501 17.7055 15.4657 17.722C15.4814 17.7385 15.4935 17.7579 15.5015 17.7791C15.5095 17.8003 15.5132 17.8229 15.5124 17.8455Z" fill="white"/>
<path d="M10.0196 21.1383C9.97351 21.1364 9.9299 21.1172 9.89754 21.0845C9.86518 21.0519 9.84648 21.0083 9.84521 20.9625C9.84571 20.939 9.85091 20.9158 9.86049 20.8944C9.87008 20.8729 9.88387 20.8535 9.90105 20.8374C9.91824 20.8213 9.93848 20.8087 9.9606 20.8004C9.98272 20.7921 10.0063 20.7883 10.0299 20.7892C10.0526 20.79 10.0749 20.7953 10.0955 20.8047C10.1161 20.8141 10.1346 20.8275 10.15 20.8441C10.1653 20.8607 10.1773 20.8802 10.185 20.9014C10.1928 20.9226 10.1962 20.9451 10.1952 20.9676C10.1942 21.0132 10.1752 21.0567 10.1424 21.0886C10.1096 21.1205 10.0655 21.1384 10.0196 21.1383Z" fill="white"/>
<path d="M9.96263 14.6567C9.98537 14.6557 10.0081 14.6595 10.0292 14.6678C10.0504 14.6761 10.0697 14.6887 10.0857 14.7047C10.1017 14.7208 10.1142 14.74 10.1224 14.7611C10.1306 14.7822 10.1342 14.8048 10.1331 14.8274C10.1331 14.8713 10.1161 14.9134 10.0855 14.945C10.0549 14.9766 10.0132 14.9952 9.96909 14.9969C9.92294 14.9979 9.87823 14.9808 9.84463 14.9494C9.81104 14.9179 9.79126 14.8745 9.78957 14.8287C9.78922 14.806 9.79346 14.7835 9.80203 14.7625C9.81061 14.7414 9.82334 14.7223 9.83948 14.7063C9.85562 14.6902 9.87484 14.6776 9.89599 14.6691C9.91715 14.6605 9.93981 14.6563 9.96263 14.6567Z" fill="white"/>
<path d="M10.7827 21.1833C10.825 21.1846 10.8652 21.2019 10.895 21.2318C10.9248 21.2616 10.9419 21.3017 10.9429 21.3437C10.9419 21.3877 10.9236 21.4295 10.892 21.4602C10.8603 21.4909 10.8179 21.5081 10.7737 21.5081C10.7517 21.5074 10.73 21.5024 10.71 21.4932C10.69 21.4841 10.6721 21.4711 10.6573 21.4549C10.6425 21.4387 10.6311 21.4198 10.6238 21.3991C10.6165 21.3785 10.6134 21.3566 10.6148 21.3348C10.6157 21.3138 10.6207 21.2932 10.6296 21.2742C10.6385 21.2552 10.6512 21.2381 10.6668 21.224C10.6824 21.2099 10.7007 21.199 10.7206 21.192C10.7405 21.185 10.7617 21.1821 10.7827 21.1833Z" fill="white"/>
<path d="M15.4516 17.0085C15.4515 17.0304 15.4469 17.052 15.4382 17.072C15.4295 17.0921 15.4168 17.1102 15.4009 17.1253C15.385 17.1404 15.3662 17.1521 15.3456 17.1599C15.3251 17.1676 15.3031 17.1711 15.2812 17.1703C15.2389 17.1668 15.1993 17.148 15.17 17.1175C15.1407 17.087 15.1238 17.0468 15.1223 17.0047C15.123 16.9828 15.128 16.9613 15.1371 16.9413C15.1461 16.9214 15.1591 16.9035 15.1752 16.8886C15.1913 16.8736 15.2102 16.862 15.2308 16.8544C15.2514 16.8468 15.2734 16.8433 15.2954 16.8442C15.3379 16.8459 15.378 16.864 15.4072 16.8947C15.4364 16.9254 15.4524 16.9663 15.4516 17.0085Z" fill="white"/>
<path d="M9.41899 15.2883C9.41934 15.3092 9.41548 15.33 9.40765 15.3495C9.39982 15.3689 9.38817 15.3866 9.37339 15.4016C9.3586 15.4165 9.34098 15.4284 9.32153 15.4365C9.30209 15.4446 9.28122 15.4487 9.26014 15.4487C9.21751 15.4478 9.17687 15.4306 9.1466 15.4007C9.11633 15.3709 9.09872 15.3306 9.09741 15.2883C9.09775 15.2458 9.11487 15.2052 9.14507 15.1752C9.17527 15.1451 9.21614 15.1281 9.25885 15.1278C9.28009 15.1274 9.30118 15.1314 9.32085 15.1393C9.34053 15.1473 9.35838 15.1591 9.37334 15.1741C9.3883 15.1891 9.40005 15.2069 9.4079 15.2265C9.41575 15.2462 9.41952 15.2672 9.41899 15.2883Z" fill="white"/>
<path d="M9.62832 20.7237C9.70451 20.7327 9.75746 20.7712 9.75746 20.8521C9.75853 20.8686 9.75617 20.8851 9.75055 20.9006C9.74492 20.9162 9.73615 20.9304 9.72477 20.9424C9.71339 20.9545 9.69964 20.964 9.68438 20.9706C9.66913 20.9771 9.65268 20.9805 9.63606 20.9804C9.61826 20.9819 9.60034 20.9796 9.58346 20.9738C9.56658 20.968 9.5511 20.9587 9.53799 20.9467C9.52488 20.9346 9.51443 20.92 9.5073 20.9037C9.50018 20.8874 9.49653 20.8698 9.49658 20.8521C9.49658 20.835 9.5 20.8181 9.50665 20.8023C9.51331 20.7866 9.52305 20.7723 9.53532 20.7604C9.54759 20.7484 9.56213 20.739 9.5781 20.7327C9.59407 20.7264 9.61114 20.7234 9.62832 20.7237Z" fill="white"/>
<path d="M15.5757 18.2306C15.5757 18.2647 15.5621 18.2973 15.5379 18.3214C15.5136 18.3455 15.4808 18.359 15.4465 18.359C15.4123 18.359 15.3794 18.3455 15.3552 18.3214C15.331 18.2973 15.3174 18.2647 15.3174 18.2306C15.3174 18.1966 15.331 18.1639 15.3552 18.1399C15.3794 18.1158 15.4123 18.1023 15.4465 18.1023C15.4808 18.1023 15.5136 18.1158 15.5379 18.1399C15.5621 18.1639 15.5757 18.1966 15.5757 18.2306Z" fill="white"/>
<path d="M10.3787 14.5424C10.3803 14.5597 10.3781 14.577 10.3721 14.5933C10.3662 14.6096 10.3567 14.6244 10.3444 14.6367C10.3321 14.6489 10.3172 14.6583 10.3008 14.6642C10.2844 14.6701 10.2669 14.6724 10.2496 14.6708C10.2222 14.6634 10.1981 14.6473 10.1808 14.6249C10.1636 14.6025 10.1543 14.5751 10.1543 14.5469C10.1543 14.5187 10.1636 14.4913 10.1808 14.4689C10.1981 14.4465 10.2222 14.4304 10.2496 14.423C10.2661 14.4216 10.2828 14.4236 10.2985 14.429C10.3143 14.4343 10.3287 14.4429 10.3408 14.4542C10.353 14.4654 10.3627 14.4791 10.3692 14.4943C10.3757 14.5095 10.379 14.5259 10.3787 14.5424Z" fill="white"/>
<path d="M15.5589 17.4129C15.5589 17.4899 15.5137 17.5413 15.4375 17.5413C15.4056 17.5413 15.3751 17.5287 15.3526 17.5063C15.33 17.4839 15.3174 17.4535 15.3174 17.4219C15.3174 17.3902 15.33 17.3598 15.3526 17.3374C15.3751 17.3151 15.4056 17.3025 15.4375 17.3025C15.4528 17.3018 15.468 17.3041 15.4824 17.3093C15.4968 17.3145 15.51 17.3224 15.5212 17.3327C15.5325 17.3429 15.5416 17.3553 15.5481 17.369C15.5546 17.3828 15.5582 17.3977 15.5589 17.4129Z" fill="white"/>
<path d="M10.3425 21.1396C10.42 21.1499 10.4626 21.1897 10.4613 21.268C10.4623 21.2834 10.4599 21.2988 10.4544 21.3131C10.4489 21.3275 10.4403 21.3406 10.4293 21.3514C10.4183 21.3622 10.4051 21.3706 10.3906 21.3759C10.3761 21.3812 10.3605 21.3834 10.3451 21.3823C10.3288 21.3841 10.3124 21.3822 10.2969 21.3769C10.2814 21.3715 10.2674 21.3628 10.2557 21.3514C10.2441 21.3399 10.2352 21.326 10.2296 21.3107C10.2241 21.2954 10.2221 21.2791 10.2237 21.2629C10.2224 21.2468 10.2246 21.2306 10.23 21.2154C10.2355 21.2003 10.2441 21.1864 10.2553 21.1747C10.2665 21.1631 10.2801 21.154 10.2951 21.1479C10.3102 21.1419 10.3263 21.139 10.3425 21.1396Z" fill="white"/>
<path d="M9.51713 15.0854C9.48613 15.0405 9.43706 14.9994 9.42931 14.9571C9.42704 14.9417 9.42834 14.926 9.43312 14.9113C9.43791 14.8965 9.44604 14.883 9.45689 14.8718C9.46775 14.8607 9.48104 14.8521 9.49574 14.8469C9.51043 14.8416 9.52615 14.8398 9.54167 14.8415C9.61658 14.8415 9.67082 14.8877 9.65661 14.9609C9.64757 15.0084 9.5972 15.0482 9.56492 15.0893L9.51713 15.0854Z" fill="white"/>
<path d="M15.3768 16.6208C15.3341 16.6491 15.2954 16.6966 15.2476 16.703C15.1998 16.7094 15.1404 16.6632 15.1404 16.5964C15.1389 16.5819 15.1407 16.5672 15.1458 16.5535C15.1508 16.5398 15.1589 16.5274 15.1695 16.5172C15.1801 16.5071 15.1928 16.4994 15.2068 16.4949C15.2208 16.4904 15.2356 16.4891 15.2502 16.4911C15.2954 16.4989 15.3341 16.5476 15.3793 16.5772L15.3768 16.6208Z" fill="white"/>
<path d="M11.1806 21.3861C11.2077 21.4285 11.2516 21.4696 11.2568 21.5145C11.2645 21.5787 11.2154 21.6198 11.147 21.6172C11.0785 21.6146 11.0333 21.5723 11.0475 21.5068C11.0566 21.4631 11.1031 21.4259 11.1328 21.3861H11.1806Z" fill="white"/>
<path d="M8.89995 15.6464C8.87283 15.6041 8.82246 15.5604 8.82505 15.5181C8.8307 15.4948 8.84276 15.4736 8.85987 15.4569C8.87698 15.4401 8.89847 15.4284 8.92191 15.4231C8.9457 15.4285 8.96758 15.4402 8.98529 15.4569C9.00301 15.4736 9.0159 15.4947 9.02265 15.5181C9.02265 15.5579 8.97486 15.6028 8.94774 15.6464H8.89995Z" fill="white"/>
<path d="M12.5922 6.79751C12.5922 6.66913 12.5922 6.54075 12.5922 6.41238C12.5922 6.36873 12.5922 6.33022 12.6555 6.3315C12.9667 6.3315 13.2793 6.30711 13.5879 6.38285C13.6431 6.38886 13.6965 6.40607 13.7447 6.43342C13.793 6.46077 13.8351 6.49767 13.8683 6.54184C13.9016 6.58601 13.9255 6.63651 13.9383 6.6902C13.9512 6.7439 13.9528 6.79964 13.9431 6.85399C13.9459 6.92906 13.9234 7.00289 13.8791 7.06381C13.8349 7.12473 13.7715 7.16925 13.699 7.19033C13.5731 7.23009 13.4432 7.25592 13.3116 7.26736C13.1049 7.2802 12.8983 7.26736 12.6904 7.27506C12.6077 7.27506 12.5858 7.24682 12.5883 7.16979C12.5948 7.04655 12.5922 6.92203 12.5922 6.79751Z" fill="white"/>
<path d="M12.5987 5.3045C12.5987 5.19025 12.5987 5.07599 12.5987 4.96174C12.5987 4.90782 12.6168 4.87958 12.6749 4.88086C12.9332 4.88985 13.1825 4.88086 13.4356 4.90654C13.5196 4.90465 13.6019 4.92992 13.6701 4.97854C13.7384 5.02716 13.7889 5.0965 13.814 5.17613C13.8319 5.23183 13.8374 5.2907 13.8303 5.34873C13.8232 5.40676 13.8036 5.46258 13.7729 5.5124C13.7421 5.56223 13.7009 5.60488 13.6521 5.63745C13.6032 5.67003 13.5479 5.69177 13.4899 5.70118C13.3567 5.72452 13.2221 5.73824 13.0869 5.74226C12.9642 5.74868 12.8428 5.74226 12.7214 5.74226C12.6194 5.74226 12.5923 5.70889 12.5923 5.61389C12.5923 5.51889 12.5923 5.40464 12.5923 5.30065L12.5987 5.3045Z" fill="white"/>
</svg>
