<svg width="37" height="28" viewBox="0 0 37 28" fill="none" xmlns="http://www.w3.org/2000/svg">
<g clip-path="url(#clip0_237_226)">
<path d="M19.1793 -5.77769e-06C19.1793 0.0774804 19.1793 0.143544 19.1793 0.209608C19.2015 3.62147 19.2102 7.03364 19.2528 10.4455C19.272 12.2286 19.3966 14.0091 19.6257 15.7775C19.6921 16.2801 19.8109 16.7759 19.9066 17.2748C19.9162 17.3248 19.9254 17.3745 19.9397 17.4498C19.7075 17.4498 19.4886 17.4532 19.2697 17.4461C19.2389 17.4461 19.1984 17.3955 19.1867 17.3606C19.1654 17.2989 19.1645 17.2294 19.1524 17.1637C19.1247 17.0139 19.0567 16.8951 18.9055 16.8367C18.652 16.7398 18.498 16.5722 18.502 16.2826C18.5025 16.1389 18.4922 15.9953 18.4711 15.8532C18.4517 15.7192 18.4146 15.588 18.3807 15.4349C18.6338 15.345 18.7449 15.1002 18.8635 14.8607C18.8758 14.8354 18.9024 14.8017 18.9252 14.7989C19.0679 14.7878 19.0317 14.6921 19.0286 14.6545C18.936 14.5603 18.8629 14.5001 18.8104 14.4276C18.4733 13.9534 18.0182 13.9747 17.7234 14.4794C17.6911 14.5299 17.6484 14.5728 17.5981 14.6054C17.5098 14.6671 17.5098 14.7715 17.5981 14.8301C17.6391 14.8555 17.6714 14.8928 17.6907 14.9369C17.7521 15.1195 17.8834 15.2701 18.0559 15.3558C18.1599 15.4099 18.2232 15.4568 18.1309 15.5877C18.0834 15.6553 18.0877 15.7637 18.08 15.8544C18.0642 16.0396 18.0636 16.2249 18.0436 16.407C18.0263 16.5638 17.9466 16.7006 17.7966 16.7565C17.532 16.8559 17.4138 17.0556 17.3743 17.3121C17.3561 17.4301 17.3067 17.4622 17.1921 17.4563C16.998 17.4464 16.8032 17.4535 16.5957 17.4535C16.6618 17.1618 16.7451 16.8917 16.7809 16.6157C16.8927 15.7556 17.0183 14.8956 17.0825 14.0312C17.4243 9.43448 17.3628 4.82976 17.3261 0.225661C17.3261 0.153732 17.3261 0.0821111 17.3261 -0.00216675L19.1793 -5.77769e-06Z" fill="white"/>
<path d="M22.4914 17.448H21.8082C21.4946 17.448 21.1809 17.4421 20.8676 17.4511C20.7497 17.4545 20.6978 17.4202 20.6657 17.3047C20.3396 16.1539 20.0833 14.9844 19.8982 13.8027C19.6273 12.0396 19.5122 10.2561 19.554 8.47284C19.6158 5.69445 20.0443 2.97503 20.8898 0.324441C20.9923 0.00801305 20.9923 -1.33999e-05 21.2853 0.173173C21.4928 0.296144 21.6927 0.431609 21.8839 0.578818C22.0926 0.739656 22.0953 0.776084 22.0123 1.02583C21.8212 1.60003 21.611 2.16806 21.4387 2.74812C20.7531 5.0403 20.5265 7.38742 20.629 9.77066C20.7328 12.2082 21.2841 14.6058 22.2555 16.8438C22.3358 17.03 22.4034 17.2211 22.4914 17.448Z" fill="white"/>
<path d="M14.0322 17.4239C14.0893 17.2838 14.1313 17.1742 14.1782 17.0667C14.9417 15.3265 15.4662 13.5166 15.7218 11.6334C15.9132 10.2236 15.9379 8.80719 15.8657 7.38743C15.7567 5.2172 15.2726 3.12446 14.5042 1.09407C14.3959 0.80728 14.4138 0.736894 14.6611 0.560312C14.8656 0.413984 15.0756 0.27527 15.2908 0.144171C15.4745 0.0324181 15.5471 0.0552627 15.6079 0.261481C15.7786 0.842165 15.9475 1.42408 16.0978 2.01001C16.7906 4.6924 16.9924 7.42294 16.9174 10.1843C16.8517 12.5923 16.4652 14.9437 15.828 17.2606C15.7866 17.4112 15.7292 17.4591 15.569 17.4532C15.1223 17.4369 14.6737 17.4449 14.2273 17.4418C14.1724 17.4421 14.118 17.4319 14.0322 17.4239Z" fill="white"/>
<path d="M22.7546 1.33548C22.9259 1.56362 23.1028 1.78743 23.263 2.02298C23.2939 2.0662 23.2692 2.16251 23.243 2.2224C23.0269 2.71634 22.7923 3.20163 22.5876 3.69958C22.0659 4.96931 21.7849 6.29275 21.7062 7.66404C21.5929 9.64256 21.8495 11.5705 22.5194 13.4369C22.8898 14.4708 23.381 15.4503 24.1098 16.2851C24.392 16.608 24.7325 16.88 25.0474 17.1742C25.1314 17.2526 25.219 17.3285 25.3049 17.4035C25.2999 17.4159 25.295 17.4282 25.2897 17.4403C25.2314 17.4443 25.1727 17.4517 25.1144 17.4517C24.5748 17.4517 24.0339 17.4535 23.4952 17.4443C23.4353 17.4443 23.3563 17.3887 23.3202 17.3356C22.5592 16.2113 22.0359 14.9771 21.6531 13.6802C21.049 11.6269 20.8576 9.53111 21.0271 7.39978C21.178 5.5006 21.6099 3.67149 22.3943 1.93098C22.482 1.73619 22.5854 1.54787 22.6814 1.35678L22.7546 1.33548Z" fill="white"/>
<path d="M11.1777 17.4291C11.2294 17.3769 11.2838 17.3274 11.3407 17.281C12.3122 16.5962 12.9794 15.6624 13.5017 14.6156C14.1608 13.2924 14.5334 11.8844 14.7156 10.4223C14.8532 9.3512 14.8712 8.26806 14.7693 7.19293C14.6163 5.64681 14.183 4.14147 13.4906 2.75059C13.4113 2.58945 13.3378 2.42583 13.2581 2.26499C13.2301 2.21536 13.2181 2.15832 13.2236 2.10161C13.2291 2.04489 13.252 1.99125 13.289 1.94795C13.4097 1.79359 13.527 1.63924 13.6595 1.49507C13.7829 1.36016 13.8586 1.36726 13.9373 1.53428C14.1031 1.88127 14.2651 2.23073 14.4062 2.58821C15.0187 4.14195 15.3697 5.75589 15.4913 7.42045C15.7031 10.3223 15.2672 13.114 14.0534 15.7667C13.8024 16.3153 13.4727 16.8281 13.1739 17.3544C13.1588 17.3784 13.1386 17.3989 13.1149 17.4143C13.0911 17.4298 13.0642 17.4399 13.0362 17.444C12.4555 17.4492 11.8748 17.4461 11.2941 17.444C11.27 17.4449 11.246 17.4387 11.1777 17.4291Z" fill="white"/>
<path d="M25.2458 27.9787C24.1036 28.0358 23.2676 27.0804 23.358 25.8752C23.404 25.2596 23.6198 24.7394 24.1279 24.3656C24.5938 24.0229 25.1266 23.9812 25.6715 24.0621C26.4945 24.1837 27.1172 24.8712 27.1616 25.7211C27.1774 26.0249 27.1678 26.3441 27.0912 26.6355C26.865 27.5017 26.1787 27.9821 25.2458 27.9787ZM24.2906 25.9746L24.3372 25.9866C24.3326 26.0737 24.3326 26.161 24.3372 26.2481C24.3752 26.5997 24.5472 26.8741 24.8636 27.0282C25.18 27.1822 25.5178 27.1825 25.8104 26.9575C26.3439 26.546 26.4084 25.6662 25.9126 25.1534C25.4304 24.6551 24.7111 24.8678 24.4617 25.3661C24.3684 25.5507 24.3456 25.7708 24.2906 25.9746Z" fill="white"/>
<path d="M19.8039 26.0033C19.8039 25.4538 19.8079 24.9039 19.8011 24.3547C19.7992 24.2103 19.8366 24.1285 19.9916 24.1297C20.5651 24.1343 21.1437 24.0945 21.7117 24.1544C22.3103 24.2161 23.0083 24.8163 23.07 25.6853C23.0978 26.0891 23.0851 26.4879 22.9157 26.8639C22.6187 27.5237 22.0741 27.858 21.3838 27.9203C20.902 27.9642 20.4111 27.9102 19.9243 27.9021C19.7989 27.9 19.8054 27.8095 19.8051 27.7289C19.8029 27.1538 19.8039 26.5799 19.8039 26.0033ZM20.7096 25.9878H20.7038C20.7038 26.291 20.6976 26.5944 20.7087 26.8973C20.7112 26.9643 20.767 27.0825 20.8106 27.0868C21.2397 27.1452 21.6808 27.0908 21.9593 26.6238C22.1019 26.3845 22.134 26.1203 22.101 25.8495C22.0321 25.2837 21.7052 24.9793 21.1366 24.9407C21.044 24.9345 20.9513 24.9345 20.8587 24.9249C20.7525 24.9141 20.7084 24.9604 20.7087 25.0635C20.7102 25.371 20.7096 25.6794 20.7096 25.9878Z" fill="white"/>
<path d="M4.41187 27.9262V24.1976C4.60265 24.1726 4.79868 24.1254 4.9944 24.1257C5.41857 24.1257 5.84397 24.1393 6.2669 24.1723C6.53085 24.1927 6.73645 24.352 6.88216 24.5677C6.9439 24.6604 6.97138 24.7811 7.00225 24.8922C7.018 24.9499 7.0075 25.0157 7.00997 25.0774C7.02417 25.4142 7.02417 25.7455 6.66236 25.9492C6.69691 25.9829 6.73395 26.0138 6.77319 26.0418C7.44216 26.4256 7.26712 27.5116 6.67039 27.786C6.38996 27.9163 6.08433 27.9833 5.77513 27.9824C5.32596 27.9799 4.87771 27.9466 4.41187 27.9262ZM5.27409 26.8102C5.27472 26.9111 5.28277 27.0118 5.29817 27.1115C5.30805 27.1597 5.37195 27.2319 5.4127 27.2331C5.60689 27.2427 5.80155 27.2348 5.99431 27.2094C6.07896 27.1951 6.15581 27.1513 6.21125 27.0857C6.26668 27.0202 6.29712 26.9371 6.29716 26.8513C6.30241 26.6454 6.1993 26.4753 6.01932 26.4191C5.91619 26.386 5.80897 26.3674 5.70073 26.3638C5.20494 26.3555 5.28922 26.2814 5.27409 26.8102ZM5.27409 25.238C5.27787 25.3344 5.28694 25.4305 5.30126 25.526C5.30774 25.5624 5.363 25.6186 5.39387 25.6186C5.57694 25.6149 5.76432 25.6208 5.94121 25.5785C6.15175 25.5278 6.2277 25.2914 6.13601 25.0922C6.04093 24.8851 5.86157 24.8576 5.66554 24.8394C5.18642 24.7937 5.29045 24.8329 5.27347 25.238H5.27409Z" fill="white"/>
<path d="M28.3491 26.6352C28.3491 26.9384 28.3491 27.2301 28.3491 27.5218C28.3491 27.599 28.3624 27.683 28.3359 27.7506C28.3127 27.8105 28.2454 27.8917 28.1932 27.895C27.954 27.9105 27.7135 27.9018 27.4653 27.9018C27.4607 27.845 27.4551 27.8092 27.4551 27.7759C27.4536 26.6815 27.4505 25.5871 27.4526 24.4928C27.4526 24.1813 27.4372 24.2023 27.7357 24.1569C28.2605 24.0766 28.7891 24.0402 29.3151 24.1408C29.6791 24.2103 29.9921 24.3764 30.1461 24.7332C30.3348 25.1707 30.2983 25.9564 29.7757 26.3095C29.671 26.3802 29.6658 26.441 29.7278 26.5463C29.9458 26.9167 30.1569 27.294 30.365 27.6715C30.4453 27.8169 30.4224 27.871 30.2582 27.883C30.0173 27.8979 29.7758 27.9003 29.5346 27.8901C29.4941 27.8901 29.4438 27.8318 29.4179 27.7885C29.2256 27.4672 29.0302 27.147 28.8526 26.817C28.7773 26.6772 28.6912 26.6068 28.5316 26.634C28.4709 26.6388 28.4099 26.6392 28.3491 26.6352ZM28.351 25.326H28.3396C28.3488 25.4692 28.3513 25.6131 28.372 25.7548C28.3779 25.7946 28.4365 25.8582 28.4698 25.8576C28.648 25.8545 28.8304 25.8548 29.0021 25.8143C29.2132 25.7643 29.3725 25.5263 29.3515 25.3436C29.3207 25.05 29.1762 24.9006 28.8949 24.8774C28.7573 24.866 28.6171 24.8666 28.48 24.8607C28.3917 24.8573 28.347 24.895 28.3491 24.9873C28.3532 25.1003 28.351 25.213 28.351 25.326Z" fill="white"/>
<path d="M11.4339 26.6352V27.895H10.5578C10.5538 27.8457 10.5473 27.8024 10.5473 27.7577C10.5418 26.6272 10.5381 25.4967 10.53 24.3665C10.53 24.2649 10.5473 24.2053 10.6606 24.1844C11.2722 24.0707 11.8837 24.0278 12.4968 24.1637C13.0176 24.2791 13.3109 24.653 13.3235 25.1824C13.3319 25.5306 13.2942 25.86 13.0547 26.1351C13.0121 26.1867 12.9658 26.235 12.916 26.2796C12.7484 26.4213 12.7463 26.4206 12.8574 26.6192C13.0568 26.972 13.2587 27.323 13.4572 27.6774C13.5372 27.821 13.523 27.8626 13.3584 27.8765C13.1128 27.8942 12.8664 27.8993 12.6203 27.8917C12.5808 27.8917 12.5311 27.8321 12.5052 27.7885C12.3131 27.4669 12.118 27.1464 11.9408 26.8164C11.8652 26.6756 11.7769 26.6087 11.6185 26.6355C11.5571 26.6398 11.4954 26.6397 11.4339 26.6352ZM11.4444 25.3451H11.4469C11.4469 25.4735 11.4444 25.6016 11.4469 25.7298C11.4491 25.8113 11.4849 25.8718 11.5778 25.864C11.7556 25.8492 11.9374 25.848 12.1097 25.8076C12.3326 25.7548 12.4413 25.5717 12.4317 25.3287C12.4224 25.1028 12.29 24.9259 12.073 24.8901C11.9072 24.8629 11.7362 24.8666 11.5673 24.8592C11.4768 24.8552 11.4395 24.9009 11.4438 24.9916C11.4478 25.1092 11.4444 25.2272 11.4444 25.3451Z" fill="white"/>
<path d="M34.9092 27.959C34.4958 27.9898 34.1146 27.8852 33.7602 27.678C33.5394 27.549 33.524 27.4968 33.6114 27.2535C33.6247 27.2147 33.6403 27.1767 33.658 27.1396C33.8176 26.8155 33.9093 26.7868 34.2316 26.947C34.5319 27.0961 34.849 27.1696 35.1852 27.1322C35.2663 27.1232 35.3444 27.0959 35.4136 27.0526C35.5757 26.9464 35.5819 26.7488 35.4192 26.6457C35.287 26.5676 35.1469 26.5037 35.0012 26.4552C34.7897 26.3777 34.569 26.3212 34.3597 26.2416C33.9084 26.0712 33.6691 25.7449 33.6663 25.2562C33.6632 24.7792 33.8645 24.4063 34.3001 24.2171C34.9401 23.9392 35.5819 24.0031 36.2018 24.3128C36.3407 24.3822 36.3722 24.4937 36.3222 24.6345C36.3049 24.6829 36.2888 24.732 36.2681 24.7786C36.1008 25.1559 36.0128 25.1935 35.643 25.029C35.3837 24.9135 35.1182 24.8546 34.8348 24.9033C34.7743 24.913 34.7163 24.9347 34.6644 24.9672C34.4822 25.0892 34.4878 25.2719 34.6897 25.3584C34.9101 25.4532 35.1487 25.505 35.3689 25.5976C35.6055 25.6914 35.8337 25.805 36.0511 25.9372C36.2703 26.0767 36.3626 26.3049 36.3867 26.5661C36.4429 27.1791 36.2348 27.633 35.7353 27.8318C35.4797 27.9336 35.1892 27.9475 34.9147 28.0012C34.9151 27.9864 34.9117 27.9728 34.9092 27.959Z" fill="white"/>
<path d="M7.49487 27.866C7.49487 27.8 7.49487 27.749 7.49487 27.6984C7.49775 26.5885 7.50105 25.4787 7.50475 24.369C7.50475 24.1529 7.51 24.1473 7.72702 24.1461C8.42069 24.1411 9.11437 24.1424 9.80804 24.1349C9.90899 24.1349 9.95529 24.1745 9.95745 24.2624C9.9627 24.4572 9.95961 24.652 9.95745 24.8471C9.95745 24.9416 9.89046 24.9444 9.81823 24.945C9.4169 24.9487 9.01558 24.9546 8.61611 24.9595C8.54541 24.9595 8.47472 24.9595 8.38427 24.9595C8.38427 25.1336 8.38427 25.2914 8.38427 25.4488C8.38427 25.5519 8.45867 25.5578 8.53399 25.559C8.88839 25.5652 9.24402 25.5772 9.59719 25.5726C9.73117 25.5726 9.78828 25.6174 9.78735 25.7449C9.78735 25.919 9.78149 26.0931 9.7818 26.2672C9.7818 26.3617 9.73734 26.3867 9.64751 26.3861C9.28261 26.3842 8.91803 26.3891 8.55313 26.3919C8.50312 26.3919 8.45311 26.3969 8.39538 26.4V27.0692H10.0007V27.8657L7.49487 27.866Z" fill="white"/>
<path d="M30.7842 24.1436H33.2122C33.2122 24.3835 33.2187 24.6181 33.2042 24.8511C33.2023 24.882 33.0955 24.9305 33.0356 24.933C32.6509 24.9478 32.2657 24.9521 31.8804 24.9595C31.8143 24.9595 31.7483 24.9595 31.6569 24.9595C31.6569 25.1315 31.6541 25.2886 31.6569 25.4457C31.6591 25.5402 31.7257 25.5581 31.8063 25.5596C32.1555 25.5664 32.5046 25.5843 32.8535 25.58C33.0124 25.5779 33.0637 25.6377 33.0566 25.7847C33.0504 25.9177 33.0513 26.0514 33.0535 26.186C33.0557 26.3206 32.9967 26.3793 32.8609 26.3796C32.5373 26.3796 32.2126 26.3876 31.8903 26.3919C31.8236 26.3919 31.7572 26.3919 31.6622 26.3919C31.6622 26.5917 31.6584 26.7834 31.6668 26.9741C31.6668 27.0007 31.7267 27.0411 31.7634 27.0467C31.8651 27.06 31.9674 27.0671 32.07 27.068C32.4142 27.0782 32.7581 27.0893 33.102 27.0933C33.2168 27.0933 33.2752 27.1362 33.2745 27.2538C33.2745 27.4564 33.2745 27.6592 33.2745 27.8682H30.7842V24.1436Z" fill="white"/>
<path d="M18.111 26.4139L17.747 25.371C17.6905 25.5112 17.6476 25.6081 17.6118 25.7078C17.3704 26.3787 17.1272 27.0489 16.8928 27.7219C16.8431 27.8642 16.778 27.9275 16.6181 27.9071C16.4116 27.8824 16.2019 27.8852 15.9636 27.8762C16.0001 27.75 16.0204 27.6567 16.0531 27.5675C16.4415 26.508 16.8311 25.449 17.2219 24.3906C17.3241 24.1127 17.3269 24.1127 17.6232 24.1171C17.7671 24.1171 17.911 24.1309 18.0554 24.1272C18.1641 24.1245 18.2175 24.1658 18.2555 24.2693C18.584 25.1704 18.9189 26.069 19.2492 26.9695C19.3394 27.2165 19.4165 27.4635 19.5058 27.7104C19.5459 27.821 19.5058 27.8648 19.3999 27.8707L18.8164 27.9015C18.7022 27.9077 18.634 27.8494 18.5963 27.7472C18.5475 27.612 18.4889 27.4798 18.4503 27.3421C18.4117 27.2045 18.3268 27.1585 18.1907 27.1609C17.9746 27.165 17.7585 27.1548 17.5424 27.1578C17.4143 27.1578 17.375 27.1044 17.4099 26.9874C17.4565 26.8303 17.5075 26.6744 17.5522 26.517C17.5763 26.4327 17.6273 26.4077 17.7115 26.4123C17.8304 26.4188 17.9517 26.4139 18.111 26.4139Z" fill="white"/>
<path d="M15.4718 27.9093H14.6176C14.613 27.8352 14.6068 27.7762 14.6062 27.7169C14.5979 26.8902 14.5929 26.0635 14.5812 25.2368C14.5772 24.9537 14.5698 24.9509 14.2858 24.9463C14.0446 24.9422 13.8035 24.9463 13.5492 24.9463C13.4834 24.7014 13.5103 24.4631 13.5461 24.227C13.5504 24.1979 13.6301 24.1609 13.6757 24.1597C14.0762 24.1485 14.4767 24.1417 14.8772 24.139C15.365 24.1356 15.8531 24.143 16.3411 24.1347C16.472 24.1325 16.5128 24.1776 16.5094 24.2998C16.5048 24.4542 16.5069 24.6085 16.5122 24.7629C16.5165 24.8916 16.4674 24.9481 16.3322 24.9447C16.0559 24.9379 15.779 24.9429 15.4718 24.9429V27.9093Z" fill="white"/>
<path d="M0 27.8744V24.1313H0.864388C0.864388 24.2038 0.864388 24.2637 0.864388 24.3233C0.869945 25.1704 0.879824 26.0172 0.877971 26.864C0.877971 27.0288 0.952062 27.0634 1.08944 27.0637C1.44878 27.0637 1.80811 27.0671 2.16745 27.0739C2.37058 27.0776 2.37429 27.0847 2.37768 27.2832C2.37954 27.4116 2.36873 27.5406 2.38015 27.6681C2.39497 27.8296 2.31841 27.8713 2.17424 27.8694C1.8714 27.866 1.56825 27.8734 1.2654 27.8741C0.850187 27.8765 0.434664 27.8744 0 27.8744Z" fill="white"/>
<path d="M17.8244 21.1775C17.9222 20.8923 18.0195 20.607 18.1183 20.3224C18.2291 20.0023 18.2726 19.9776 18.6261 20.0408C18.6292 20.0822 18.6344 20.1267 18.635 20.1711C18.6415 20.9469 18.6418 21.723 18.6576 22.4988C18.6607 22.6615 18.6054 22.7106 18.4578 22.6976C18.3874 22.6911 18.3161 22.6908 18.2192 22.6865V21.5267L18.1643 21.5156C18.1306 21.6106 18.0963 21.7054 18.0642 21.8008C18.0319 21.8874 18.0042 21.9756 17.9812 22.0651C17.9574 22.1713 17.9077 22.2139 17.7916 22.2126C17.6756 22.2114 17.6286 22.1777 17.6018 22.0669C17.5632 21.9089 17.5045 21.756 17.4545 21.6008L17.4033 21.6032V22.6837H16.9482V20.0396C17.0544 20.0396 17.169 20.0223 17.2739 20.0461C17.3332 20.0597 17.4002 20.1316 17.4243 20.193C17.5299 20.4598 17.6203 20.7327 17.7175 21.0031C17.7379 21.0599 17.7629 21.1149 17.7861 21.1707L17.8244 21.1775Z" fill="white"/>
<path d="M2.92627 24.1319H3.78109C3.78417 24.2029 3.7885 24.2529 3.7885 24.3029C3.7885 25.443 3.78634 26.5833 3.79189 27.7234C3.79189 27.8598 3.75022 27.9049 3.61778 27.9009C3.39335 27.8941 3.16861 27.8991 2.92627 27.8991V24.1319Z" fill="white"/>
<path d="M15.7061 21.5461V22.6769H15.2832V20.0353C15.4025 20.0361 15.5216 20.0436 15.6401 20.0578C15.6805 20.0643 15.7277 20.1196 15.7441 20.1646C15.8478 20.4425 15.9429 20.7249 16.0426 21.0049C16.0639 21.0648 16.092 21.1223 16.1173 21.1809L16.1559 21.1729V20.0807C16.184 20.056 16.1905 20.0455 16.1988 20.0439C16.5884 19.9732 16.5955 19.9772 16.5977 20.373C16.602 21.0917 16.5995 21.811 16.6082 22.5297C16.6082 22.663 16.5585 22.6973 16.4393 22.6985C16.2084 22.7004 16.1791 22.6862 16.0997 22.4744C15.9849 22.1632 15.8722 21.8514 15.7602 21.5399L15.7061 21.5461Z" fill="white"/>
<path d="M20.4184 22.6772V22.5538C20.4138 21.769 20.4122 20.984 20.4023 20.1992C20.4023 20.0757 20.4332 20.0229 20.5626 20.03C20.7367 20.0396 20.9114 20.03 21.0855 20.0371C21.4057 20.0501 21.6079 20.2421 21.6335 20.5644C21.652 20.7981 21.6816 21.0368 21.5214 21.2451C21.5038 21.268 21.5186 21.33 21.5372 21.3637C21.7326 21.7193 21.6915 22.0759 21.527 22.4226C21.4455 22.5936 21.2667 22.6578 21.0901 22.672C20.8728 22.6902 20.6527 22.6772 20.4184 22.6772ZM20.8753 21.8981C20.8708 21.9388 20.8736 21.9799 20.8833 22.0197C20.9097 22.0887 20.9413 22.1556 20.9781 22.2197C21.0525 22.1679 21.1843 22.1225 21.1908 22.0632C21.2036 21.9042 21.1879 21.7441 21.1445 21.5906C21.134 21.5501 21.0099 21.5313 20.9355 21.5211C20.9216 21.5193 20.8852 21.6054 20.8778 21.6536C20.8688 21.7184 20.8753 21.786 20.8753 21.8981ZM20.8824 20.5058C20.8824 20.6561 20.8762 20.8083 20.8842 20.9596C20.8904 21.0735 20.9574 21.1071 21.0651 21.0636C21.1905 21.0133 21.2433 20.8518 21.1957 20.6515C21.167 20.5292 21.0726 20.4845 20.8824 20.5058Z" fill="white"/>
<path d="M23.1934 21.3627C23.1934 21.5936 23.2005 21.8258 23.1934 22.0552C23.1755 22.534 22.7708 22.8143 22.3121 22.6692C22.0916 22.5994 21.9465 22.4494 21.9262 22.2185C21.9021 21.9431 21.8984 21.6656 21.8987 21.3887C21.8987 21.1019 21.8987 20.8132 21.9296 20.5283C21.9629 20.1989 22.2265 20.0084 22.5995 20.0112C22.9122 20.0137 23.1345 20.2125 23.1814 20.5323C23.1868 20.5629 23.1902 20.5939 23.1916 20.6249C23.1916 20.8719 23.1916 21.1189 23.1916 21.3637L23.1934 21.3627ZM22.7304 21.3865C22.7304 21.1559 22.7328 20.9234 22.7304 20.6944C22.7285 20.5755 22.6705 20.5002 22.5433 20.4956C22.4161 20.4909 22.3729 20.5798 22.372 20.6851C22.3682 21.1361 22.3695 21.5875 22.372 22.0388C22.3704 22.0649 22.3745 22.0909 22.3839 22.1153C22.3933 22.1396 22.4078 22.1616 22.4264 22.1799C22.445 22.1982 22.4674 22.2122 22.4919 22.2211C22.5164 22.23 22.5426 22.2335 22.5686 22.2314C22.6699 22.2293 22.7368 22.1558 22.7328 22.0326C22.7239 21.8172 22.7291 21.6017 22.7291 21.3862L22.7304 21.3865Z" fill="white"/>
<path d="M14.9022 21.3665C14.9022 21.6233 14.9078 21.8801 14.9007 22.1382C14.8914 22.4701 14.646 22.6887 14.2759 22.7053C13.9594 22.7198 13.6585 22.4877 13.6504 22.1771C13.6368 21.6184 13.6504 21.0587 13.6631 20.4996C13.6649 20.424 13.7094 20.3431 13.7508 20.2752C13.9502 19.9501 14.5478 19.9026 14.7911 20.2372C14.8578 20.3298 14.8837 20.4647 14.8908 20.5823C14.9053 20.8435 14.8951 21.1071 14.8951 21.3677L14.9022 21.3665ZM14.4725 21.3763H14.466C14.466 21.1559 14.466 20.9352 14.466 20.7145C14.466 20.5817 14.4086 20.5008 14.2672 20.4922C14.1101 20.4823 14.1098 20.5959 14.1082 20.6981C14.1015 21.1445 14.0913 21.5915 14.1048 22.0373C14.107 22.1086 14.2172 22.2244 14.2901 22.2342C14.3796 22.246 14.4787 22.1725 14.4753 22.0385C14.4685 21.8178 14.4725 21.5971 14.4725 21.3763Z" fill="white"/>
<path d="M20.1279 22.2197V22.6874C19.7772 22.6874 19.4398 22.6911 19.103 22.6825C19.0665 22.6825 19.0156 22.6155 18.9999 22.5698C18.9834 22.5051 18.9774 22.4382 18.982 22.3716C18.9838 21.6585 18.9894 20.945 18.9872 20.2319C18.9872 20.0868 19.0391 20.03 19.1835 20.0331C19.4555 20.0393 19.7278 20.0387 19.9998 20.0331C20.0979 20.0309 20.1436 20.064 20.1409 20.1621C20.1387 20.2548 20.1409 20.3458 20.1409 20.4607H19.4463C19.4463 20.6298 19.4487 20.7762 19.4463 20.9237C19.4435 21.0583 19.5021 21.1213 19.6395 21.1161C19.7716 21.1111 19.9041 21.1161 20.0445 21.1161V21.5696H19.4487C19.4487 21.7498 19.4512 21.9027 19.4487 22.0555C19.4463 22.1746 19.5086 22.2212 19.6188 22.2216L20.1279 22.2197Z" fill="white"/>
<path d="M12.9547 21.8875H13.356C13.4267 22.174 13.3088 22.4892 13.0865 22.6155C12.8491 22.7501 12.4647 22.7254 12.299 22.5386C12.2185 22.4479 12.17 22.3335 12.1607 22.2126C12.1462 21.643 12.1465 21.0729 12.1542 20.5033C12.1579 20.2461 12.3595 20.0674 12.6654 20.0155C12.9411 19.9686 13.2211 20.1081 13.3196 20.34C13.5008 20.7694 13.4165 20.8824 12.9491 20.8339C12.9256 20.7478 12.9155 20.6539 12.8738 20.5768C12.8485 20.5292 12.7583 20.4684 12.7268 20.482C12.667 20.5082 12.5882 20.5826 12.5873 20.6363C12.5802 21.0932 12.5873 21.5501 12.5944 22.0067C12.5922 22.0482 12.603 22.0893 12.6253 22.1243C12.6654 22.1716 12.7179 22.2311 12.7716 22.2364C12.8102 22.2404 12.8726 22.1728 12.8951 22.1237C12.9272 22.0546 12.9349 21.9706 12.9547 21.8875Z" fill="white"/>
<path d="M24.5818 22.2608C24.5852 22.2646 24.5879 22.269 24.5898 22.2737C24.6515 22.6936 24.6515 22.6942 24.2292 22.6933C23.9927 22.6933 23.7563 22.6896 23.5192 22.6871C23.4984 22.685 23.4778 22.6816 23.4574 22.6769C23.4553 22.6291 23.4509 22.5793 23.4506 22.5293C23.4479 21.8153 23.4438 21.1012 23.4438 20.3872C23.4438 19.9954 23.4642 19.9812 23.8813 20.0504C23.8878 20.143 23.8986 20.239 23.9001 20.335C23.9081 20.9 23.9174 21.4649 23.918 22.0298C23.918 22.1725 23.9816 22.2216 24.1104 22.2212C24.2647 22.2212 24.4172 22.2212 24.5706 22.2212C24.5759 22.2342 24.579 22.2475 24.5818 22.2608Z" fill="white"/>
<path d="M25.7817 21.1306V21.5714H25.0075C24.9995 21.426 24.9917 21.2815 24.9834 21.1306H25.7817Z" fill="white"/>
<path d="M10.6154 21.5887C10.5741 21.0482 10.5515 21.1256 11.0029 21.121C11.1263 21.121 11.248 21.121 11.3542 21.121C11.3767 21.1519 11.385 21.1584 11.3881 21.167C11.4542 21.5751 11.4335 21.5992 11.022 21.589C10.8893 21.5862 10.7568 21.5887 10.6154 21.5887Z" fill="white"/>
</g>
<defs>
<clipPath id="clip0_237_226">
<rect width="36.3972" height="28" fill="white"/>
</clipPath>
</defs>
</svg>
