<svg width="29" height="28" viewBox="0 0 29 28" fill="none" xmlns="http://www.w3.org/2000/svg">
<g clip-path="url(#clip0_237_214)">
<path d="M10.9718 12.677H18.7736C19.012 12.677 19.0446 12.6397 18.9643 12.41C18.4624 10.9758 17.6052 9.85392 16.1825 9.21291C13.6602 8.07555 10.6642 9.19304 9.51654 11.7106C8.43999 14.0715 9.10046 16.7035 11.1816 18.2557C12.2757 19.0716 13.5235 19.324 14.8651 19.1455C15.4612 19.066 16.0176 18.8626 16.5485 18.578C16.6046 18.5478 16.725 18.5506 16.7647 18.59C17.4478 19.2663 18.1214 19.9495 18.797 20.6298C18.8058 20.6386 18.8074 20.6533 18.8185 20.6795C18.7953 20.7061 18.7697 20.7303 18.7418 20.7518C17.023 21.8669 15.1437 22.3259 13.1067 22.0954C10.9464 21.8522 9.17637 20.8547 7.7648 19.2262C6.24832 17.4776 5.68322 15.4147 5.86801 13.1285C6.09851 10.2748 8.28937 7.29665 11.2627 6.3111C13.4313 5.5922 15.5908 5.58982 17.6732 6.61789C19.9527 7.74293 21.4918 9.50977 22.1296 12.0007C22.3824 12.998 22.4426 14.0344 22.3073 15.0543C22.2878 15.2085 22.2325 15.2657 22.0688 15.2657C19.2954 15.2609 16.5219 15.2637 13.7485 15.2554C13.612 15.2535 13.4806 15.2037 13.3773 15.1147C12.5928 14.3461 11.8207 13.5648 11.0453 12.7867C11.0186 12.7517 10.9941 12.7151 10.9718 12.677Z" fill="white"/>
<path d="M22.9614 24.8442C18.2534 28.9005 9.62303 29.6063 3.89173 23.6175C-1.70883 17.7673 -0.672015 9.48076 3.26185 5.10022C3.30236 5.12886 3.34111 5.15991 3.37789 5.19321C4.04711 5.86164 4.71355 6.53324 5.38714 7.1977C5.48967 7.29864 5.49364 7.36301 5.4094 7.47588C3.9573 9.46009 3.24913 11.6883 3.29006 14.1411C3.33378 16.7524 4.19494 19.0732 5.87714 21.0824C7.14881 22.5993 8.7094 23.6977 10.5784 24.3447C12.0379 24.8576 13.5916 25.0463 15.1314 24.8979C17.0266 24.7159 18.7394 24.0606 20.2952 22.9753C20.4144 22.8922 20.5317 22.8052 20.6421 22.711C20.7216 22.6418 20.7804 22.6375 20.8599 22.7177C21.5403 23.4034 22.2223 24.0872 22.9061 24.7691C22.9261 24.793 22.9446 24.818 22.9614 24.8442Z" fill="white"/>
<path d="M24.9365 22.9216C24.7501 22.7348 24.563 22.5501 24.3802 22.3625C23.8608 21.8335 23.3469 21.301 22.8224 20.7761C22.7258 20.6791 22.7071 20.6171 22.7953 20.4979C23.6128 19.3899 24.2152 18.1731 24.5673 16.8418C25.0164 15.1461 25.0756 13.4345 24.7092 11.7153C24.0563 8.64742 22.3717 6.28845 19.7385 4.62176C17.7527 3.3624 15.5599 2.8577 13.2156 3.04885C11.1273 3.21894 9.2595 3.96009 7.60194 5.23336C7.47994 5.32674 7.4104 5.33708 7.29356 5.21984C6.6454 4.56771 5.98691 3.92551 5.332 3.27974C5.29504 3.24278 5.26046 3.20383 5.19092 3.12992C8.45437 0.620735 12.091 -0.420055 16.1715 0.15379C21.8543 0.952961 26.2654 5.20077 27.6754 10.1854C29.0953 15.2021 27.4326 20.0834 24.9365 22.9216Z" fill="white"/>
</g>
<defs>
<clipPath id="clip0_237_214">
<rect width="28.1975" height="28" fill="white"/>
</clipPath>
</defs>
</svg>
