<svg width="34" height="28" viewBox="0 0 34 28" fill="none" xmlns="http://www.w3.org/2000/svg">
<g clip-path="url(#clip0_237_163)">
<path d="M5.88291e-05 19.3221C0.154089 19.2393 0.309966 19.1591 0.462149 19.0726C1.08091 18.7221 1.69887 18.3705 2.31605 18.0176C2.97965 17.6394 3.64298 17.2608 4.30605 16.8819C4.90511 16.5409 5.50435 16.2005 6.10377 15.8606C6.70653 15.5178 7.30893 15.1742 7.91099 14.8299C8.52922 14.4782 9.1478 14.1274 9.76673 13.7775C10.2705 13.4911 10.7739 13.2041 11.277 12.9166L12.9122 11.9832C12.9309 11.9727 12.9489 11.9606 12.9863 11.9373L5.87694 7.88877L5.88169 7.85976C6.32031 7.84763 6.75945 7.85607 7.19833 7.85449C7.63721 7.8529 8.07689 7.85449 8.51709 7.85449H15.1657C15.1691 7.78433 15.1744 7.72868 15.1744 7.67329C15.1744 6.11839 15.1736 4.56358 15.172 3.00886C15.172 2.88886 15.2058 2.81817 15.3126 2.75883C15.8515 2.45974 16.3837 2.15379 16.9178 1.85021C17.4026 1.57468 17.887 1.29888 18.3711 1.02282C18.8634 0.743248 19.3557 0.464376 19.8481 0.186208L20.1791 0C20.182 0.0791251 20.1859 0.131875 20.1862 0.186999C20.1862 1.46513 20.1862 2.74318 20.1862 4.02114V7.84314C20.3152 7.77299 20.4183 7.71918 20.519 7.66168C21.0763 7.34518 21.6331 7.02816 22.1896 6.7106C22.6929 6.4239 23.1953 6.13536 23.7004 5.85183C23.757 5.82071 23.8204 5.80404 23.885 5.8033C26.9113 5.80084 29.9376 5.80022 32.9638 5.80145C33.0033 5.79993 33.0424 5.80972 33.0765 5.82967L22.364 11.93C22.3877 11.9495 22.4124 11.9677 22.4381 11.9846C23.2387 12.4417 24.0395 12.8982 24.8406 13.3539C25.3175 13.6254 25.7947 13.8963 26.2722 14.1666C26.3105 14.1882 26.3463 14.214 26.3859 14.2328C26.4125 14.2437 26.4346 14.2633 26.4486 14.2885C26.4625 14.3137 26.4675 14.3429 26.4627 14.3712C26.4606 14.3976 26.4627 14.424 26.4627 14.4504C26.4627 16.1018 26.4627 17.7532 26.4627 19.4046C26.4627 19.4598 26.459 19.5149 26.4561 19.5974C26.3345 19.5315 26.235 19.4798 26.1377 19.4244C25.3092 18.9539 24.4812 18.4829 23.6537 18.0115C22.624 17.4244 21.5946 16.837 20.5655 16.2494C19.8212 15.8258 19.0762 15.403 18.3307 14.981C18.1358 14.8705 17.9404 14.7616 17.7481 14.6468C17.7255 14.6304 17.6983 14.6215 17.6704 14.6215C17.6425 14.6215 17.6153 14.6304 17.5927 14.6468C16.9 15.0442 16.206 15.4399 15.511 15.8337C14.8511 16.2093 14.191 16.5847 13.5307 16.9599C12.8671 17.338 12.2036 17.716 11.5402 18.0941C10.9415 18.435 10.3424 18.7756 9.743 19.1158C9.66456 19.1555 9.58839 19.1996 9.51485 19.2477C9.39828 19.3321 9.27167 19.3532 9.13057 19.3532C6.17903 19.3509 3.22748 19.3503 0.275942 19.3514C0.183629 19.3514 0.0913164 19.3495 -0.000732422 19.3485L5.88291e-05 19.3221Z" fill="white"/>
<path d="M0 20.4027C0.0809714 20.2748 0.195703 20.2362 0.346304 20.2376C1.05843 20.2436 1.76871 20.2402 2.47978 20.2402C2.51486 20.2402 2.5502 20.2402 2.58528 20.242C2.65575 20.2497 2.72084 20.2834 2.76784 20.3364C2.81485 20.3895 2.84041 20.4581 2.83954 20.529C2.83818 20.5977 2.81135 20.6633 2.76426 20.7133C2.71718 20.7633 2.65319 20.7939 2.58475 20.7994C2.54545 20.8025 2.50563 20.7994 2.46633 20.7994H0.587372C0.550447 20.8983 0.538051 23.6384 0.572074 23.8433C0.618758 23.8473 0.669398 23.8546 0.719775 23.8546C1.29053 23.8546 1.86129 23.8546 2.43178 23.8567C2.50607 23.8562 2.57997 23.8675 2.65069 23.8902C2.77729 23.9332 2.8311 24.0348 2.82266 24.183C2.81553 24.3096 2.7612 24.3787 2.62774 24.4133C2.5681 24.4271 2.50697 24.4335 2.44576 24.4323C1.75658 24.4336 1.0674 24.4299 0.378218 24.4354C0.214165 24.4354 0.0862464 24.3919 0 24.2489L0 20.4027Z" fill="white"/>
<path d="M0 25.9631C0.0582888 25.8172 0.1055 25.6655 0.211 25.5411C0.414352 25.2984 0.660958 25.1396 0.990119 25.1409C1.16578 25.1409 1.34143 25.1386 1.51762 25.1431C1.66426 25.1467 1.74128 25.2464 1.71385 25.3902C1.69882 25.4693 1.65873 25.5295 1.57274 25.544C1.51697 25.5551 1.46047 25.5621 1.40368 25.5651C1.2718 25.5685 1.13993 25.5711 1.00805 25.5651C0.75248 25.5542 0.446002 25.7898 0.427803 26.1229C0.412506 26.4162 0.419099 26.7113 0.426484 27.0051C0.432551 27.2544 0.66386 27.5107 0.913104 27.5376C1.10854 27.559 1.30636 27.559 1.50338 27.564C1.6007 27.5667 1.67429 27.597 1.71042 27.6935C1.7579 27.8209 1.69671 27.967 1.56246 27.9776C1.24859 28.004 0.929456 28.0282 0.628517 27.8985C0.327578 27.7687 0.133194 27.5292 0.0292763 27.2196C0.0211 27.195 0.0102863 27.1716 0.000527501 27.1476L0 25.9631Z" fill="white"/>
<path d="M25.874 23.5606C25.878 23.4986 25.8822 23.4656 25.8822 23.4326C25.8822 22.5007 25.8822 21.5699 25.8822 20.6401C25.881 20.57 25.8899 20.5002 25.9086 20.4327C25.9513 20.2916 26.0647 20.226 26.2143 20.2428C26.2776 20.2523 26.336 20.2824 26.3804 20.3286C26.4249 20.3747 26.4528 20.4342 26.4598 20.4979C26.4624 20.533 26.4631 20.5682 26.4619 20.6034C26.4619 21.7584 26.4613 22.9133 26.4601 24.068C26.4601 24.3341 26.3596 24.4338 26.094 24.4349C26.028 24.4349 25.9621 24.4349 25.8964 24.4349C25.7501 24.437 25.6493 24.3753 25.5818 24.2413C25.3299 23.7389 25.0725 23.239 24.8169 22.7379C24.5613 22.2368 24.3081 21.7357 24.052 21.2345C24.0365 21.1997 24.0118 21.1698 23.9806 21.148V21.2847C23.9806 22.1891 23.9798 23.0937 23.9782 23.9984C23.9785 24.064 23.9726 24.1296 23.9605 24.1941C23.9302 24.3468 23.8141 24.4394 23.6751 24.4288C23.6065 24.4243 23.5417 24.3957 23.492 24.3482C23.4423 24.3006 23.411 24.2371 23.4035 24.1688C23.4006 24.1382 23.3997 24.1074 23.4008 24.0767C23.4008 22.9173 23.4 21.758 23.3982 20.5989C23.3982 20.49 23.413 20.39 23.4982 20.3106C23.5191 20.2883 23.5445 20.2704 23.5726 20.2582C23.6007 20.246 23.631 20.2397 23.6617 20.2397C23.7714 20.2413 23.8814 20.2428 23.9911 20.2397C24.1211 20.2344 24.2071 20.2988 24.2699 20.4037C24.2902 20.4375 24.3063 20.4739 24.3226 20.5092C24.6216 21.1057 24.9205 21.7021 25.2194 22.2985C25.4151 22.6868 25.6132 23.0734 25.8105 23.4606C25.8279 23.4864 25.844 23.511 25.874 23.5606Z" fill="white"/>
<path d="M8.83741 22.7353C8.85983 22.7775 8.87987 22.8202 8.90467 22.8598C9.13325 23.2234 9.36307 23.5868 9.59411 23.9501C9.71201 24.1366 9.68537 24.2853 9.51736 24.3916C9.41634 24.4555 9.31533 24.4518 9.22723 24.3718C9.1859 24.3327 9.14981 24.2884 9.11989 24.24C8.83266 23.7934 8.54518 23.3469 8.26217 22.8977C8.21971 22.8302 8.17487 22.7967 8.09416 22.8025C8.01518 22.8093 7.93577 22.8093 7.85679 22.8025C7.81696 22.7986 7.76395 22.7822 7.7439 22.7532C7.63682 22.5992 7.53844 22.4393 7.42265 22.2589C7.49096 22.2542 7.53607 22.2484 7.5809 22.2484C7.8312 22.2484 8.08203 22.25 8.3318 22.2471C8.54649 22.2447 8.74061 22.1795 8.88568 22.0166C9.06819 21.8124 9.13149 21.5745 9.04393 21.3089C8.95847 21.0518 8.78466 20.8856 8.51643 20.8281C8.44375 20.8127 8.36969 20.8047 8.2954 20.8044C8.01873 20.8015 7.74153 20.803 7.46538 20.803H7.31214C7.30845 20.8745 7.30317 20.9299 7.30317 20.9856C7.30317 22.0038 7.30317 23.0223 7.30317 24.0411C7.30317 24.0894 7.30476 24.1379 7.30186 24.1859C7.29447 24.3178 7.21957 24.4022 7.08532 24.4307C6.97243 24.4547 6.83264 24.3908 6.78992 24.2832C6.7638 24.2183 6.74994 24.1491 6.74904 24.0791C6.7464 22.9115 6.74569 21.7437 6.74693 20.5757C6.74693 20.4857 6.76143 20.4019 6.82605 20.332C6.84993 20.3035 6.87986 20.2807 6.91367 20.2652C6.94748 20.2497 6.98431 20.242 7.02149 20.2426C7.5176 20.2447 8.01398 20.2368 8.50983 20.2476C8.74721 20.2529 8.96216 20.3562 9.14705 20.5045C9.39788 20.7052 9.57037 20.9594 9.62761 21.282C9.71807 21.7921 9.54558 22.2051 9.15286 22.5314C9.0616 22.6063 8.95082 22.6619 8.83741 22.7353Z" fill="white"/>
<path d="M13.0473 22.337C13.0473 22.5256 13.0473 22.7144 13.0473 22.903C13.0426 23.2548 12.9184 23.5946 12.6951 23.8665C12.4718 24.1384 12.1627 24.3263 11.8185 24.3993C10.9566 24.5778 10.0965 23.9894 9.98886 23.1117C9.95378 22.826 9.96697 22.5343 9.96064 22.2452C9.95747 22.0962 9.96064 21.9469 9.96064 21.7969C9.96222 21.1528 10.3299 20.5783 10.9294 20.3462C11.4746 20.1352 11.9978 20.2054 12.4673 20.5709C12.8664 20.8816 13.0383 21.3018 13.0476 21.7974C13.0499 21.9773 13.0473 22.1571 13.0473 22.337ZM10.5435 22.3278H10.5422C10.5422 22.543 10.5351 22.7585 10.5438 22.9732C10.5551 23.2467 10.6786 23.4693 10.8867 23.6436C11.085 23.8095 11.3155 23.866 11.5724 23.8578C11.7896 23.8491 11.997 23.7646 12.1584 23.6191C12.3199 23.4735 12.4252 23.2759 12.4562 23.0607C12.5169 22.6042 12.4971 22.1421 12.4671 21.6819C12.4328 21.1567 11.8773 20.6957 11.3023 20.8255C10.8711 20.9225 10.5464 21.3039 10.5433 21.7486C10.5422 21.9414 10.5435 22.1345 10.5435 22.3278Z" fill="white"/>
<path d="M20.8838 22.5855H21.9839C21.7784 21.9928 21.5806 21.4226 21.3746 20.8281C21.3517 20.8766 21.3356 20.9043 21.3253 20.9336C21.0025 21.8715 20.6801 22.8095 20.3581 23.7476C20.3069 23.8968 20.2563 24.0466 20.1999 24.1959C20.1821 24.245 20.1557 24.2906 20.1221 24.3304C20.0213 24.4449 19.9111 24.4639 19.7942 24.3956C19.6647 24.3209 19.6117 24.2009 19.656 24.0627C19.7256 23.8454 19.799 23.6291 19.8731 23.4134C20.0371 22.936 20.2019 22.459 20.3673 21.9823C20.5416 21.4762 20.7155 20.9699 20.889 20.4633C20.9476 20.2937 21.0209 20.2426 21.2013 20.2413C21.3155 20.2413 21.4297 20.2413 21.5442 20.2413C21.7154 20.2428 21.7816 20.2845 21.8407 20.4462C21.9198 20.6604 21.9905 20.8772 22.0643 21.0929C22.3922 22.0472 22.7194 23.0019 23.0457 23.9572C23.0684 24.0187 23.0822 24.0831 23.0866 24.1485C23.0922 24.2843 23.003 24.3903 22.8688 24.4238C22.8104 24.436 22.7497 24.4284 22.6962 24.4021C22.6427 24.3759 22.5995 24.3326 22.5734 24.279C22.5537 24.2398 22.537 24.1992 22.5235 24.1574C22.4217 23.8629 22.3202 23.5683 22.2191 23.2736C22.1756 23.1467 22.1756 23.1459 22.0459 23.1457C21.8085 23.1457 21.5711 23.1433 21.3337 23.1457C21.2992 23.1492 21.2643 23.142 21.234 23.125C21.2037 23.108 21.1794 23.0821 21.1644 23.0507C21.0932 22.9249 21.0101 22.806 20.9331 22.6833C20.9186 22.6596 20.9072 22.6322 20.8838 22.5855Z" fill="white"/>
<path d="M5.74482 21.7816C5.74482 21.3859 5.74482 20.9903 5.74614 20.5963C5.74572 20.5351 5.75617 20.4744 5.77699 20.4169C5.8279 20.2866 5.92865 20.2307 6.0687 20.2418C6.12816 20.2472 6.18426 20.2717 6.22859 20.3117C6.27291 20.3517 6.30306 20.405 6.31452 20.4636C6.32235 20.5022 6.32572 20.5416 6.32454 20.581C6.32454 21.3402 6.32454 22.0996 6.32454 22.8592C6.32454 23.2675 6.19267 23.6305 5.91546 23.9274C5.6745 24.1931 5.34767 24.3654 4.99234 24.4141C4.64227 24.4692 4.28403 24.397 3.9827 24.2104C3.552 23.9491 3.29009 23.5682 3.24262 23.0621C3.21624 22.7875 3.21835 22.5103 3.21624 22.2344C3.21255 21.69 3.2144 21.1457 3.21624 20.6013C3.21542 20.5444 3.2228 20.4878 3.23813 20.433C3.27506 20.3104 3.37687 20.2413 3.50584 20.2413C3.63481 20.2413 3.73847 20.3104 3.77381 20.4325C3.79026 20.4959 3.79781 20.5613 3.79623 20.6269C3.79623 21.382 3.80388 22.1374 3.79227 22.8922C3.78568 23.3076 4.09506 23.7626 4.56453 23.8417C5.14268 23.9361 5.58182 23.6526 5.73163 23.1111C5.7446 23.0511 5.74965 22.9897 5.74666 22.9283C5.74666 22.5464 5.74666 22.1635 5.74666 21.7826L5.74482 21.7816Z" fill="white"/>
<path d="M14.1477 22.2502C14.1951 22.2481 14.2376 22.2447 14.2795 22.2447C14.5254 22.2447 14.7714 22.2447 15.018 22.2447C15.2588 22.2447 15.4611 22.1621 15.6231 21.9775C15.8375 21.7325 15.8423 21.33 15.6331 21.0808C15.4725 20.8885 15.2694 20.8004 15.0217 20.802C14.7495 20.8038 14.4771 20.802 14.2041 20.802H14.0598C14.0553 20.8679 14.0485 20.9228 14.0482 20.9776C14.047 21.9918 14.046 23.006 14.0453 24.02C14.0471 24.0813 14.0423 24.1426 14.0308 24.2028C13.9979 24.3507 13.8755 24.4444 13.7394 24.4341C13.6686 24.4284 13.6022 24.3973 13.5525 24.3466C13.5028 24.2958 13.473 24.2288 13.4688 24.1579C13.4616 24.0524 13.4648 23.9469 13.4648 23.8414C13.4648 22.7527 13.4648 21.6639 13.4648 20.5752C13.4617 20.5228 13.4693 20.4704 13.4872 20.4211C13.5376 20.3101 13.6228 20.2413 13.7534 20.2415C14.2452 20.2428 14.7371 20.2336 15.2285 20.2471C15.4807 20.2539 15.7033 20.3739 15.8958 20.5324C16.1965 20.7801 16.3574 21.1053 16.3653 21.4949C16.3723 21.7895 16.2775 22.0775 16.097 22.3105C15.9164 22.5434 15.6612 22.707 15.3741 22.7738C15.293 22.7922 15.2101 22.8021 15.127 22.8031C14.9423 22.8075 14.7577 22.8031 14.5731 22.8049C14.5182 22.8049 14.471 22.7991 14.4378 22.7448C14.3465 22.595 14.2513 22.4475 14.1582 22.2988C14.1527 22.2831 14.1492 22.2668 14.1477 22.2502Z" fill="white"/>
<path d="M17.245 20.8007C17.24 20.8584 17.2345 20.893 17.2342 20.9273C17.2267 21.8488 17.2196 22.7705 17.2129 23.6922C17.2129 23.7394 17.2168 23.7866 17.2197 23.8459C17.2801 23.8499 17.331 23.856 17.3819 23.856C17.9134 23.856 18.4446 23.856 18.976 23.8575C19.0417 23.8574 19.1072 23.8642 19.1715 23.8779C19.2371 23.8891 19.2963 23.9241 19.3379 23.9761C19.3794 24.0281 19.4005 24.0936 19.397 24.1601C19.3954 24.2904 19.3044 24.3974 19.1659 24.4251C19.1224 24.4326 19.0782 24.4356 19.0341 24.4341C18.362 24.4341 17.6901 24.4341 17.0182 24.4341C16.9615 24.4351 16.9049 24.4279 16.8502 24.4127C16.7339 24.3769 16.6703 24.2922 16.6577 24.1711C16.6549 24.136 16.6541 24.1008 16.655 24.0656C16.655 22.9152 16.6545 21.7647 16.6535 20.6142C16.6517 20.5616 16.6562 20.509 16.6669 20.4575C16.7022 20.3138 16.793 20.2421 16.9402 20.2418C17.6647 20.2418 18.3892 20.2444 19.114 20.2392C19.1888 20.2393 19.2606 20.2687 19.3139 20.3212C19.3672 20.3737 19.3978 20.445 19.3991 20.5198C19.3991 20.678 19.2912 20.7893 19.1272 20.7991C19.0921 20.8012 19.0567 20.7991 19.0217 20.7991H17.245V20.8007Z" fill="white"/>
<path d="M8.04033 26.3286C8.07145 26.288 8.0915 26.2653 8.10785 26.2403C8.30962 25.9267 8.51323 25.6141 8.71078 25.2976C8.77751 25.1921 8.85558 25.1251 8.98798 25.142C9.03124 25.1475 9.07581 25.142 9.11986 25.142C9.26729 25.147 9.32796 25.205 9.33086 25.3509C9.33402 25.4828 9.33086 25.6146 9.33086 25.7465C9.33772 26.3692 9.34589 26.9922 9.35143 27.6149C9.35188 27.685 9.3449 27.7549 9.33059 27.8236C9.32188 27.8691 9.298 27.9104 9.26285 27.9406C9.2277 27.9709 9.18335 27.9884 9.137 27.9902C9.09287 27.9901 9.04979 27.9768 9.01335 27.9519C8.9769 27.927 8.94877 27.8918 8.9326 27.8507C8.91777 27.814 8.90939 27.775 8.9078 27.7355C8.90596 27.3535 8.90411 26.9706 8.9078 26.5897C8.91018 26.3444 8.92178 26.0994 8.92785 25.8541C8.92937 25.8169 8.91963 25.7802 8.89989 25.7486C8.83844 25.8425 8.77619 25.9359 8.71526 26.0306C8.56203 26.2709 8.41169 26.5135 8.25608 26.7525C8.13053 26.9447 7.95725 26.9429 7.82906 26.7464C7.63758 26.4523 7.45137 26.1548 7.26253 25.8591C7.23893 25.8195 7.20664 25.7856 7.16811 25.7602C7.16811 25.8019 7.16811 25.8438 7.16811 25.8855V27.6239C7.16811 27.6766 7.17022 27.7294 7.16811 27.7821C7.16098 27.9043 7.0874 27.9797 6.97029 27.9889C6.9172 27.9907 6.8653 27.9729 6.82453 27.9388C6.78375 27.9048 6.75696 27.8569 6.74927 27.8043C6.74493 27.7693 6.74352 27.734 6.74505 27.6988C6.74505 26.9527 6.74505 26.2064 6.74505 25.4598C6.74337 25.4204 6.74487 25.3809 6.74953 25.3417C6.77353 25.1942 6.85029 25.1359 6.97741 25.1399C7.28442 25.1491 7.25884 25.0974 7.43792 25.3883C7.63072 25.7001 7.8317 26.0037 8.04033 26.3286Z" fill="white"/>
<path d="M16.6266 27.2718V27.146C16.6266 26.5833 16.6273 26.0213 16.6285 25.4598C16.6285 25.4247 16.6269 25.3894 16.6285 25.3543C16.6382 25.2224 16.715 25.1462 16.835 25.1449C16.9611 25.1433 17.0402 25.2222 17.05 25.3599C17.05 25.3815 17.05 25.4036 17.05 25.4255C17.05 26.1851 17.0465 26.945 17.055 27.7046C17.0576 27.9235 16.9394 28.0008 16.7577 27.9947C16.7137 27.9947 16.6696 27.9947 16.6258 27.9947C16.586 27.9947 16.547 27.9837 16.5132 27.9627C16.4793 27.9418 16.4519 27.9119 16.4341 27.8763C16.3969 27.8067 16.3563 27.7389 16.3207 27.6682C16.0381 27.1075 15.7562 26.5466 15.4748 25.9855C15.4553 25.9464 15.4345 25.9082 15.3997 25.8409C15.3957 25.909 15.3915 25.9488 15.3915 25.9884C15.3915 26.5549 15.3915 27.1225 15.3915 27.6877C15.3929 27.7444 15.3852 27.801 15.3685 27.8552C15.3529 27.8989 15.3228 27.936 15.2832 27.9603C15.2437 27.9847 15.197 27.9948 15.151 27.9892C15.1019 27.9855 15.0559 27.9639 15.0219 27.9284C14.9878 27.8929 14.968 27.8461 14.9663 27.7969C14.965 27.7706 14.965 27.7441 14.9663 27.7178C14.9663 26.945 14.9663 26.1719 14.9679 25.3992C14.9661 25.3391 14.9812 25.2797 15.0114 25.2277C15.0866 25.1191 15.4411 25.1032 15.5321 25.2013C15.5659 25.2412 15.594 25.2855 15.6154 25.3332C15.9319 25.9551 16.2484 26.5773 16.5649 27.1998C16.5784 27.2262 16.5934 27.2525 16.6079 27.2771L16.6266 27.2718Z" fill="white"/>
<path d="M14.682 26.5573C14.682 26.6892 14.682 26.821 14.682 26.9529C14.6788 27.4448 14.3106 27.8721 13.83 27.9699C13.2311 28.092 12.582 27.6424 12.5706 26.9242C12.5669 26.6783 12.5651 26.4323 12.5706 26.1857C12.5836 25.669 12.9399 25.2573 13.3851 25.1607C14.1012 25.0056 14.6804 25.5252 14.6817 26.1748L14.682 26.5573ZM13.0185 26.5649C13.0185 26.7053 13.0185 26.8456 13.0185 26.9869C13.0211 27.2736 13.273 27.5714 13.6359 27.5603C14.0745 27.5471 14.2634 27.195 14.2568 26.926C14.2507 26.6849 14.2439 26.4431 14.2586 26.2025C14.276 25.9137 13.9975 25.5477 13.6022 25.5635C13.3181 25.5748 13.0079 25.8499 13.0172 26.1437C13.0219 26.284 13.0182 26.4246 13.0185 26.5649Z" fill="white"/>
<path d="M5.10579 26.7045H5.73589C5.60798 26.3368 5.48797 25.9923 5.35952 25.6207C5.33578 25.6735 5.31996 25.7033 5.30915 25.7341C5.08478 26.3898 4.86059 27.0454 4.63658 27.7009C4.61978 27.755 4.59915 27.8079 4.57487 27.8592C4.51789 27.9731 4.41662 28.0174 4.31586 27.9744C4.26374 27.9555 4.22092 27.9173 4.19635 27.8676C4.17178 27.8179 4.16735 27.7606 4.18399 27.7078C4.21748 27.5943 4.25652 27.4823 4.29529 27.3704C4.52651 26.7038 4.758 26.0371 4.98974 25.3701C5.00135 25.3369 5.01164 25.3031 5.02614 25.2712C5.06386 25.1887 5.12373 25.1394 5.22053 25.1425C5.2949 25.1454 5.36954 25.1425 5.44419 25.1425C5.60244 25.1438 5.6536 25.18 5.70504 25.3298C5.83955 25.7196 5.97195 26.11 6.1062 26.4998C6.24045 26.8896 6.37522 27.2792 6.51211 27.6682C6.54614 27.7647 6.53849 27.8486 6.46358 27.9219C6.37549 28.0079 6.26735 28.0121 6.18691 27.919C6.14348 27.8644 6.11 27.8025 6.088 27.7362C6.02664 27.5671 5.96949 27.3966 5.91656 27.2248C5.89309 27.1478 5.85036 27.1193 5.77308 27.123C5.65914 27.1272 5.54494 27.123 5.43021 27.1246C5.37297 27.1246 5.32866 27.1112 5.29701 27.0597C5.23055 26.9518 5.16118 26.8458 5.09287 26.739C5.09762 26.7279 5.10184 26.7161 5.10579 26.7045Z" fill="white"/>
<path d="M10.2414 26.4726C10.3131 26.4687 10.355 26.465 10.3972 26.4647C10.5244 26.4647 10.6518 26.4671 10.7791 26.4629C11.0234 26.455 11.2011 26.2653 11.1998 26.0145C11.1998 25.7589 11.0292 25.5777 10.7799 25.5661C10.618 25.5593 10.4563 25.55 10.2944 25.5442C10.2519 25.5426 10.2092 25.5492 10.1551 25.5527C10.1522 25.6178 10.1475 25.6735 10.1475 25.7291C10.1475 26.3744 10.1479 27.0197 10.1488 27.665C10.1488 27.7046 10.1509 27.7442 10.1488 27.7835C10.1388 27.9095 10.0538 27.9897 9.93435 27.9881C9.81487 27.9866 9.73258 27.9061 9.72335 27.7798C9.72124 27.7492 9.72335 27.7183 9.72335 27.6875C9.72335 26.9368 9.72388 26.1862 9.72493 25.4356C9.7232 25.3961 9.72479 25.3566 9.72968 25.3174C9.74682 25.2119 9.82094 25.1433 9.92723 25.1425C10.2437 25.1404 10.5602 25.1336 10.8754 25.1457C11.2101 25.1586 11.5467 25.4738 11.621 25.8135C11.7289 26.3054 11.4156 26.7649 10.9775 26.8685C10.9561 26.8735 10.9353 26.8812 10.9137 26.8843C10.5412 26.9408 10.5412 26.9405 10.3392 26.6206C10.3126 26.5826 10.2862 26.5423 10.2414 26.4726Z" fill="white"/>
<path d="M23.155 26.4642H23.4544C23.5158 26.4642 23.5773 26.4642 23.639 26.4642C23.874 26.4584 24.0428 26.2964 24.0708 26.0511C24.0934 25.8499 23.9481 25.6262 23.7498 25.5764C23.5124 25.5184 23.2716 25.5474 23.0189 25.55C23.0155 25.6112 23.01 25.6621 23.01 25.713C23.01 26.3585 23.01 27.0038 23.01 27.649C23.01 27.684 23.01 27.7191 23.01 27.7545C23.006 27.9022 22.9282 27.9889 22.799 27.9895C22.6758 27.9895 22.5845 27.8958 22.5832 27.7568C22.5806 27.4714 22.5832 27.1861 22.5832 26.9007C22.5832 26.4135 22.5837 25.9263 22.5848 25.4393C22.5848 25.4171 22.5848 25.3952 22.5848 25.3733C22.5914 25.2222 22.6639 25.1449 22.814 25.1436C23.1123 25.1407 23.4109 25.1383 23.7107 25.1436C24.0417 25.1512 24.3611 25.4316 24.474 25.7766C24.623 26.2316 24.2841 26.8411 23.7231 26.8875C23.6403 26.8944 23.5575 26.9023 23.4747 26.9089C23.4463 26.9128 23.4175 26.9075 23.3924 26.8937C23.3672 26.88 23.3472 26.8586 23.3352 26.8326C23.2924 26.7562 23.2402 26.6852 23.1941 26.6106C23.1722 26.575 23.155 26.5365 23.1358 26.4993L23.155 26.4642Z" fill="white"/>
<path d="M25.274 27.5435C25.3926 27.5435 25.5113 27.5453 25.6298 27.5435C25.8545 27.5392 26.0365 27.3588 26.0275 27.1386C26.0185 26.9184 25.8508 26.7693 25.6456 26.7572C25.5322 26.7498 25.4156 26.7572 25.3059 26.7329C24.6818 26.5953 24.4505 25.8602 24.8868 25.3944C25.0279 25.2438 25.2093 25.1497 25.4225 25.1454C25.6683 25.1407 25.9143 25.1417 26.161 25.1454C26.2126 25.1467 26.2629 25.1619 26.3065 25.1895C26.3413 25.2135 26.3669 25.2484 26.3795 25.2887C26.3921 25.329 26.3908 25.3723 26.3759 25.4118C26.3602 25.4506 26.3334 25.4838 26.2988 25.5073C26.2642 25.5308 26.2233 25.5435 26.1815 25.5437C25.9705 25.5461 25.7595 25.5437 25.5485 25.5458C25.4873 25.5458 25.4263 25.5532 25.3668 25.5677C25.193 25.6139 25.064 25.7885 25.0717 25.9588C25.0731 26.05 25.107 26.1376 25.1673 26.2059C25.2276 26.2742 25.3103 26.3188 25.4006 26.3315C25.4824 26.347 25.5655 26.3542 25.6488 26.3531C26.0444 26.3423 26.3902 26.6641 26.4329 27.0626C26.4558 27.266 26.3995 27.4703 26.2759 27.6334C26.1522 27.7964 25.9705 27.9056 25.7685 27.9383C25.605 27.9647 25.4367 27.9594 25.2703 27.9647C25.1648 27.9681 25.0593 27.9665 24.9538 27.9647C24.91 27.9648 24.8663 27.9603 24.8235 27.9512C24.7114 27.9248 24.6346 27.8307 24.6444 27.7402C24.6549 27.6429 24.7499 27.5527 24.8641 27.5469C24.9825 27.5408 25.1015 27.5448 25.2199 27.5445H25.2726L25.274 27.5435Z" fill="white"/>
<path d="M17.9896 27.5435C18.108 27.5435 18.2269 27.5358 18.3451 27.545C18.5413 27.5601 18.7476 27.3604 18.7407 27.1544C18.7326 26.9263 18.5883 26.768 18.3562 26.7543C18.2424 26.7519 18.1289 26.7431 18.0162 26.7279C17.6612 26.6662 17.3998 26.3128 17.3864 25.9823C17.3833 25.8725 17.4025 25.7633 17.4428 25.6611C17.4831 25.5589 17.5436 25.466 17.6207 25.3878C17.6978 25.3096 17.7899 25.2478 17.8915 25.2061C17.9931 25.1644 18.1021 25.1437 18.2119 25.1452C18.4313 25.1478 18.6508 25.1452 18.8713 25.1452C18.9549 25.1452 19.0295 25.1655 19.0731 25.2436C19.1522 25.3836 19.0686 25.5316 18.9 25.5411C18.7819 25.5477 18.6627 25.5429 18.5445 25.5429C18.4303 25.5429 18.3158 25.5495 18.2016 25.5429C18.0257 25.531 17.8142 25.6919 17.7923 25.8992C17.7696 26.1158 17.8999 26.2949 18.1175 26.3397C18.195 26.3546 18.274 26.3599 18.3528 26.3555C18.6764 26.34 19.001 26.5882 19.0952 26.8698C19.259 27.3594 18.9945 27.8663 18.4704 27.938C18.19 27.9765 17.9017 27.9583 17.6169 27.9644C17.595 27.9636 17.5733 27.9601 17.5523 27.9538C17.4204 27.9222 17.3581 27.8484 17.3676 27.7378C17.3771 27.6273 17.4526 27.5548 17.5826 27.5477C17.7184 27.54 17.8548 27.5458 17.9909 27.5458L17.9896 27.5435Z" fill="white"/>
<path d="M3.5286 26.6554C3.46028 26.6522 3.41307 26.6485 3.36586 26.6483C3.18572 26.6483 3.00584 26.6459 2.8257 26.6483C2.75317 26.6483 2.70121 26.6288 2.6627 26.5631C2.59729 26.451 2.52476 26.3429 2.43799 26.2057C2.81515 26.1835 3.1633 26.2571 3.52147 26.2083C3.52464 26.1582 3.52965 26.1115 3.52991 26.0649C3.52991 25.8452 3.52991 25.6257 3.52991 25.4055C3.52868 25.3618 3.53419 25.3182 3.54627 25.2762C3.57713 25.1834 3.64807 25.1399 3.74909 25.1428C3.85011 25.1457 3.90233 25.1847 3.93134 25.2826C3.94443 25.3288 3.951 25.3767 3.95086 25.4247C3.95262 26.1847 3.95341 26.9445 3.95323 27.7041C3.9544 27.7394 3.9522 27.7747 3.94664 27.8096C3.92264 27.9306 3.83613 27.9989 3.72403 27.9887C3.60667 27.9778 3.5315 27.9035 3.52939 27.7795C3.52517 27.5337 3.5278 27.2876 3.52754 27.041L3.5286 26.6554Z" fill="white"/>
<path d="M21.0313 26.6259H20.7857C20.632 26.6259 20.4785 26.623 20.325 26.6259C20.2901 26.6294 20.2549 26.6223 20.2241 26.6055C20.1934 26.5886 20.1685 26.5628 20.1527 26.5314C20.1 26.4373 20.0398 26.3468 19.9768 26.2445C20.1008 26.2031 20.2142 26.2271 20.325 26.2229C20.4357 26.2186 20.5534 26.2229 20.6678 26.2229H21.0199C21.0247 26.1617 21.031 26.1152 21.0313 26.0688C21.0313 25.8578 21.0313 25.6468 21.0313 25.4358C21.0311 25.3833 21.038 25.3311 21.0519 25.2805C21.0782 25.1903 21.1421 25.1486 21.2381 25.1431C21.3341 25.1375 21.4013 25.18 21.4324 25.2681C21.4468 25.314 21.4535 25.3619 21.4522 25.41C21.4538 26.1824 21.4545 26.9548 21.4543 27.7273C21.4543 27.7494 21.4543 27.7713 21.453 27.7932C21.4419 27.9016 21.3718 27.9778 21.2723 27.9892C21.224 27.9933 21.1756 27.981 21.135 27.9544C21.0944 27.9278 21.0639 27.8883 21.0484 27.8423C21.0343 27.7918 21.0279 27.7396 21.0294 27.6872C21.0294 27.3886 21.0294 27.0901 21.0294 26.7918L21.0313 26.6259Z" fill="white"/>
<path d="M11.8598 26.5525C11.8598 26.1833 11.858 25.8159 11.8617 25.4477C11.8632 25.3783 11.8768 25.3098 11.902 25.2451C11.9342 25.162 12.0115 25.133 12.0956 25.1375C12.1798 25.142 12.2497 25.1816 12.275 25.2675C12.2934 25.3259 12.3036 25.3865 12.3053 25.4477C12.3071 26.193 12.3071 26.9383 12.3053 27.6835C12.3054 27.7403 12.2965 27.7967 12.2789 27.8507C12.2497 27.938 12.179 27.9826 12.0893 27.9902C12.045 27.9917 12.0014 27.979 11.9649 27.9539C11.9284 27.9288 11.9009 27.8926 11.8865 27.8507C11.869 27.7922 11.8601 27.7314 11.8601 27.6703C11.8588 27.2982 11.8598 26.9249 11.8598 26.5525Z" fill="white"/>
<path d="M22.2431 26.5805C22.2431 26.9497 22.2431 27.319 22.2431 27.6882C22.2449 27.7325 22.2413 27.7768 22.2322 27.8201C22.2198 27.8695 22.1913 27.9132 22.1512 27.9446C22.1112 27.976 22.0618 27.9931 22.011 27.9934C21.915 27.9884 21.8372 27.9196 21.8158 27.8114C21.8038 27.7513 21.7977 27.6902 21.7979 27.6289C21.8038 26.8784 21.8109 26.1282 21.819 25.3781C21.8205 25.2235 21.9049 25.1375 22.0405 25.1467C22.1228 25.1525 22.1866 25.1895 22.209 25.2702C22.2286 25.3372 22.2391 25.4066 22.2404 25.4764C22.2433 25.8457 22.2404 26.2149 22.2404 26.5842L22.2431 26.5805Z" fill="white"/>
<path d="M1.92278 26.5652C1.92278 26.188 1.92278 25.811 1.92278 25.434C1.92114 25.3946 1.92282 25.3552 1.92779 25.3161C1.93435 25.2679 1.95829 25.2238 1.99511 25.192C2.03193 25.1602 2.07909 25.143 2.12772 25.1436C2.17852 25.1402 2.22871 25.1562 2.26823 25.1883C2.30775 25.2204 2.33369 25.2662 2.34083 25.3166C2.34528 25.3469 2.34695 25.3775 2.34584 25.4081C2.34584 26.1799 2.34654 26.9515 2.34795 27.7231C2.34795 27.8038 2.3461 27.8834 2.27225 27.9362C2.1984 27.9889 2.12323 28.0063 2.03752 27.9655C1.95628 27.9269 1.92463 27.8599 1.92173 27.7753C1.92041 27.7402 1.92173 27.7051 1.92173 27.6698V26.5649L1.92278 26.5652Z" fill="white"/>
<path d="M19.8468 26.5697C19.8468 26.9606 19.8468 27.3513 19.8468 27.7418C19.8468 27.8191 19.8375 27.8905 19.7676 27.9393C19.7383 27.9607 19.704 27.9742 19.668 27.9787C19.632 27.9832 19.5955 27.9784 19.5618 27.9648C19.5281 27.9513 19.4985 27.9294 19.4756 27.9012C19.4528 27.873 19.4374 27.8395 19.4311 27.8038C19.4243 27.7602 19.4221 27.716 19.4245 27.6719C19.4245 26.9344 19.4245 26.197 19.4245 25.4596C19.4229 25.4114 19.4263 25.3633 19.4345 25.3158C19.4609 25.1916 19.5514 25.1291 19.674 25.1441C19.7753 25.1568 19.8457 25.2391 19.8462 25.3575C19.8478 25.7621 19.8468 26.1659 19.8468 26.5697Z" fill="white"/>
<path d="M0.666504 21.944C0.73587 21.9372 0.773587 21.9306 0.811303 21.9303C1.18055 21.9303 1.5498 21.9287 1.91747 21.9303C2.09656 21.9303 2.19415 21.9926 2.24162 22.1247C2.30967 22.3149 2.18386 22.4998 1.97286 22.5092C1.82384 22.5161 1.67429 22.5111 1.52448 22.5111C1.39261 22.5111 1.26073 22.5148 1.12886 22.509C1.08212 22.509 1.03676 22.4932 1.00015 22.4641C0.951618 22.4156 0.918386 22.351 0.880933 22.2917C0.814995 22.1864 0.749322 22.0788 0.666504 21.944Z" fill="white"/>
<path d="M17.3359 21.944C17.4114 21.9385 17.4538 21.933 17.4966 21.933C17.843 21.933 18.1894 21.933 18.536 21.933C18.5841 21.9337 18.6319 21.9391 18.679 21.949C18.8372 21.9817 18.9327 22.0989 18.9216 22.2421C18.9105 22.3853 18.799 22.4953 18.6431 22.5082C18.5819 22.5132 18.5202 22.51 18.4585 22.51C18.2435 22.51 18.0285 22.5066 17.8136 22.5119C17.7768 22.5154 17.7397 22.5078 17.7073 22.49C17.6748 22.4722 17.6485 22.4451 17.6316 22.4122C17.5427 22.2634 17.4464 22.1181 17.3359 21.944Z" fill="white"/>
</g>
<defs>
<clipPath id="clip0_237_163">
<rect width="33.0775" height="28" fill="white"/>
</clipPath>
</defs>
</svg>
