<svg width="26" height="27" viewBox="0 0 26 27" fill="none" xmlns="http://www.w3.org/2000/svg">
<g clip-path="url(#clip0_137_2)">
<path d="M23.2103 15.7303C22.3692 15.6907 21.5274 15.6495 20.6856 15.6091C20.4024 15.5953 20.3922 15.5792 20.3993 15.2857C20.4427 13.4572 19.8316 11.9013 18.5659 10.6181C18.3854 10.4338 18.3854 10.3966 18.5588 10.2075L21.9542 6.51396C22.2155 6.22941 22.2288 6.22699 22.4924 6.49537C24.2185 8.21914 25.3788 10.4556 25.811 12.8921C25.9673 13.7801 26.0296 14.683 25.9969 15.5848C25.9906 15.8273 25.9498 15.8702 25.7184 15.8589L23.2134 15.736L23.2103 15.7303Z" fill="white"/>
<path d="M12.8129 5.48488C12.8129 5.63605 12.7101 5.65221 12.6057 5.68697C12.0919 5.85835 11.56 5.99254 11.0728 6.22455C10.0003 6.73626 9.17972 7.55191 8.57171 8.59473C8.425 8.84694 8.40853 8.8518 8.1614 8.70386C6.70898 7.83512 5.25787 6.96557 3.80806 6.09521C3.60722 5.97476 3.59467 5.92302 3.71784 5.7088C4.91364 3.60016 6.71093 1.92237 8.86512 0.903771C9.7187 0.49306 10.6195 0.195885 11.5459 0.0194C11.7851 -0.0266779 11.8228 -0.00485152 11.8699 0.253023C12.0268 1.1153 12.1813 1.97542 12.3335 2.83338L12.7878 5.37413C12.7972 5.41617 12.8066 5.45335 12.8129 5.48488Z" fill="white"/>
<path d="M9.08716 19.3026C8.98596 19.6421 8.89888 19.938 8.80944 20.2339L7.53616 24.4375C7.4577 24.6881 7.42868 24.7099 7.18469 24.629C4.5628 23.756 2.48616 22.136 0.977512 19.7626C0.627613 19.2113 0.356167 18.609 0.0604004 18.027C-0.0486488 17.8119 -0.0180523 17.7545 0.201615 17.6584L4.82562 15.5986C5.06882 15.4903 5.09628 15.5056 5.20846 15.7562C5.92918 17.3676 7.09996 18.4724 8.72079 19.0706C8.80167 19.0929 8.88044 19.1227 8.95615 19.1595C9.00703 19.1996 9.05128 19.2479 9.08716 19.3026Z" fill="white"/>
<path d="M19.3409 16.2574L24.0481 16.6373C24.2999 16.6583 24.3297 16.6883 24.307 16.9494C24.0591 19.7528 23.0102 22.1893 21.1226 24.2248C20.6691 24.7147 20.1443 25.135 19.6438 25.5772C19.4657 25.7389 19.4084 25.7163 19.2648 25.5166C18.2648 24.11 17.2643 22.7034 16.2632 21.2968C16.1613 21.1538 16.1597 21.0543 16.304 20.9436C17.7389 19.8264 18.5384 18.3414 18.7251 16.4975C18.7525 16.2218 18.7682 16.2137 19.0452 16.2315C19.1432 16.2372 19.2405 16.2461 19.3386 16.2541L19.3409 16.2574Z" fill="white"/>
<path d="M0.239258 11.6545C0.256399 9.73508 0.725656 7.84869 1.60669 6.15746C1.70005 5.97477 1.75967 5.96264 1.97385 6.08148C3.11612 6.7077 4.2563 7.33662 5.39438 7.96824C5.73957 8.15902 6.08241 8.35546 6.43153 8.53896C6.59628 8.62546 6.6253 8.72651 6.54058 8.89546C5.70819 10.5559 5.61405 12.2648 6.24324 14.0149C6.30914 14.1985 6.23853 14.2712 6.08633 14.3318C4.5063 14.9575 2.92731 15.5846 1.34936 16.2129C1.12891 16.3002 1.08341 16.2744 0.99868 16.0456C0.495013 14.6843 0.245534 13.2745 0.239258 11.6545Z" fill="white"/>
<path d="M14.6495 1.30878C17.688 1.3597 20.1882 2.2853 22.3551 4.14459C22.6179 4.37012 22.6179 4.40003 22.4022 4.6571C21.3274 5.93542 20.2536 7.2124 19.1809 8.48803C18.9691 8.74105 18.9612 8.73943 18.7102 8.53168C17.3404 7.38162 15.7792 6.92084 14.0266 7.14934C13.7912 7.18006 13.7504 7.14935 13.7128 6.91572C13.4675 5.19818 13.2216 3.48009 12.9753 1.76147C12.9416 1.523 12.9753 1.46884 13.206 1.44459C13.7661 1.38881 14.3184 1.3403 14.6495 1.30878Z" fill="white"/>
<path d="M11.0556 27C10.0411 26.9967 9.03138 26.8578 8.0516 26.5869C7.8233 26.5239 7.79349 26.4754 7.85468 26.245C8.30579 24.5571 8.76003 22.8708 9.20642 21.1821C9.26448 20.963 9.38687 20.9776 9.54848 21.0204C10.5449 21.2962 11.5941 21.2984 12.5917 21.0269C13.2317 20.8546 13.8396 20.574 14.3906 20.1967C14.5906 20.06 14.6346 20.0706 14.7671 20.2775L17.5836 24.6072C17.7154 24.8101 17.7068 24.861 17.5099 24.9952C15.5532 26.3283 13.3982 26.9847 11.0556 27Z" fill="white"/>
<path d="M8.39444 13.6536C8.39915 11.1476 10.366 9.15572 12.8317 9.16219C15.1971 9.16865 17.1411 11.2106 17.1372 13.6891C17.1349 14.2806 17.0196 14.8659 16.7979 15.4115C16.5761 15.9571 16.2522 16.4523 15.8447 16.869C15.4371 17.2856 14.954 17.6154 14.4227 17.8396C13.8915 18.0638 13.3226 18.178 12.7486 18.1757C12.1745 18.1733 11.6065 18.0545 11.077 17.826C10.5475 17.5975 10.0669 17.2637 9.66259 16.8438C9.25827 16.4239 8.93818 15.926 8.72059 15.3786C8.503 14.8313 8.39218 14.2451 8.39444 13.6536ZM14.8197 13.0069L14.8111 12.9608C15.0943 12.8274 15.3744 12.6827 15.6639 12.5639C15.8208 12.5 15.882 12.4022 15.8576 12.2405C15.8114 11.9357 15.7549 11.6326 15.7007 11.3303C15.6768 11.2432 15.6471 11.1578 15.6121 11.0748C15.7086 11.1185 15.7612 11.1411 15.8137 11.1662C15.8663 11.1912 15.9173 11.2163 15.9706 11.2422C15.4779 10.5041 14.8221 10.015 13.9685 9.7232L14.2447 10.032C13.8665 10.0926 13.4954 10.1508 13.1259 10.2123C12.969 10.2381 12.9078 10.336 12.8976 10.5049C12.878 10.8283 12.8302 11.1411 12.7949 11.4588C12.7178 11.1301 12.6671 10.7953 12.6434 10.458C12.6325 10.319 12.5768 10.2422 12.452 10.2236C12.1115 10.1735 11.7703 10.1298 11.4321 10.0837C11.3866 10.0781 11.3396 10.0773 11.2619 10.0724L11.5624 9.74907C10.8265 9.93258 9.75167 10.7482 9.57123 11.2494L9.89289 11.0991C9.82228 11.4313 9.73128 11.7409 9.69519 12.057C9.64969 12.4612 9.6693 12.4612 10.0325 12.6318C10.2679 12.7425 10.5095 12.8557 10.748 12.9672C10.4208 12.9389 10.0961 12.8849 9.77678 12.8056C9.65047 12.7757 9.55476 12.7951 9.49592 12.9147C9.34738 13.2203 9.20198 13.5269 9.05972 13.8346C9.03296 13.9116 9.01172 13.9905 8.99618 14.0707C8.91066 13.9139 8.85025 13.8055 8.7718 13.6608C8.7412 14.508 9.12405 15.6406 9.53907 16.0448C9.52416 15.9211 9.51082 15.8103 9.49278 15.6592C9.54494 15.7051 9.59998 15.7475 9.65753 15.7861C9.94728 15.951 10.2383 16.1127 10.5307 16.2711C10.6515 16.3366 10.7433 16.3026 10.8343 16.1903C11.0148 15.9688 11.2109 15.7602 11.4015 15.5484C11.4344 15.5156 11.4695 15.4854 11.5067 15.4579C11.3784 15.7567 11.2297 16.0457 11.0618 16.3228C10.9716 16.4692 10.9755 16.5848 11.0893 16.6971C11.3247 16.934 11.571 17.1652 11.8126 17.398C11.8471 17.4311 11.8856 17.4594 11.9421 17.5071L11.6 17.5839C12.0456 17.8701 13.4609 17.8725 13.9614 17.5839L13.6382 17.5112C13.8799 17.2889 14.1207 17.0932 14.3302 16.8645C14.615 16.5565 14.6048 16.546 14.4086 16.1814C14.3459 16.0634 14.28 15.9469 14.2172 15.8289C14.1544 15.7109 14.0987 15.6018 14.0226 15.4554C14.05 15.465 14.0763 15.4774 14.1011 15.4926C14.2658 15.6745 14.4306 15.8564 14.5938 16.0407C14.8699 16.3511 14.8754 16.3641 15.2504 16.1798C15.5234 16.044 15.7761 15.8653 16.0459 15.702C16.0365 15.8079 16.0263 15.9211 16.0153 16.0351C16.5198 15.3785 16.7795 14.5575 16.7473 13.7207L16.5535 14.0602C16.5378 13.9866 16.5171 13.9142 16.4915 13.8435C16.3488 13.5355 16.2044 13.2284 16.0553 12.9236C15.9934 12.7967 15.8914 12.7765 15.758 12.808C15.4466 12.8807 15.1327 12.9398 14.8205 13.0044L14.8197 13.0069Z" fill="white"/>
<path d="M12.7658 15.2211C12.452 15.2211 12.1382 15.2211 11.8244 15.2211C11.7799 15.2291 11.7341 15.2186 11.6971 15.1919C11.66 15.1653 11.6347 15.1246 11.6267 15.0788C11.4329 14.4499 11.2282 13.825 11.0375 13.1953C11.0323 13.1598 11.0355 13.1237 11.0467 13.0898C11.0579 13.0559 11.0768 13.0252 11.1018 13.0004C11.6202 12.6011 12.1432 12.209 12.6709 11.8242C12.7018 11.8084 12.7361 11.8004 12.7706 11.8011C12.8052 11.8018 12.8391 11.8111 12.8694 11.8283C13.3971 12.2131 13.9201 12.6049 14.4384 13.0037C14.4614 13.0259 14.4789 13.0536 14.4894 13.0842C14.4999 13.1149 14.5032 13.1477 14.4989 13.1799C14.3082 13.8096 14.1066 14.4353 13.9136 15.065C13.8744 15.1936 13.8061 15.2267 13.6853 15.2219C13.3809 15.2162 13.0734 15.2211 12.7658 15.2211Z" fill="white"/>
</g>
<defs>
<clipPath id="clip0_137_2">
<rect width="26" height="27" fill="white"/>
</clipPath>
</defs>
</svg>
