<?xml version="1.0" encoding="UTF-8"?>
<svg xmlns="http://www.w3.org/2000/svg" xmlns:xlink="http://www.w3.org/1999/xlink" width="200pt" height="200pt" viewBox="0 0 200 200" version="1.1">
<g id="surface1">
<path style=" stroke:none;fill-rule:evenodd;fill:rgb(92.89856%,10.998535%,14.099121%);fill-opacity:1;" d="M 107.359375 55.578125 L 101.859375 14.542969 C 101.859375 14.542969 144.480469 7.457031 172.503906 35.484375 L 145.855469 68.054688 C 145.855469 68.054688 132.269531 54.46875 107.359375 55.578125 "/>
<path style=" stroke:none;fill-rule:evenodd;fill:rgb(96.099854%,50.999451%,12.199402%);fill-opacity:1;" d="M 138.804688 80.679688 L 167.253906 50.601563 C 167.253906 50.601563 199.558594 79.289063 195.386719 118.703125 L 153.300781 118.457031 C 153.300781 118.457031 155.324219 99.351563 138.804688 80.679688 "/>
<path style=" stroke:none;fill-rule:evenodd;fill:rgb(98.799133%,94.099426%,20.799255%);fill-opacity:1;" d="M 138.90625 121.21875 L 180.15625 124.734375 C 180.15625 124.734375 177.84375 167.878906 144.414063 189.167969 L 118.386719 156.097656 C 118.386719 156.097656 134.59375 145.777344 138.90625 121.21875 "/>
<path style=" stroke:none;fill-rule:evenodd;fill:rgb(30.599976%,72.499084%,39.199829%);fill-opacity:1;" d="M 107.257813 146.558594 L 130.207031 181.015625 C 130.207031 181.015625 95.019531 206.085938 57.539063 193.203125 L 67.191406 152.238281 C 67.191406 152.238281 85.359375 158.484375 107.257813 146.558594 "/>
<path style=" stroke:none;fill-rule:evenodd;fill:rgb(62.399292%,60.398865%,79.598999%);fill-opacity:1;" d="M 67.71875 137.589844 L 55.066406 177.007813 C 55.066406 177.007813 13.535156 165.105469 0.257813 127.761719 L 38.3125 109.789063 C 38.3125 109.789063 44.75 127.890625 67.71875 137.589844 "/>
<path style=" stroke:none;fill-rule:evenodd;fill:rgb(46.299744%,43.899536%,70.199585%);fill-opacity:1;" d="M 50.101563 101.074219 L 11.386719 115.734375 C 11.386719 115.734375 -5.179688 75.835938 15.761719 42.183594 L 53.527344 60.753906 C 53.527344 60.753906 43.375 77.066406 50.101563 101.074219 "/>
<path style=" stroke:none;fill-rule:evenodd;fill:rgb(77.598572%,34.098816%,62.69989%);fill-opacity:1;" d="M 67.6875 64.546875 L 32.097656 43.394531 C 32.097656 43.394531 52.988281 5.578125 92.355469 0.992188 L 101.359375 42.105469 C 101.359375 42.105469 82.273438 44.328125 67.6875 64.546875 "/>
<path style=" stroke:none;fill-rule:nonzero;fill:rgb(12.5%,7.499695%,8.198547%);fill-opacity:1;" d="M 86.207031 69.871094 C 82.316406 71.449219 78.828125 73.765625 75.832031 76.761719 C 72.835938 79.753906 70.523438 83.246094 68.941406 87.136719 C 67.417969 90.894531 66.644531 94.867188 66.644531 98.9375 C 66.644531 103.011719 67.417969 106.984375 68.941406 110.738281 C 70.523438 114.628906 72.839844 118.121094 75.832031 121.113281 C 78.828125 124.109375 82.316406 126.425781 86.207031 128.003906 C 89.964844 129.53125 93.9375 130.300781 98.007813 130.300781 C 102.082031 130.300781 106.054688 129.527344 109.8125 128.003906 C 113.703125 126.425781 117.195313 124.109375 120.1875 121.113281 C 123.179688 118.121094 125.496094 114.632813 127.078125 110.738281 C 128.601563 106.984375 129.371094 103.011719 129.371094 98.9375 C 129.371094 94.867188 128.601563 90.894531 127.078125 87.136719 C 125.496094 83.246094 123.179688 79.753906 120.1875 76.761719 C 117.195313 73.765625 113.703125 71.449219 109.8125 69.871094 C 106.054688 68.347656 102.082031 67.574219 98.007813 67.574219 C 93.9375 67.574219 89.964844 68.347656 86.207031 69.871094 "/>
<path style=" stroke:none;fill-rule:nonzero;fill:rgb(100%,100%,100%);fill-opacity:1;" d="M 74.484375 112.140625 C 72.972656 111.191406 71.582031 110.101563 70.351563 108.816406 C 68.46875 103.515625 68.148438 97.78125 69.394531 92.339844 C 69.984375 91.179688 70.648438 90.070313 71.40625 89.007813 C 71.636719 88.679688 71.851563 88.335938 72.101563 88.015625 L 79.179688 92.203125 C 79.179688 92.257813 79.179688 92.320313 79.179688 92.382813 C 79.164063 96.1875 79.546875 99.96875 80.320313 103.691406 C 80.320313 103.710938 80.324219 103.71875 80.328125 103.734375 L 74.835938 112.339844 C 74.71875 112.28125 74.601563 112.214844 74.484375 112.140625 "/>
<path style=" stroke:none;fill-rule:nonzero;fill:rgb(100%,100%,100%);fill-opacity:1;" d="M 95.527344 126.691406 C 96.75 127.3125 98.007813 127.839844 99.296875 128.269531 C 93.8125 128.507813 88.277344 127.222656 83.382813 124.414063 L 95.25 126.527344 C 95.339844 126.585938 95.429688 126.640625 95.527344 126.691406 "/>
<path style=" stroke:none;fill-rule:nonzero;fill:rgb(100%,100%,100%);fill-opacity:1;" d="M 95.484375 124.550781 L 81.484375 122.054688 C 79.84375 120.066406 78.371094 117.960938 77.105469 115.710938 C 76.785156 115.140625 76.421875 114.582031 76.152344 113.984375 L 81.632813 105.386719 C 81.757813 105.417969 81.890625 105.453125 82.046875 105.492188 C 85.476563 106.410156 88.96875 107.0625 92.484375 107.574219 C 92.6875 107.601563 92.859375 107.628906 93.007813 107.644531 L 99.578125 119.007813 C 98.4375 120.613281 97.285156 122.207031 96.105469 123.785156 C 95.910156 124.046875 95.703125 124.296875 95.484375 124.550781 "/>
<path style=" stroke:none;fill-rule:nonzero;fill:rgb(100%,100%,100%);fill-opacity:1;" d="M 118.78125 119.707031 C 117.664063 120.824219 116.480469 121.828125 115.242188 122.726563 C 115.039063 121.085938 114.683594 119.472656 114.183594 117.902344 L 121.195313 104.820313 C 123.128906 103.9375 124.992188 102.941406 126.722656 101.703125 C 126.949219 101.546875 127.136719 101.367188 127.28125 101.171875 C 126.773438 107.929688 123.9375 114.546875 118.78125 119.707031 "/>
<path style=" stroke:none;fill-rule:nonzero;fill:rgb(100%,100%,100%);fill-opacity:1;" d="M 118.46875 102.738281 C 118.726563 103.238281 118.984375 103.738281 119.246094 104.25 L 112.46875 116.886719 C 112.429688 116.894531 112.394531 116.902344 112.355469 116.90625 C 108.695313 117.59375 105.003906 117.957031 101.28125 117.976563 L 94.519531 106.285156 C 95.570313 104.328125 96.613281 102.371094 97.648438 100.40625 C 98.351563 99.074219 99.039063 97.734375 99.726563 96.398438 L 113.71875 94.960938 C 115.433594 97.472656 117.058594 100.039063 118.46875 102.738281 "/>
<path style=" stroke:none;fill-rule:nonzero;fill:rgb(100%,100%,100%);fill-opacity:1;" d="M 115.628906 87.75 C 114.964844 89.503906 114.253906 91.238281 113.546875 92.976563 L 99.917969 94.378906 C 99.757813 94.160156 99.585938 93.953125 99.410156 93.75 C 97.796875 91.925781 96.179688 90.113281 94.5625 88.296875 C 94.578125 88.28125 94.59375 88.265625 94.605469 88.25 C 93.953125 87.597656 93.296875 86.945313 92.648438 86.292969 L 96.441406 74.867188 C 96.703125 74.800781 96.964844 74.742188 97.234375 74.710938 C 99.296875 74.503906 101.359375 74.265625 103.429688 74.144531 C 104.695313 74.074219 105.96875 74.035156 107.257813 74.125 L 116.644531 84.707031 C 116.320313 85.726563 116.007813 86.753906 115.628906 87.75 "/>
<path style=" stroke:none;fill-rule:nonzero;fill:rgb(100%,100%,100%);fill-opacity:1;" d="M 118.78125 78.167969 C 121.371094 80.757813 123.375 83.71875 124.792969 86.875 C 123.039063 85.667969 121.164063 84.675781 119.191406 83.867188 C 118.882813 83.738281 118.570313 83.628906 118.25 83.515625 L 109.007813 73.101563 C 109.074219 72.652344 109.105469 72.203125 109.121094 71.746094 C 112.636719 73.179688 115.929688 75.320313 118.78125 78.167969 "/>
<path style=" stroke:none;fill-rule:nonzero;fill:rgb(100%,100%,100%);fill-opacity:1;" d="M 88.601563 71.199219 C 88.640625 71.226563 88.65625 71.25 88.679688 71.257813 C 90.789063 71.984375 92.710938 73.0625 94.523438 74.335938 L 90.976563 85.011719 C 90.960938 85.015625 90.941406 85.019531 90.925781 85.03125 C 90.199219 85.328125 89.460938 85.597656 88.746094 85.921875 C 85.804688 87.257813 82.933594 88.742188 80.234375 90.515625 L 73.238281 86.378906 C 73.25 86.160156 73.285156 85.9375 73.359375 85.742188 C 73.828125 84.488281 74.289063 83.230469 74.820313 82.003906 C 75.230469 81.058594 75.699219 80.148438 76.207031 79.253906 C 76.539063 78.886719 76.882813 78.523438 77.242188 78.167969 C 80.5625 74.847656 84.488281 72.488281 88.667969 71.09375 C 88.648438 71.128906 88.625 71.164063 88.601563 71.199219 "/>
</g>
</svg>
