<svg width="29" height="28" viewBox="0 0 29 28" fill="none" xmlns="http://www.w3.org/2000/svg">
<path d="M19.475 18.9962C19.3904 18.0088 19.3108 17.0714 19.2299 16.0937C19.3174 16.0634 19.4084 16.0441 19.5007 16.0364C19.904 16.0498 20.105 15.817 20.2987 15.4964C21.0905 14.1786 21.7144 12.7986 21.9657 11.2712C21.9978 11.1158 21.9838 10.9544 21.9253 10.8067C21.2149 9.32906 20.2658 7.97712 19.1159 6.80465C18.9874 6.68589 18.8204 6.61672 18.6452 6.60961C17.1049 6.6161 15.5696 6.78363 14.0646 7.10941C13.9761 7.1244 13.8927 7.16097 13.8219 7.21585C13.7511 7.27074 13.695 7.34223 13.6588 7.42392C12.9019 8.85411 12.2944 10.3577 11.846 11.9112C11.8069 12.0639 11.8185 12.2251 11.879 12.3708C12.5636 13.8733 13.5281 15.2333 14.7216 16.3789C14.8293 16.4593 14.9607 16.5022 15.0954 16.5008C15.3185 16.4973 15.5412 16.4802 15.7622 16.4496C15.875 17.409 15.9878 18.3599 16.1054 19.3583C15.9363 19.3388 15.8186 19.3351 15.7058 19.3107C12.3412 18.5951 9.94482 15.9791 9.49252 12.5743C9.19343 10.3057 9.68373 8.2553 11.1399 6.47186C12.3657 4.97854 13.9359 4.01185 15.8541 3.7717C18.2946 3.4645 20.4017 4.28491 22.1324 6.00619C25.5645 9.41948 25.3047 16.2375 19.8452 18.8365C19.7349 18.8877 19.6233 18.9328 19.475 18.9962Z" fill="white"/>
<path d="M0.231934 11.0932C0.294759 10.881 0.370905 10.673 0.459923 10.4703C0.733265 9.95099 0.972286 9.4012 1.31795 8.93431C1.96637 8.0688 2.83665 7.93593 3.77925 8.4784C4.48405 8.88555 5.005 9.47679 5.45607 10.1412C6.39009 11.5345 6.91962 13.0827 7.14638 14.7333C7.40133 16.5923 7.36701 18.4452 6.87059 20.264C6.71362 20.8203 6.49232 21.3566 6.21113 21.8622C5.48672 23.1812 4.15555 23.1836 3.15289 22.6472C2.40151 22.2449 1.97127 21.5574 1.58761 20.7565C1.76412 20.7736 1.88915 20.7833 2.01417 20.798C2.7867 20.8847 3.56863 20.8318 4.32226 20.6419C4.41177 20.6303 4.49485 20.5894 4.55834 20.5256C4.62183 20.4618 4.66212 20.3788 4.67282 20.2896C5.01428 18.6473 5.19409 16.9759 5.2097 15.2989C5.21052 15.1271 5.18192 14.9564 5.12512 14.7942C4.57021 13.2415 3.78076 11.7818 2.78394 10.4654C2.66137 10.2972 2.53879 10.2216 2.32796 10.3045C1.75064 10.5276 1.16473 10.7275 0.581272 10.9433C0.490566 10.9774 0.399861 11.0225 0.231934 11.0932Z" fill="white"/>
<path d="M11.575 27.8415C10.7402 27.6562 9.9815 27.4331 9.41766 26.8261C8.85381 26.219 8.77782 25.3754 9.2485 24.6318C9.61623 24.0601 10.1359 23.6566 10.7108 23.3189C12.2467 22.4168 13.9345 21.9694 15.6812 21.7208C17.298 21.4916 18.9 21.5501 20.4518 22.0938C20.9308 22.2621 21.3844 22.4947 21.8002 22.785C22.565 23.3238 22.7268 24.2478 22.2561 25.0548C21.9424 25.5948 21.4631 25.9679 20.9078 26.3567C20.9348 26.0812 20.9703 25.8691 20.974 25.6558C20.9814 25.2401 20.974 24.8256 20.974 24.4099C20.9792 24.3724 20.9764 24.3342 20.9656 24.2978C20.9549 24.2614 20.9365 24.2277 20.9117 24.1989C20.8869 24.1701 20.8563 24.1469 20.8218 24.1307C20.7873 24.1146 20.7498 24.1059 20.7117 24.1052C19.1427 23.8614 17.575 23.6066 16.0061 23.3652C15.8652 23.3485 15.7224 23.3652 15.5893 23.414C14.0184 23.9596 12.523 24.7001 11.1386 25.618C10.9646 25.7314 10.9069 25.8496 10.9707 26.0447C11.1313 26.5323 11.282 27.0284 11.4414 27.5185C11.4634 27.616 11.5125 27.7013 11.575 27.8415Z" fill="white"/>
<path d="M17.0862 8.93917C17.593 8.937 18.0891 9.08461 18.5114 9.36327C18.9338 9.64193 19.2634 10.0391 19.4584 10.5043C19.6534 10.9696 19.7051 11.482 19.6068 11.9765C19.5086 12.471 19.2648 12.9253 18.9065 13.2818C18.5482 13.6383 18.0915 13.8809 17.5943 13.9789C17.0971 14.0768 16.5819 14.0257 16.114 13.832C15.6461 13.6383 15.2466 13.3107 14.9662 12.8908C14.6858 12.4709 14.5371 11.9776 14.5391 11.4735C14.5439 10.8031 14.8138 10.1614 15.2904 9.68719C15.767 9.21297 16.412 8.94428 17.0862 8.93917Z" fill="white"/>
<path d="M27.5012 10.0973C27.6005 10.402 27.7108 10.7068 27.8003 11.0103C28.4291 13.1778 28.3249 15.3476 27.7905 17.5126C27.5098 18.6488 27.1531 19.7605 26.5978 20.804C26.465 21.0432 26.3134 21.2714 26.1443 21.4867C26.0842 21.5659 25.9629 21.5988 25.8697 21.6537C25.8081 21.568 25.7609 21.4729 25.73 21.3721C25.6928 21.1215 25.674 20.8684 25.6736 20.6151C25.6964 18.7468 25.8735 16.8835 26.2031 15.0441C26.4483 13.6166 26.7878 12.205 27.1028 10.7909C27.1567 10.5471 27.2977 10.3216 27.3982 10.0875L27.5012 10.0973Z" fill="white"/>
<path d="M3.59058 4.7445C4.09436 3.9375 4.79058 3.44501 5.47823 2.8745C5.8006 3.26459 6.18794 3.14269 6.59243 3.03419C7.79121 2.71115 8.99613 2.41005 10.1974 2.09432C10.3836 2.04258 10.5652 1.97572 10.7404 1.8944C11.752 1.44417 12.7645 0.989872 13.7778 0.531515C13.8672 0.491287 13.9531 0.441307 14.1112 0.360851L13.4051 0.0768158C14.1406 -0.114573 15.5539 0.0658445 16.2109 0.460811C16.066 0.598804 15.907 0.721372 15.7365 0.826522C14.7841 1.2861 13.8415 1.77371 12.8621 2.16746C10.3385 3.20609 7.73099 4.03066 5.0676 4.63235C4.7383 4.69881 4.40564 4.74764 4.07107 4.77863C3.91023 4.78041 3.74952 4.76899 3.59058 4.7445Z" fill="white"/>
<path d="M2.99344 16.457C2.85861 16.9836 2.78752 17.5358 2.57669 18.0295C2.20896 18.8828 1.42448 18.9816 0.885155 18.2355C-0.070929 16.9129 -0.256017 15.4439 0.347051 13.9299C0.702518 13.0364 1.51519 12.9717 2.10477 13.7397C2.71765 14.5333 2.88925 15.4635 2.91499 16.4338L2.99344 16.457Z" fill="white"/>
<path d="M15.5256 28C15.0353 27.8781 14.5217 27.8208 14.0547 27.6343C13.3879 27.3698 13.3033 26.7919 13.8426 26.3214C14.1186 26.0813 14.432 25.8874 14.7705 25.7472C15.8614 25.3035 16.9928 25.1499 18.1499 25.4705C18.5274 25.5753 18.9135 25.7338 18.9834 26.1812C19.0533 26.6286 18.7382 26.898 18.4122 27.1186C17.5517 27.7099 16.5662 27.8903 15.5256 28Z" fill="white"/>
<path d="M26.1404 7.018C23.7919 5.26503 21.751 3.16951 19.5508 1.241C22.3798 2.4454 24.6278 4.31174 26.1404 7.018Z" fill="white"/>
<path d="M6.88159 2.00775C8.26698 1.15475 9.8083 0.58262 11.4169 0.324265C10.026 1.16615 8.48695 1.73745 6.88159 2.00775Z" fill="white"/>
</svg>
