<svg width="22" height="28" viewBox="0 0 22 28" fill="none" xmlns="http://www.w3.org/2000/svg">
<path d="M10.8156 4.49388C9.62539 4.59493 8.09277 5.00476 7.03733 5.49879L6.5433 5.72896L6.84084 5.83563C7.32926 6.00405 7.76716 6.39142 8.01417 6.85738C8.12084 7.0651 8.07593 7.10439 7.87944 6.96966C7.48084 6.68896 6.89137 6.56545 6.46471 6.67212C6.02681 6.77878 5.75173 7.00896 5.54401 7.44685C5.38682 7.78369 5.36997 7.87913 5.36997 8.32825C5.36997 8.84474 5.47103 9.29947 5.67874 9.72614C5.73488 9.84965 5.78541 9.95631 5.78541 9.96754C5.78541 10.0967 5.20717 9.59702 5.0219 9.30509C4.64577 8.71 4.53349 7.76123 4.75805 7.10439C4.8198 6.93036 4.85348 6.7844 4.83103 6.7844C4.74682 6.7844 3.55665 7.84544 3.18051 8.24965C2.7763 8.68755 2.31034 9.28263 1.92859 9.84403C1.60859 10.3156 1.17631 11.1184 1.20999 11.1577C1.23245 11.1746 1.49069 11.2307 1.78823 11.2812C2.19806 11.343 2.33279 11.3879 2.32718 11.4496C2.32157 11.4946 2.20929 11.6854 2.06894 11.8651C1.24368 12.9598 0.42403 14.8517 0.120874 16.3675C0.0198216 16.8559 -0.0307045 17.3949 0.0198216 17.3949C0.0254356 17.3949 0.435258 17.2714 0.929291 17.1142C1.42332 16.9626 1.86683 16.8335 1.91736 16.8335C2.00157 16.8335 2.00157 16.8672 1.92297 17.2377C1.8556 17.5465 1.83315 18.0349 1.83315 19.2475C1.82753 20.9542 1.87244 21.3921 2.16437 22.5991C2.29911 23.1492 2.66402 24.1036 2.75946 24.1654C2.91104 24.2552 4.17419 23.0257 5.00506 21.9871C5.24085 21.6896 5.60576 21.2012 5.81348 20.9092C6.01558 20.6117 6.20646 20.3703 6.22892 20.3703C6.25699 20.3703 6.29067 20.4377 6.31313 20.5219C6.77348 22.6215 6.80155 23.8341 6.43102 25.9843C6.35804 26.3997 6.28506 26.8096 6.2626 26.8882C6.22892 27.0229 6.25699 27.0454 6.72295 27.2587C7.43032 27.5843 7.64926 27.6629 8.31172 27.8145C9.05838 27.9885 10.2991 28.0503 11.0963 27.9548C12.5391 27.7808 14.2513 27.1576 15.318 26.4222C15.4527 26.3324 15.5762 26.2706 15.5987 26.2875C15.6155 26.3099 15.711 26.6412 15.812 27.0285C15.9131 27.4215 16.0085 27.7527 16.0254 27.7696C16.0422 27.7864 16.3005 27.6124 16.6036 27.3822C18.7032 25.7822 19.9608 23.6152 20.3145 20.9878L20.3538 20.6791L20.6682 21.0159C20.8422 21.2012 21.0611 21.4426 21.151 21.5492L21.325 21.7401L21.4653 21.291C22.3636 18.4447 22.1278 15.503 20.7748 12.7633C20.3706 11.9493 19.6576 10.7647 19.5453 10.7254C19.5061 10.7142 19.4836 10.7872 19.478 10.9219C19.4724 11.3879 19.4275 11.3823 18.9503 10.8546L18.5068 10.3661L18.6583 10.2314C18.7538 10.1528 18.8099 10.0461 18.8099 9.9507C18.8099 9.77666 18.619 9.35561 18.5011 9.25456C18.372 9.14789 18.0632 9.23772 17.8106 9.45105L17.5804 9.65316L17.3054 9.45105C17.064 9.27702 16.6878 9.08614 16.5868 9.08614C16.5699 9.08614 16.6485 9.20965 16.7552 9.36123C16.8675 9.51281 17.0415 9.77666 17.1426 9.94508C17.2604 10.1416 17.4906 10.383 17.7489 10.5907C18.3383 11.0735 18.939 11.6967 18.7538 11.6405C17.9173 11.4047 16.9461 11.3879 16.2443 11.6124L15.8457 11.736L15.6043 11.4665C15.4696 11.3149 15.0878 10.9107 14.7566 10.5682C14.4029 10.2089 14.1503 9.90579 14.1503 9.83842C14.1503 9.64193 14.2626 9.32754 14.4029 9.11983L14.5377 8.91772H14.4141C14.2682 8.91772 13.8696 9.09175 13.6394 9.25456L13.4766 9.37246L13.0949 9.14789C12.8815 9.01877 12.4885 8.8279 12.2135 8.71562C11.7419 8.52474 11.7082 8.51912 11.4331 8.58649C11.2759 8.62018 11.0121 8.71 10.8436 8.78298C10.5292 8.92333 9.8275 9.39491 9.8275 9.47351C9.8275 9.52403 10.664 9.97315 10.9054 10.0518C11.0064 10.0798 11.5117 10.1247 12.0282 10.1472C13.1398 10.1977 13.0275 10.1416 14.0829 11.2082C14.7398 11.8819 14.8801 12.0616 14.6724 11.9774C14.2962 11.8314 13.7573 11.7809 12.4885 11.7809C11.7419 11.7809 10.9952 11.7528 10.8324 11.7247C9.88364 11.5507 9.03592 10.7423 8.90119 9.89456L8.8675 9.66438L8.44084 9.60263C8.20505 9.56333 7.99733 9.51842 7.98049 9.50719C7.93558 9.45667 8.48575 8.92333 8.81698 8.69316C8.9854 8.58088 9.26048 8.4293 9.42329 8.35632L9.71522 8.23281L9.46259 8.00825C9.16504 7.74439 9.16504 7.73316 9.67592 7.39071C10.3552 6.93036 11.3601 6.53176 12.292 6.35773L12.8198 6.25668L13.297 6.5037C13.5608 6.64405 14.1054 6.97527 14.5096 7.24475C15.0598 7.60404 15.2619 7.71071 15.3068 7.6658C15.3798 7.5872 15.5313 7.13808 15.5875 6.82369C15.6099 6.70019 15.6548 6.61598 15.6998 6.61598C15.812 6.61598 16.6204 7.07632 17.1538 7.44685C17.7096 7.83422 18.1306 8.17106 18.5236 8.54158C18.8661 8.86719 18.8661 8.88404 18.5292 7.99141C18.4001 7.65457 18.2597 7.18299 18.2148 6.95282C18.1194 6.47001 18.0408 6.36335 17.4401 5.94791C16.7271 5.45949 15.4976 4.92055 14.7903 4.78581C14.5713 4.74651 14.5713 4.75212 14.6836 5.0216C14.7622 5.21247 14.8969 5.88615 14.8633 5.92545C14.852 5.93107 14.605 5.70651 14.3075 5.42019C13.6506 4.79142 13.2408 4.52757 12.8085 4.47704C12.3931 4.4209 11.5061 4.43213 10.8156 4.49388ZM16.059 12.9093C16.1994 12.9991 16.5306 13.19 16.8057 13.3303L17.2941 13.5773V14.3296V15.0819L16.9741 15.357C15.8738 16.2889 14.6555 16.9401 13.9987 16.9458H13.7629L13.5103 16.4798C12.337 14.3184 12.4212 14.4924 12.5559 14.3914C12.9264 14.0995 14.0212 13.3977 14.3973 13.2181C14.824 13.0047 15.5538 12.7409 15.7222 12.7352C15.7671 12.7352 15.9187 12.8138 16.059 12.9093ZM19.4668 13.2742C19.6857 13.9086 19.7811 14.5991 19.7475 15.2335C19.7138 15.7612 19.5678 16.4124 19.4275 16.6089C19.3713 16.6819 19.3545 16.6819 19.2983 16.5865C18.9503 16.0419 18.7482 15.7612 18.4899 15.4861L18.1924 15.1605V14.3745V13.5886L18.7145 13.2237C18.9952 13.0216 19.2534 12.8644 19.2815 12.87C19.3096 12.8756 19.3938 13.0552 19.4668 13.2742ZM18.3608 17.0075C18.4618 17.1591 18.6078 17.4454 18.6808 17.6307L18.8211 17.9731L18.7201 18.3436C18.5573 18.9556 18.1755 19.6405 17.7769 20.0559C17.5804 20.258 17.3896 20.4264 17.3559 20.4264C17.3222 20.4264 17.2941 20.3254 17.2941 20.185C17.2941 19.9212 17.1426 18.877 17.0976 18.7984C17.0808 18.7703 16.9461 18.8377 16.8057 18.9443C16.4801 19.1914 15.9019 19.4889 15.5145 19.6012L15.2169 19.691L15.0205 19.3261C14.9138 19.1296 14.7341 18.804 14.6219 18.6019C14.5152 18.3998 14.4366 18.2145 14.4534 18.1865C14.4703 18.1584 14.5882 18.1247 14.7117 18.1022C15.1215 18.0349 16.0534 17.5128 16.6822 16.9963C16.9517 16.7717 17.0134 16.7605 17.8611 16.7324L18.1811 16.7212L18.3608 17.0075Z" fill="white"/>
<path d="M9.51875 1.42864C9.15384 2.4953 9.00787 2.85459 8.95174 2.83214C8.90682 2.8153 8.24998 2.37179 7.49209 1.84407C6.72859 1.31636 6.09982 0.895305 6.08859 0.906533C6.07736 0.917761 6.16157 1.52407 6.27946 2.2539C6.39736 2.98933 6.48157 3.60126 6.47034 3.61249C6.4535 3.62933 6.35806 3.56196 6.25701 3.47214C5.8528 3.11845 4.52228 2.29881 4.46052 2.36618C4.44368 2.38302 4.53351 2.54582 4.66263 2.73109C4.92087 3.11284 5.48789 4.27494 5.67877 4.8195C5.74613 5.0216 5.81912 5.20687 5.84157 5.22932C5.86403 5.25739 6.1728 5.1395 6.52087 4.97108C8.05911 4.23564 9.3784 3.88196 11.0963 3.74161C12.1124 3.6574 13.3307 3.74161 14.4591 3.97178C14.8914 4.05599 15.2619 4.12336 15.2787 4.11213C15.3012 4.10091 15.3293 3.93249 15.3517 3.74161C15.4359 2.95003 15.6773 1.95074 15.9412 1.2939C16.0029 1.13671 16.0422 1.00197 16.0198 1.00197C15.9356 1.00197 15.1215 1.78793 14.7286 2.24267C14.4928 2.51775 14.2963 2.7367 14.285 2.73109C14.2794 2.71986 14.2289 2.10793 14.184 1.3725C14.1335 0.631446 14.0829 0.013905 14.0717 0.00267696C14.0493 -0.0197787 13.965 0.0700455 12.6345 1.5353C12.1293 2.09109 11.7026 2.55144 11.6858 2.56267C11.6633 2.56828 11.2984 2.00688 10.8717 1.31074C10.4394 0.614604 10.0745 0.0307474 10.0521 0.0195193C10.0296 0.00267696 9.78822 0.637061 9.51875 1.42864Z" fill="white"/>
</svg>
