<svg width="22" height="15" viewBox="0 0 22 15" fill="none" xmlns="http://www.w3.org/2000/svg">
<g clip-path="url(#clip0_167_6)">
<path d="M10.999 15H1.24683C0.602247 15 0.146998 14.6533 0.0230736 14.061C0.00412601 13.953 -0.0036621 13.8432 -0.000162221 13.7336C-0.000162221 9.57786 -0.000162221 5.42185 -0.000162221 1.26555C-0.000162221 0.477881 0.467996 0 1.24683 0H20.7098C21.5463 0 22.0007 0.461159 22.0007 1.31043V13.7125C22.0007 14.5292 21.5377 15 20.7313 15H10.999ZM21.1332 1.4398C21.0472 1.49965 20.9869 1.54277 20.9258 1.58942C18.0234 3.81542 15.1215 6.03908 12.2201 8.26038C11.468 8.83595 10.5239 8.82451 9.77178 8.24894L1.04373 1.56477C0.990371 1.52429 0.932712 1.48821 0.871611 1.44684V13.4651C0.918082 13.4088 0.941318 13.3771 0.963693 13.3534L5.53254 7.59153C5.73047 7.34159 5.97832 7.2879 6.18314 7.44984C6.38796 7.61177 6.40259 7.87139 6.20208 8.12485L1.7976 13.6852C1.68831 13.8225 1.58331 13.9633 1.47058 14.1094H20.5351C20.4628 14.0214 20.4103 13.9474 20.3561 13.8797C18.8335 11.9605 17.3114 10.039 15.7899 8.11517C15.5997 7.87491 15.6091 7.62145 15.8096 7.45512C16.0102 7.28878 16.2649 7.33279 16.4482 7.56865C17.6197 9.04659 18.7904 10.5248 19.9603 12.0033C20.3406 12.4839 20.7227 12.9644 21.1332 13.4819V1.4398ZM20.4215 0.888876H1.58676C1.65388 0.943441 1.69261 0.976883 1.7322 1.00593L10.2115 7.50704C10.7485 7.91892 11.2442 7.92156 11.7804 7.51232L19.1109 1.89568L20.4215 0.888876Z" fill="white" fill-opacity="0.3"/>
</g>
<defs>
<clipPath id="clip0_167_6">
<rect width="22" height="15" fill="white"/>
</clipPath>
</defs>
</svg>
