<svg width="22" height="22" viewBox="0 0 22 22" fill="none" xmlns="http://www.w3.org/2000/svg">
<g clip-path="url(#clip0_167_17)">
<path d="M10.9901 22H2.26788C0.918853 22 0 21.0854 0 19.7425C0 18.2037 0 16.6646 0 15.1252C0 13.8235 0.928317 12.8944 2.22917 12.8944H8.93129C8.98119 12.8944 9.03195 12.8944 9.08185 12.8944C9.19594 12.8958 9.30481 12.9424 9.38452 13.024C9.46422 13.1057 9.50823 13.2156 9.50686 13.3297C9.50549 13.4438 9.45886 13.5527 9.37722 13.6324C9.29558 13.7121 9.18562 13.7561 9.07153 13.7547C9.01474 13.7547 8.9571 13.7547 8.89946 13.7547H2.26272C1.39463 13.7547 0.86035 14.2898 0.86035 15.1596C0.86035 16.6921 0.86035 18.224 0.86035 19.7554C0.86035 20.5951 1.40323 21.1414 2.23691 21.1414H19.7691C20.5925 21.1414 21.1388 20.5925 21.1397 19.7649C21.1397 18.2163 21.1397 16.6703 21.1397 15.1269C21.1397 14.301 20.5933 13.7504 19.77 13.7504H13.0885C13.0171 13.7538 12.9455 13.7521 12.8743 13.7452C12.774 13.7283 12.6831 13.6764 12.6174 13.5988C12.5518 13.5211 12.5158 13.4227 12.5158 13.3211C12.5158 13.2194 12.5518 13.1211 12.6174 13.0434C12.6831 12.9658 12.774 12.9139 12.8743 12.897C12.9455 12.8901 13.0171 12.8884 13.0885 12.8918H19.7485C21.0803 12.8918 22 13.8123 22 15.1441C22 16.6829 22 18.2217 22 19.7606C22 21.0751 21.0743 21.9974 19.7553 21.9974L10.9901 22Z" fill="white" fill-opacity="0.3"/>
<path d="M7.99172 3.7398V3.05154C7.98362 2.29517 8.26002 1.56336 8.76612 1.00118C9.27223 0.439007 9.9711 0.0875018 10.7242 0.0163479C12.2169 -0.142811 13.6399 0.903334 13.9419 2.41663C14.0279 2.83991 14.0056 3.28297 14.0348 3.73033C14.2069 3.76044 14.3962 3.78023 14.5786 3.82927C14.9546 3.93062 15.2871 4.1524 15.5252 4.46066C15.7632 4.76892 15.8937 5.14668 15.8966 5.53614C15.9018 7.05373 15.9018 8.57133 15.8966 10.0889C15.8912 10.5599 15.7008 11.0098 15.3664 11.3416C15.0321 11.6733 14.5807 11.8603 14.1097 11.862C12.0339 11.8666 9.95733 11.8666 7.87987 11.862C7.40918 11.8573 6.95916 11.6679 6.62671 11.3347C6.29426 11.0015 6.10598 10.551 6.10239 10.0803C6.09723 8.59886 6.10239 7.1174 6.10239 5.63507C6.10239 4.61044 6.76658 3.87142 7.78696 3.75872C7.84804 3.75184 7.91515 3.74754 7.99172 3.7398ZM11.0029 11.0043H14.0081C14.6448 11.0043 15.0354 10.612 15.0354 9.97192C15.0354 8.53462 15.0354 7.09675 15.0354 5.6583C15.0354 5.00704 14.6482 4.61388 13.9961 4.61302C11.9932 4.61302 9.98974 4.61302 7.9857 4.61302C7.34904 4.61302 6.9593 5.01134 6.9593 5.6454C6.9593 7.08384 6.9593 8.52172 6.9593 9.95902C6.9593 10.612 7.34646 11 7.99774 11L11.0029 11.0043ZM13.1418 3.7398C13.1418 3.44385 13.1624 3.16424 13.1375 2.88808C13.0583 2.00798 12.6213 1.3636 11.7945 1.03238C10.9677 0.701159 10.1916 0.860318 9.52744 1.46254C8.84519 2.08025 8.79529 2.89066 8.86584 3.74324L13.1418 3.7398Z" fill="white" fill-opacity="0.3"/>
<path d="M11.4297 16.6987C11.7128 16.537 11.958 16.395 12.2041 16.2556C12.4794 16.0991 12.7203 16.1446 12.8571 16.3726C12.9939 16.6006 12.9052 16.8415 12.6377 17.0007C12.3933 17.1452 12.1464 17.2846 11.8634 17.4463C12.155 17.6184 12.4183 17.7663 12.679 17.9212C12.7569 17.9606 12.8207 18.023 12.8618 18.1C12.9029 18.1769 12.9193 18.2647 12.9087 18.3514C12.8889 18.5286 12.7917 18.6766 12.6153 18.7075C12.4843 18.7272 12.3504 18.7074 12.2307 18.6507C11.9683 18.5243 11.7214 18.366 11.4246 18.1956V18.8968C11.4246 18.9897 11.4289 19.0835 11.4246 19.1755C11.4221 19.288 11.3757 19.395 11.2953 19.4736C11.2149 19.5522 11.1069 19.5963 10.9944 19.5962C10.8818 19.5963 10.7737 19.5521 10.6932 19.4733C10.6128 19.3945 10.5665 19.2873 10.5642 19.1747C10.5565 18.8624 10.5642 18.5501 10.5642 18.1974C10.2872 18.3565 10.0429 18.4985 9.7968 18.6378C9.51116 18.7987 9.25908 18.7505 9.13003 18.5122C9.00098 18.2739 9.09045 18.052 9.36662 17.8902C9.59462 17.7569 9.82433 17.6253 10.0549 17.4928C10.0757 17.4771 10.0955 17.4601 10.1143 17.442C9.851 17.2871 9.59806 17.1366 9.33995 16.9903C9.16186 16.8897 9.05518 16.7469 9.08185 16.5378C9.1197 16.2255 9.43717 16.0732 9.73141 16.2247C9.87079 16.2961 10.0041 16.3804 10.1409 16.4578L10.5651 16.6978C10.5651 16.383 10.5651 16.1016 10.5651 15.8194C10.5651 15.4934 10.7372 15.2955 11.0047 15.3033C11.2723 15.311 11.4237 15.5037 11.4246 15.8194C11.4306 16.0947 11.4297 16.3735 11.4297 16.6987Z" fill="white" fill-opacity="0.3"/>
<path d="M4.24417 17.4429C3.96541 17.282 3.71849 17.1409 3.46985 16.9964C3.1997 16.8381 3.11883 16.5972 3.2539 16.3701C3.38898 16.143 3.62558 16.0991 3.8897 16.2462C4.15383 16.3933 4.39387 16.5335 4.68036 16.6979C4.68036 16.3778 4.68036 16.0956 4.68036 15.8117C4.68036 15.4986 4.84383 15.3033 5.10452 15.2998C5.3652 15.2964 5.53899 15.4943 5.53985 15.8221C5.53985 16.0999 5.53985 16.3778 5.53985 16.6987C5.82463 16.5361 6.07585 16.377 6.3417 16.2471C6.4612 16.1897 6.59495 16.1687 6.72628 16.1868C6.89835 16.2161 7.00159 16.3589 7.0231 16.5396C7.03522 16.6221 7.02187 16.7063 6.98482 16.781C6.94776 16.8558 6.88878 16.9174 6.81575 16.9577C6.60927 17.085 6.3959 17.202 6.18598 17.325C6.12661 17.3594 6.06983 17.3982 5.98638 17.4506C6.26771 17.6141 6.52753 17.7595 6.78134 17.9152C7.03514 18.0709 7.10139 18.3393 6.94739 18.5544C6.88568 18.6429 6.79221 18.7042 6.68643 18.7256C6.58065 18.7469 6.47073 18.7266 6.37955 18.6688C6.11113 18.5226 5.84786 18.366 5.54329 18.1905C5.54329 18.508 5.54329 18.7927 5.54329 19.0698C5.54329 19.3958 5.37122 19.5954 5.10624 19.5902C4.84125 19.5851 4.68553 19.3915 4.68381 19.0741C4.68381 18.7945 4.68381 18.5157 4.68381 18.1905L4.28288 18.4185C4.15899 18.4899 4.03596 18.5622 3.91121 18.6327C3.63332 18.7884 3.395 18.7446 3.25735 18.5166C3.11969 18.2886 3.20659 18.0443 3.49222 17.8791C3.6772 17.7715 3.86389 17.6657 4.04973 17.559C4.10479 17.5341 4.15641 17.498 4.24417 17.4429Z" fill="white" fill-opacity="0.3"/>
<path d="M16.0232 17.4472C15.7401 17.2837 15.4932 17.1427 15.2489 16.999C14.9796 16.8398 14.8961 16.5998 15.0295 16.3727C15.1628 16.1456 15.4063 16.0982 15.6825 16.254C15.9303 16.3933 16.1746 16.5361 16.4568 16.6987C16.4568 16.3796 16.4568 16.0965 16.4568 15.8152C16.4568 15.4995 16.616 15.3059 16.8767 15.299C17.1373 15.2921 17.3146 15.4917 17.3163 15.8152C17.3163 16.0939 17.3163 16.3735 17.3163 16.697L17.9435 16.3357C18.0054 16.3004 18.0674 16.2634 18.1302 16.2299C18.378 16.0991 18.6206 16.155 18.7453 16.3718C18.8701 16.5886 18.7995 16.8286 18.5586 16.974C18.3005 17.1289 18.0424 17.2743 17.7551 17.442C18.0476 17.6141 18.3117 17.7629 18.5733 17.9187C18.6509 17.9581 18.7143 18.0207 18.7548 18.0978C18.7953 18.1748 18.811 18.2625 18.7995 18.3488C18.7789 18.5269 18.6808 18.6732 18.5044 18.7033C18.3733 18.7224 18.2394 18.702 18.1199 18.6448C17.8618 18.5174 17.6105 18.36 17.3163 18.1905C17.3163 18.5123 17.3223 18.8005 17.3163 19.0878C17.3161 19.1935 17.2908 19.2976 17.2423 19.3915C17.1998 19.4722 17.1299 19.535 17.0452 19.5686C16.9605 19.6022 16.8665 19.6044 16.7803 19.5748C16.6881 19.5544 16.6059 19.5025 16.5478 19.4281C16.4897 19.3537 16.4593 19.2614 16.462 19.167C16.4559 18.8547 16.462 18.5433 16.462 18.1931C16.1832 18.3523 15.9389 18.4951 15.692 18.6336C15.4115 18.7919 15.1757 18.7514 15.0372 18.5235C14.8987 18.2955 14.983 18.0494 15.2661 17.8843C15.501 17.7475 15.7444 17.6098 16.0232 17.4472Z" fill="white" fill-opacity="0.3"/>
<path d="M11.0125 13.753C10.9553 13.7541 10.8984 13.7439 10.8452 13.7228C10.7921 13.7017 10.7436 13.6701 10.7028 13.6301C10.6619 13.59 10.6294 13.5422 10.6073 13.4895C10.5851 13.4367 10.5737 13.3801 10.5737 13.3228C10.5765 13.2111 10.6215 13.1045 10.6997 13.0247C10.778 12.9448 10.8836 12.8977 10.9953 12.8927C11.0523 12.8919 11.1089 12.9024 11.1618 12.9237C11.2147 12.9449 11.2628 12.9765 11.3034 13.0165C11.344 13.0565 11.3762 13.1042 11.3982 13.1568C11.4202 13.2094 11.4315 13.2658 11.4315 13.3228C11.4325 13.3787 11.4225 13.4342 11.4019 13.4861C11.3814 13.538 11.3507 13.5853 11.3118 13.6253C11.2728 13.6653 11.2263 13.6972 11.1749 13.7191C11.1235 13.741 11.0684 13.7526 11.0125 13.753Z" fill="white" fill-opacity="0.3"/>
<path d="M10.5704 7.8039C10.5704 7.51139 10.5704 7.21802 10.5704 6.92465C10.5675 6.86576 10.5764 6.80688 10.5965 6.75146C10.6167 6.69605 10.6477 6.64522 10.6878 6.60195C10.7279 6.55868 10.7762 6.52385 10.8299 6.49949C10.8836 6.47513 10.9416 6.46173 11.0005 6.46008C11.2406 6.46008 11.4264 6.65796 11.4307 6.92723C11.4341 7.5134 11.4341 8.09927 11.4307 8.68486C11.4307 8.9636 11.2586 9.15115 11.0109 9.15717C10.7631 9.1632 10.5755 8.97049 10.5721 8.68314C10.5686 8.39579 10.5704 8.09726 10.5704 7.8039Z" fill="white" fill-opacity="0.3"/>
</g>
<defs>
<clipPath id="clip0_167_17">
<rect width="22" height="22" fill="white"/>
</clipPath>
</defs>
</svg>
