<svg width="26" height="28" viewBox="0 0 26 28" fill="none" xmlns="http://www.w3.org/2000/svg">
<g clip-path="url(#clip0_237_218)">
<path d="M12.1627 0C12.2035 0.0124592 12.2453 0.0210863 12.2877 0.0257691C13.2259 0.0425624 14.1472 0.183569 15.0563 0.407383C16.2695 0.704281 17.4356 1.16811 18.5213 1.7856C19.3305 2.24419 20.0917 2.78272 20.7936 3.39312C21.6629 4.14976 22.4316 5.01471 23.0809 5.96685C23.2312 6.18777 23.376 6.41245 23.5129 6.64582C20.3031 3.30742 16.3902 1.55252 11.7628 1.54991C7.13016 1.54672 3.21731 3.30452 -0.0012207 6.66435C0.00562131 6.63538 0.0153201 6.60715 0.0277333 6.58009C0.767798 5.39645 1.64713 4.32863 2.70135 3.41136C4.79714 1.5703 7.4055 0.413668 10.177 0.0964169C10.5062 0.0579081 10.8389 0.0498009 11.1701 0.0260586C11.2217 0.0222946 11.2726 0.00897575 11.3242 0H12.1627Z" fill="white"/>
<path d="M20.6404 9.48881C20.5304 8.62511 20.3775 7.73651 20.1438 6.85833C21.8776 8.44356 23.0213 10.3794 23.5514 12.6645C24.0816 14.9495 23.9354 17.1967 23.1461 19.4067C24.0553 18.0171 24.6811 16.4615 24.9876 14.8294C25.2997 13.1891 25.2942 11.5492 25.0026 9.91125C26.5557 14.3123 26.1631 18.5025 23.4753 22.3597C20.3054 26.9104 14.9512 28.7253 10.0143 27.7394C4.91053 26.7199 1.58951 22.9837 0.356934 19.7403C0.584223 20.0362 0.806011 20.3382 1.03996 20.6297C2.43621 22.3512 4.23393 23.7034 6.27514 24.5675C7.52242 25.0991 8.84285 25.4393 10.1918 25.5765C10.4309 25.6011 10.6715 25.633 10.911 25.6315C11.0825 25.626 11.2524 25.5968 11.4159 25.5447C11.5897 25.4934 11.7547 25.4103 11.9524 25.3296C11.7437 25.1813 11.5523 25.0496 11.3655 24.9115C10.576 24.3266 9.76902 23.7634 9.00348 23.1487C7.75907 22.1458 6.67967 20.9538 5.80464 19.6163C5.01609 18.4256 4.41568 17.1205 4.02454 15.7469C3.79298 14.9362 3.63788 14.1055 3.56128 13.2659C3.49639 12.5363 3.48893 11.8027 3.53898 11.072C3.58068 10.4423 3.75672 9.84118 3.92002 9.23748C3.93015 9.19984 3.96808 9.16684 3.99935 9.13817C5.0417 8.18443 6.22418 7.47245 7.58125 7.06159C8.49504 6.78508 9.42215 6.56647 10.3736 6.47498C11.0291 6.41186 11.6872 6.347 12.3448 6.3389C13.1844 6.32876 14.0148 6.4466 14.8412 6.58819C15.8497 6.76191 16.8329 7.0225 17.78 7.41685C18.6799 7.79152 19.4883 8.30256 20.1832 8.98732C20.2623 9.06521 20.3517 9.13209 20.4256 9.21432C20.5075 9.30292 20.575 9.4031 20.6404 9.48881ZM6.9489 12.1065C6.98625 12.5023 7.01636 12.9688 7.07659 13.4312C7.24655 14.7356 7.67072 15.958 8.3025 17.1084C9.22903 18.7949 10.523 20.1514 12.0593 21.291C12.1719 21.3744 12.2434 21.3765 12.3555 21.2931C13.15 20.7007 13.89 20.0498 14.5502 19.3091C15.8395 17.8614 16.7455 16.2111 17.1807 14.3143C17.4193 13.2745 17.5113 12.2235 17.3987 11.1583C17.386 11.0376 17.3486 10.9469 17.2397 10.8884C16.9519 10.7338 16.6746 10.5555 16.3758 10.4252C15.5885 10.0853 14.7566 9.89822 13.91 9.78616C13.3286 9.70944 12.7412 9.61649 12.158 9.62634C11.0682 9.64458 9.99168 9.81628 8.93978 10.1102C8.30279 10.2882 7.68433 10.5184 7.14463 10.9162C7.08232 10.9647 7.04023 11.0345 7.02649 11.1123C6.99175 11.4195 6.97554 11.7264 6.9489 12.1065Z" fill="white"/>
<path d="M11.3855 10.2393H11.5552C12.0028 10.2393 12.4505 10.2425 12.8981 10.2373C13.0113 10.2373 13.0605 10.261 13.0591 10.3875C13.053 10.9359 13.0591 11.4846 13.0553 12.0333C13.0518 12.5371 12.7678 12.8816 12.3106 12.9485C11.8639 13.014 11.4032 12.6801 11.3821 12.2264C11.3531 11.5877 11.3667 10.9466 11.3635 10.3068C11.3678 10.2834 11.3752 10.2607 11.3855 10.2393ZM12.394 12.2287C12.392 12.3938 12.5098 12.5168 12.6714 12.5151C12.7442 12.5125 12.8132 12.4818 12.8639 12.4295C12.9145 12.3771 12.9429 12.3071 12.943 12.2342C12.9432 12.1612 12.9147 12.091 12.8635 12.0389C12.8123 11.9867 12.7427 11.9568 12.6696 11.9557C12.6335 11.9552 12.5977 11.9619 12.5642 11.9754C12.5307 11.9889 12.5002 12.009 12.4745 12.0344C12.4489 12.0598 12.4285 12.0901 12.4147 12.1235C12.4009 12.1568 12.3938 12.1926 12.394 12.2287ZM12.0222 12.2386C12.0233 12.2025 12.0172 12.1665 12.0043 12.1327C11.9914 12.099 11.972 12.0681 11.9471 12.0419C11.9222 12.0156 11.8924 11.9946 11.8594 11.9799C11.8264 11.9652 11.7908 11.9572 11.7547 11.9563C11.682 11.9557 11.6118 11.9834 11.5591 12.0335C11.5064 12.0836 11.4752 12.1523 11.4721 12.225C11.4695 12.3833 11.5975 12.5174 11.7489 12.5145C11.8216 12.5137 11.8911 12.4843 11.9423 12.4327C11.9934 12.381 12.0222 12.3113 12.0222 12.2386ZM12.4791 11.4545C12.4813 11.4174 12.4757 11.3802 12.4627 11.3453C12.4497 11.3104 12.4295 11.2787 12.4036 11.252C12.3776 11.2253 12.3464 11.2044 12.3119 11.1904C12.2774 11.1765 12.2404 11.1699 12.2032 11.171C12.1307 11.1724 12.0617 11.2022 12.011 11.2541C11.9604 11.3059 11.9322 11.3756 11.9325 11.4481C11.9316 11.484 11.938 11.5197 11.9514 11.553C11.9647 11.5864 11.9847 11.6166 12.0101 11.642C12.0355 11.6674 12.0658 11.6873 12.0991 11.7006C12.1325 11.714 12.1682 11.7203 12.2041 11.7194C12.3656 11.7206 12.4757 11.6146 12.4791 11.4545ZM12.0231 10.6678C12.0244 10.6132 12.0094 10.5595 11.98 10.5135C11.9506 10.4675 11.9082 10.4312 11.8582 10.4094C11.8082 10.3875 11.7527 10.3811 11.699 10.3908C11.6453 10.4006 11.5957 10.4261 11.5565 10.4641C11.5174 10.5021 11.4904 10.5509 11.479 10.6043C11.4677 10.6578 11.4725 10.7133 11.4929 10.764C11.5132 10.8146 11.5482 10.8581 11.5933 10.8888C11.6385 10.9196 11.6917 10.9362 11.7463 10.9365C11.7822 10.9375 11.8179 10.9312 11.8513 10.9182C11.8847 10.9051 11.9152 10.8855 11.9409 10.8604C11.9666 10.8354 11.987 10.8054 12.0009 10.7723C12.0149 10.7392 12.022 10.7037 12.0219 10.6678H12.0231ZM12.3952 10.6658C12.3943 10.7018 12.4007 10.7376 12.4142 10.771C12.4276 10.8044 12.4477 10.8347 12.4733 10.86C12.4989 10.8854 12.5293 10.9052 12.5629 10.9184C12.5964 10.9315 12.6322 10.9377 12.6682 10.9365C12.7043 10.9361 12.74 10.9285 12.7732 10.9142C12.8064 10.9 12.8365 10.8794 12.8617 10.8535C12.8869 10.8276 12.9068 10.797 12.9202 10.7635C12.9336 10.73 12.9402 10.6941 12.9398 10.658C12.9393 10.6219 12.9318 10.5862 12.9175 10.553C12.9033 10.5198 12.8826 10.4897 12.8568 10.4645C12.8309 10.4393 12.8003 10.4194 12.7668 10.406C12.7332 10.3926 12.6974 10.3859 12.6613 10.3864C12.6251 10.3863 12.5893 10.3936 12.556 10.4077C12.5228 10.4219 12.4927 10.4427 12.4678 10.4688C12.4428 10.4949 12.4233 10.5259 12.4107 10.5597C12.398 10.5936 12.3923 10.6297 12.394 10.6658H12.3952Z" fill="white"/>
<path d="M11.3594 14.7058C11.3594 14.4162 11.362 14.1267 11.3594 13.8371C11.358 13.7396 11.3904 13.7005 11.4926 13.7011C11.9695 13.7048 12.4464 13.7031 12.9232 13.7025C12.9962 13.7025 13.0584 13.7066 13.0573 13.8062C13.05 14.4319 13.0657 15.0587 13.0318 15.683C13.0081 16.1173 12.6403 16.4167 12.2101 16.4184C11.7798 16.4201 11.4153 16.1115 11.3788 15.6734C11.3519 15.3529 11.3736 15.0286 11.3736 14.7058H11.3594ZM12.3939 14.1313C12.3928 14.1674 12.3991 14.2033 12.4124 14.2368C12.4257 14.2703 12.4457 14.3008 12.4712 14.3263C12.4967 14.3518 12.5271 14.3718 12.5606 14.3851C12.5942 14.3983 12.6301 14.4046 12.6661 14.4035C12.7391 14.4028 12.8087 14.3731 12.8598 14.321C12.9109 14.2689 12.9392 14.1986 12.9384 14.1257C12.9377 14.0527 12.908 13.983 12.8559 13.932C12.8038 13.8809 12.7336 13.8526 12.6606 13.8534C12.5017 13.8574 12.3922 13.97 12.3939 14.1313ZM12.6626 15.9734C12.7356 15.9734 12.8056 15.9444 12.8571 15.8928C12.9087 15.8412 12.9377 15.7713 12.9377 15.6983C12.9377 15.6254 12.9087 15.5554 12.8571 15.5038C12.8056 15.4522 12.7356 15.4232 12.6626 15.4232C12.6266 15.4226 12.5908 15.4294 12.5574 15.4431C12.524 15.4568 12.4938 15.4771 12.4686 15.5029C12.4434 15.5287 12.4236 15.5593 12.4107 15.593C12.3977 15.6266 12.3917 15.6626 12.3931 15.6986C12.3911 15.7348 12.3967 15.7709 12.4094 15.8048C12.4222 15.8387 12.4419 15.8696 12.4673 15.8954C12.4926 15.9213 12.5231 15.9416 12.5567 15.955C12.5904 15.9684 12.6264 15.9747 12.6626 15.9734ZM12.021 14.1443C12.0241 14.1085 12.0199 14.0724 12.0087 14.0382C11.9974 14.004 11.9794 13.9724 11.9557 13.9454C11.9319 13.9183 11.9029 13.8964 11.8705 13.8808C11.838 13.8652 11.8028 13.8564 11.7668 13.8548C11.7123 13.8507 11.6579 13.863 11.6104 13.89C11.5629 13.917 11.5246 13.9575 11.5002 14.0064C11.4758 14.0553 11.4666 14.1104 11.4736 14.1645C11.4806 14.2187 11.5036 14.2695 11.5397 14.3106C11.5757 14.3516 11.6232 14.381 11.676 14.395C11.7288 14.409 11.7845 14.4069 11.8362 14.3891C11.8878 14.3713 11.933 14.3385 11.9659 14.2949C11.9988 14.2513 12.018 14.1989 12.021 14.1443ZM11.7523 15.9742C11.8069 15.9732 11.86 15.956 11.9048 15.9247C11.9496 15.8935 11.9841 15.8496 12.0039 15.7987C12.0237 15.7478 12.0279 15.6921 12.016 15.6388C12.0041 15.5855 11.9765 15.537 11.937 15.4993C11.8974 15.4617 11.8475 15.4367 11.7936 15.4275C11.7398 15.4183 11.6844 15.4253 11.6346 15.4477C11.5847 15.47 11.5427 15.5067 11.5137 15.553C11.4848 15.5994 11.4703 15.6533 11.4721 15.7079C11.4725 15.7439 11.4801 15.7795 11.4945 15.8126C11.5089 15.8456 11.5298 15.8754 11.5559 15.9003C11.582 15.9251 11.6129 15.9445 11.6466 15.9572C11.6804 15.9699 11.7163 15.9757 11.7523 15.9742ZM12.4791 14.9087C12.4802 14.8728 12.4739 14.837 12.4606 14.8037C12.4473 14.7703 12.4272 14.74 12.4016 14.7148C12.376 14.6896 12.3455 14.6699 12.3119 14.657C12.2784 14.6442 12.2425 14.6384 12.2066 14.64C12.1707 14.6393 12.135 14.6458 12.1016 14.6592C12.0683 14.6725 12.0379 14.6924 12.0124 14.7177C11.9869 14.7429 11.9667 14.7731 11.953 14.8063C11.9393 14.8395 11.9324 14.8751 11.9327 14.911C11.9313 14.9482 11.9378 14.9852 11.9516 15.0197C11.9654 15.0542 11.9863 15.0855 12.0129 15.1114C12.0395 15.1374 12.0713 15.1574 12.1062 15.1703C12.141 15.1833 12.1782 15.1887 12.2153 15.1864C12.3728 15.1826 12.4791 15.0714 12.4791 14.9087Z" fill="white"/>
<path d="M11.3593 17.1726C11.912 17.1726 12.439 17.1726 12.9659 17.1761C12.9963 17.1761 13.0528 17.2271 13.0528 17.254C13.0508 17.8893 13.0609 18.5254 13.0296 19.1595C13.0094 19.5732 12.6399 19.8772 12.2273 19.8833C11.793 19.8885 11.4097 19.5938 11.3842 19.1722C11.3497 18.6059 11.3654 18.036 11.3599 17.4677C11.3587 17.3759 11.3593 17.2856 11.3593 17.1726ZM12.3941 17.5878C12.3925 17.6239 12.3981 17.6599 12.4106 17.6937C12.423 17.7276 12.442 17.7587 12.4665 17.7852C12.491 17.8117 12.5205 17.833 12.5533 17.8481C12.5861 17.8631 12.6215 17.8715 12.6576 17.8727C12.7327 17.8732 12.805 17.8438 12.8585 17.7911C12.912 17.7383 12.9424 17.6665 12.9431 17.5913C12.9439 17.5552 12.9373 17.5193 12.9238 17.4858C12.9102 17.4523 12.89 17.422 12.8644 17.3965C12.8387 17.3711 12.8081 17.3512 12.7745 17.338C12.7409 17.3248 12.705 17.3186 12.6689 17.3197C12.6328 17.3177 12.5968 17.3233 12.563 17.336C12.5292 17.3486 12.4984 17.3682 12.4726 17.3934C12.4467 17.4186 12.4264 17.4489 12.4129 17.4824C12.3994 17.5159 12.393 17.5518 12.3941 17.5878ZM11.7531 18.8908C11.7171 18.8905 11.6814 18.8974 11.6481 18.911C11.6148 18.9245 11.5845 18.9445 11.5589 18.9698C11.5333 18.995 11.5129 19.0251 11.4989 19.0583C11.4849 19.0914 11.4776 19.127 11.4774 19.1629C11.4772 19.1989 11.484 19.2346 11.4976 19.2679C11.5111 19.3012 11.5311 19.3315 11.5564 19.3571C11.5817 19.3827 11.6117 19.4031 11.6449 19.4171C11.678 19.431 11.7136 19.4384 11.7496 19.4386C11.8222 19.439 11.8921 19.4106 11.9438 19.3596C11.9955 19.3085 12.0248 19.2391 12.0252 19.1664C12.0257 19.0938 11.9973 19.0239 11.9462 18.9722C11.8952 18.9205 11.8257 18.8912 11.7531 18.8908ZM12.2053 18.1055C12.0458 18.1055 11.9329 18.2185 11.9317 18.3754C11.9307 18.4126 11.9374 18.4497 11.9513 18.4842C11.9651 18.5188 11.9859 18.5501 12.0124 18.5764C12.0388 18.6026 12.0703 18.6231 12.105 18.6367C12.1397 18.6503 12.1768 18.6567 12.214 18.6554C12.2501 18.655 12.2857 18.6473 12.3187 18.6327C12.3517 18.6182 12.3814 18.5971 12.4061 18.5708C12.4308 18.5445 12.4499 18.5135 12.4622 18.4796C12.4746 18.4457 12.48 18.4097 12.4781 18.3737C12.4757 18.2121 12.366 18.105 12.2053 18.1064V18.1055ZM12.0223 17.6006C12.0244 17.5646 12.0192 17.5285 12.007 17.4946C11.9947 17.4607 11.9757 17.4297 11.951 17.4034C11.9264 17.3771 11.8966 17.3561 11.8636 17.3416C11.8305 17.3272 11.7949 17.3196 11.7588 17.3194C11.7228 17.3171 11.6866 17.3221 11.6525 17.334C11.6184 17.346 11.587 17.3647 11.5603 17.389C11.5336 17.4133 11.512 17.4427 11.4968 17.4756C11.4817 17.5084 11.4733 17.5439 11.4722 17.58C11.4706 17.6172 11.4765 17.6543 11.4894 17.6893C11.5023 17.7242 11.5219 17.7562 11.5473 17.7835C11.5726 17.8108 11.6031 17.8327 11.637 17.8482C11.6708 17.8636 11.7074 17.8721 11.7447 17.8733C11.8174 17.8736 11.8873 17.8453 11.9393 17.7944C11.9913 17.7435 12.0211 17.6742 12.0223 17.6014V17.6006ZM12.6671 18.8908C12.6312 18.8893 12.5953 18.8953 12.5617 18.9083C12.5282 18.9213 12.4977 18.9411 12.4721 18.9664C12.4465 18.9917 12.4264 19.022 12.413 19.0554C12.3997 19.0888 12.3933 19.1247 12.3944 19.1606C12.3944 19.3262 12.5102 19.4421 12.6752 19.4386C12.7479 19.4375 12.8171 19.4076 12.8677 19.3555C12.9183 19.3034 12.9462 19.2333 12.9451 19.1606C12.944 19.088 12.9141 19.0187 12.862 18.9681C12.8099 18.9175 12.7398 18.8897 12.6671 18.8908Z" fill="white"/>
<path d="M13.5577 14.6959C13.5577 14.4116 13.5609 14.127 13.556 13.8429C13.554 13.7352 13.5942 13.7013 13.7008 13.7022C14.1727 13.7062 14.6449 13.7039 15.1172 13.7039C15.187 13.7039 15.2562 13.7005 15.2553 13.803C15.2486 14.4287 15.2614 15.0552 15.231 15.6798C15.2101 16.1112 14.8439 16.4146 14.4133 16.4192C13.9912 16.4233 13.6159 16.1144 13.5803 15.6919C13.5528 15.3621 13.5748 15.028 13.5748 14.6959H13.5577ZM13.9419 15.9745C13.978 15.9762 14.014 15.9705 14.0477 15.9579C14.0815 15.9452 14.1124 15.9259 14.1384 15.9009C14.1645 15.876 14.1852 15.846 14.1993 15.8128C14.2134 15.7796 14.2206 15.7439 14.2205 15.7078C14.2227 15.6708 14.2174 15.6336 14.2049 15.5987C14.1924 15.5637 14.173 15.5316 14.1478 15.5043C14.1226 15.4771 14.0921 15.4552 14.0582 15.44C14.0243 15.4248 13.9877 15.4167 13.9505 15.416C13.9134 15.4153 13.8765 15.4222 13.8421 15.4361C13.8077 15.4501 13.7765 15.4709 13.7503 15.4972C13.7241 15.5236 13.7035 15.5549 13.6898 15.5894C13.6761 15.6239 13.6694 15.6609 13.6703 15.698C13.6699 15.734 13.6766 15.7698 13.6901 15.8032C13.7035 15.8366 13.7234 15.867 13.7487 15.8927C13.7739 15.9184 13.804 15.9389 13.8371 15.9529C13.8703 15.9669 13.9059 15.9743 13.9419 15.9745ZM13.9437 13.8542C13.8891 13.8547 13.836 13.8714 13.7909 13.9022C13.7459 13.933 13.7111 13.9765 13.6909 14.0272C13.6707 14.0778 13.666 14.1334 13.6774 14.1867C13.6889 14.24 13.716 14.2887 13.7552 14.3266C13.7945 14.3645 13.8441 14.3899 13.8978 14.3995C13.9515 14.4091 14.0069 14.4024 14.0568 14.3805C14.1067 14.3585 14.149 14.3221 14.1782 14.2761C14.2074 14.23 14.2222 14.1763 14.2208 14.1217C14.2214 14.0856 14.2146 14.0497 14.2008 14.0164C14.187 13.983 14.1664 13.9528 14.1404 13.9277C14.1144 13.9026 14.0835 13.8831 14.0497 13.8705C14.0158 13.8578 13.9798 13.8523 13.9437 13.8542ZM14.5922 14.1226C14.5905 14.2827 14.6994 14.3985 14.8563 14.4035C14.8924 14.4042 14.9283 14.3979 14.962 14.3848C14.9957 14.3717 15.0265 14.3521 15.0525 14.3271C15.0786 14.3021 15.0996 14.2722 15.1141 14.2391C15.1286 14.2061 15.1365 14.1705 15.1373 14.1343C15.1381 14.0982 15.1317 14.0623 15.1186 14.0286C15.1055 13.995 15.0859 13.9642 15.0609 13.9381C15.0359 13.912 15.0061 13.8911 14.973 13.8765C14.9399 13.862 14.9043 13.8541 14.8682 13.8533C14.8321 13.8517 14.7961 13.8576 14.7624 13.8705C14.7286 13.8833 14.6979 13.903 14.6721 13.9283C14.6463 13.9535 14.6259 13.9838 14.6123 14.0172C14.5987 14.0506 14.592 14.0865 14.5928 14.1226H14.5922ZM14.8708 15.9733C14.9068 15.9738 14.9426 15.9669 14.9759 15.9532C15.0093 15.9395 15.0395 15.9192 15.0648 15.8935C15.09 15.8678 15.1099 15.8373 15.1231 15.8037C15.1362 15.7702 15.1425 15.7343 15.1415 15.6983C15.1416 15.6609 15.1341 15.6239 15.1194 15.5896C15.1047 15.5552 15.0832 15.5243 15.056 15.4986C15.0289 15.4729 14.9968 15.453 14.9617 15.4402C14.9266 15.4274 14.8893 15.4219 14.852 15.4241C14.816 15.425 14.7806 15.4331 14.7479 15.448C14.7152 15.4629 14.6858 15.4842 14.6615 15.5107C14.6371 15.5372 14.6184 15.5683 14.6064 15.6021C14.5943 15.636 14.5892 15.672 14.5914 15.7078C14.5911 15.744 14.5982 15.7798 14.6123 15.8131C14.6264 15.8463 14.6472 15.8764 14.6734 15.9013C14.6996 15.9261 14.7307 15.9454 14.7646 15.9578C14.7986 15.9702 14.8347 15.9755 14.8708 15.9733ZM14.6762 14.9139C14.6781 14.878 14.6725 14.8421 14.6598 14.8085C14.6471 14.7749 14.6276 14.7443 14.6025 14.7185C14.5774 14.6928 14.5472 14.6725 14.5139 14.659C14.4806 14.6455 14.4449 14.6391 14.409 14.64C14.3731 14.6387 14.3373 14.6446 14.3037 14.6574C14.2702 14.6701 14.2395 14.6894 14.2135 14.7142C14.1875 14.739 14.1667 14.7687 14.1523 14.8016C14.138 14.8345 14.1303 14.8699 14.1298 14.9058C14.1279 14.9429 14.1337 14.98 14.1469 15.0147C14.1601 15.0494 14.1804 15.081 14.2065 15.1074C14.2326 15.1338 14.264 15.1545 14.2985 15.1681C14.3331 15.1817 14.3701 15.1879 14.4072 15.1864C14.5668 15.1852 14.6745 15.0758 14.6762 14.9139Z" fill="white"/>
<path d="M10.8424 14.7535C10.8424 15.0185 10.8424 15.2834 10.8424 15.5483C10.8395 16.0533 10.497 16.4135 10.0163 16.419C9.55048 16.4248 9.17523 16.0678 9.16481 15.5793C9.15265 14.9967 9.16278 14.4136 9.16046 13.8305C9.16046 13.7404 9.18942 13.7005 9.28526 13.7013C9.76223 13.7042 10.239 13.7042 10.7156 13.7013C10.8218 13.7013 10.8447 13.7485 10.8436 13.8418C10.8404 14.1464 10.8424 14.4498 10.8424 14.7535ZM10.1962 14.1273C10.1945 14.1632 10.2003 14.1991 10.213 14.2327C10.2258 14.2663 10.2452 14.297 10.2703 14.3229C10.2953 14.3487 10.3253 14.3691 10.3585 14.383C10.3917 14.3968 10.4274 14.4037 10.4634 14.4032C10.4995 14.4034 10.5353 14.3964 10.5688 14.3828C10.6022 14.3692 10.6326 14.3491 10.6583 14.3236C10.684 14.2982 10.7044 14.268 10.7184 14.2347C10.7324 14.2014 10.7397 14.1657 10.7399 14.1296C10.7401 14.0934 10.7332 14.0576 10.7195 14.0242C10.7059 13.9908 10.6858 13.9603 10.6604 13.9346C10.635 13.909 10.6047 13.8885 10.5714 13.8746C10.5381 13.8606 10.5024 13.8532 10.4663 13.8531C10.3076 13.8554 10.1973 13.9666 10.1962 14.1273ZM9.82351 14.1336C9.82449 14.0791 9.80922 14.0255 9.77966 13.9796C9.7501 13.9338 9.70758 13.8978 9.6575 13.8762C9.60741 13.8545 9.55203 13.8483 9.4984 13.8582C9.44476 13.8682 9.39529 13.8938 9.35627 13.932C9.31725 13.9701 9.29045 14.0189 9.27927 14.0723C9.26809 14.1257 9.27303 14.1812 9.29348 14.2318C9.31392 14.2824 9.34894 14.3257 9.39408 14.3563C9.43923 14.387 9.49245 14.4035 9.547 14.4038C9.583 14.4046 9.61879 14.3982 9.65229 14.385C9.68579 14.3718 9.71631 14.352 9.74206 14.3268C9.76782 14.3017 9.78829 14.2716 9.80228 14.2384C9.81626 14.2053 9.82348 14.1696 9.82351 14.1336ZM10.4732 15.9734C10.5462 15.9729 10.616 15.9435 10.6672 15.8916C10.7185 15.8397 10.747 15.7695 10.7466 15.6966C10.7461 15.6236 10.7167 15.5538 10.6648 15.5026C10.6129 15.4513 10.5427 15.4228 10.4698 15.4232C10.3073 15.4232 10.1933 15.5411 10.1962 15.7084C10.1985 15.8668 10.3123 15.9757 10.4732 15.9734ZM9.82351 15.6992C9.82436 15.6262 9.79619 15.5559 9.7452 15.5037C9.69421 15.4516 9.62459 15.4218 9.55163 15.4209C9.47868 15.4201 9.40838 15.4482 9.3562 15.4992C9.30402 15.5502 9.27423 15.6198 9.27339 15.6928C9.27297 15.7289 9.27967 15.7648 9.2931 15.7983C9.30654 15.8318 9.32645 15.8624 9.3517 15.8882C9.37694 15.9141 9.40703 15.9347 9.44024 15.9489C9.47346 15.9631 9.50914 15.9706 9.54526 15.971C9.58139 15.9715 9.61724 15.9648 9.65077 15.9513C9.6843 15.9379 9.71486 15.918 9.7407 15.8927C9.76653 15.8675 9.78715 15.8374 9.80136 15.8042C9.81557 15.771 9.82309 15.7353 9.82351 15.6992ZM10.0181 14.64C9.98223 14.6379 9.94633 14.643 9.9125 14.6551C9.87868 14.6672 9.84763 14.6859 9.82121 14.7102C9.79478 14.7346 9.77352 14.7639 9.7587 14.7967C9.74387 14.8294 9.73578 14.8647 9.73491 14.9006C9.73178 14.9377 9.73654 14.975 9.7489 15.0101C9.76125 15.0452 9.78091 15.0773 9.80657 15.1043C9.83224 15.1312 9.86333 15.1524 9.89779 15.1665C9.93226 15.1805 9.96931 15.1871 10.0065 15.1858C10.0424 15.1877 10.0783 15.1822 10.1119 15.1696C10.1456 15.157 10.1763 15.1376 10.2021 15.1125C10.2278 15.0875 10.2482 15.0574 10.2617 15.0241C10.2753 14.9908 10.2819 14.9551 10.281 14.9191C10.2821 14.7605 10.1727 14.6441 10.0181 14.64Z" fill="white"/>
</g>
<defs>
<clipPath id="clip0_237_218">
<rect width="25.9127" height="28" fill="white"/>
</clipPath>
</defs>
</svg>
