<svg width="21" height="25" viewBox="0 0 21 25" fill="none" xmlns="http://www.w3.org/2000/svg">
<g clip-path="url(#clip0_237_211)">
<path d="M3.93496 10.0229C3.94278 10.0129 3.94668 10.0005 3.94596 9.98801C3.97841 9.94329 4.00756 9.89641 4.03319 9.84774C4.57073 8.61033 5.10747 7.3719 5.64344 6.13247C6.29204 4.63928 6.94169 3.1466 7.59239 1.65442C7.82815 1.1032 8.07649 0.553491 8.31932 0.00378165C9.68123 0.00378165 11.0439 0.00378165 12.4058 -0.00152588C12.574 -0.00152588 12.6801 0.0363851 12.7202 0.196369L12.8711 0.539843C12.8876 0.576237 12.9041 0.615664 12.9214 0.649784L13.0165 0.859053L13.1084 1.06908C13.3387 1.63699 13.5611 2.20641 13.8008 2.77052C14.0043 3.25048 14.2322 3.71981 14.4412 4.19749C14.967 5.40079 15.4865 6.60635 16.013 7.81041C16.6684 9.31724 17.3249 10.8233 17.9824 12.3286C18.1521 12.7176 18.3337 13.1013 18.5097 13.4872L18.5301 13.5418L18.7164 13.9611C18.7305 13.999 18.7455 14.0369 18.7596 14.0741C18.8178 14.2204 18.872 14.3675 18.9341 14.5123C19.4354 15.6663 19.9376 16.8201 20.4406 17.9736C20.5977 18.3428 20.7549 18.7136 20.9223 19.0995L20.6999 19.2026C20.6425 19.1738 20.586 19.1223 20.5278 19.1215C19.6345 19.1033 18.7413 19.0897 17.848 19.0806C17.4071 19.0753 16.9662 19.0806 16.5254 19.0806C16.0358 19.0806 15.5454 19.0806 15.0558 19.0806C14.8358 19.0806 14.6008 19.1268 14.4994 18.8569C14.4994 18.8569 14.4876 18.8569 14.4805 18.8531C14.4452 18.7773 14.4019 18.7075 14.3737 18.631C14.1211 17.9344 13.8699 17.2368 13.62 16.5383C13.6004 16.4314 13.6074 16.2941 13.4235 16.3813L13.1092 16.3555H11.8518H9.88713C9.79201 16.36 9.69668 16.358 9.60186 16.3495C9.53708 16.3333 9.47475 16.3091 9.4164 16.2774L9.49498 16.0098L9.50363 15.9036L9.7724 15.2159L9.77711 15.1401C9.86434 14.9271 9.96022 14.717 10.0364 14.5002C10.1763 14.1029 10.3084 13.7025 10.4365 13.3014C10.4472 13.2459 10.48 13.1967 10.5279 13.1643C10.5758 13.1318 10.6349 13.1187 10.6926 13.1278C11.183 13.1346 11.6734 13.1278 12.1646 13.1323C12.2966 13.1323 12.3532 13.0891 12.31 12.9648C12.2015 12.6456 12.0923 12.3264 11.9752 12.0102C11.8117 11.5681 11.638 11.1299 11.473 10.6886C11.308 10.2473 11.15 9.80528 10.9889 9.364C10.8467 8.9773 10.706 8.58986 10.559 8.20468C10.5418 8.1607 10.4867 8.12886 10.4498 8.09474L10.3602 8.2388L9.3386 11.0753C9.30245 11.1663 9.26551 11.2573 9.22857 11.3483L9.17906 11.5636L8.90951 12.2574C8.90728 12.2676 8.90728 12.2782 8.90951 12.2884C8.88515 12.3142 8.84978 12.3362 8.838 12.3643C8.64231 12.8799 8.44506 13.3939 8.25881 13.9126C8.16372 14.1772 8.09063 14.4494 8.00733 14.7185C7.96839 14.7587 7.93533 14.8039 7.9091 14.8527C7.6977 15.4313 7.4918 16.0113 7.2804 16.5891C7.10122 17.0796 6.91655 17.5679 6.73815 18.0585C6.63363 18.3466 6.53697 18.637 6.43717 18.9259C6.34286 18.9585 6.34679 19.0897 6.19276 19.0889C5.41239 19.0844 4.63281 19.1079 3.85244 19.117C3.44379 19.1223 3.03435 19.117 2.6257 19.117C1.97893 19.1223 1.33216 19.1473 0.686174 19.1321C0.488135 19.1276 0.246873 19.2557 0.0810547 19.0336C0.127421 18.8933 0.17143 18.7515 0.220939 18.612C0.319173 18.339 0.421336 18.0676 0.521927 17.7954L0.514069 17.7886L0.521142 17.7962C0.562972 17.7624 0.599271 17.7228 0.628806 17.6786C1.18415 16.4068 1.73845 15.134 2.2917 13.8602C2.71084 12.8973 3.12997 11.9336 3.5491 10.9691C3.68269 10.656 3.80608 10.3383 3.93496 10.0229Z" fill="white"/>
<path d="M10.5 25L0 19.167L0.157174 18.9047L10.5008 24.6504L20.8444 18.9691L21 19.233L10.5 25Z" fill="white"/>
</g>
<defs>
<clipPath id="clip0_237_211">
<rect width="21" height="25" fill="white"/>
</clipPath>
</defs>
</svg>
