<svg width="28" height="28" viewBox="0 0 28 28" fill="none" xmlns="http://www.w3.org/2000/svg">
<g clip-path="url(#clip0_256_315)">
<path d="M3.77214 24.1649C3.64665 24.0397 3.45216 23.9233 3.35052 23.753C2.57755 22.4583 1.82089 21.1524 1.06048 19.8503C0.753045 19.3132 0.43934 18.781 0.13191 18.2526C-0.0801541 17.8858 -0.0399999 17.6805 0.287508 17.4163C1.0404 16.809 1.80458 16.208 2.55245 15.5908C2.64773 15.4949 2.70291 15.3664 2.7068 15.2314C2.72018 14.4126 2.72018 13.5929 2.7068 12.7723C2.7044 12.6372 2.65005 12.5081 2.55496 12.4118C1.81588 11.8007 1.06424 11.206 0.315114 10.6075C-0.0475288 10.317 -0.087683 10.1267 0.146968 9.72356C1.20603 7.90973 2.26636 6.09507 3.32793 4.27957C3.57011 3.86639 3.72696 3.81004 4.17117 3.97782C5.05707 4.31212 5.94297 4.64517 6.82511 4.98949C6.9034 5.02337 6.98934 5.03578 7.07405 5.02543C7.15876 5.01509 7.23916 4.98236 7.30696 4.93064C8.00213 4.51245 8.7111 4.11805 9.42133 3.72741C9.49225 3.70195 9.55468 3.65733 9.60166 3.59852C9.64864 3.5397 9.6783 3.46902 9.68735 3.39436C9.82036 2.45781 9.97596 1.52502 10.1265 0.590976C10.2006 0.125207 10.3524 0 10.8418 0H17.1673C17.6504 0 17.7947 0.125207 17.875 0.599741C18.0231 1.53378 18.1662 2.46908 18.3268 3.40187C18.357 3.5218 18.4326 3.62542 18.5376 3.6911C19.2721 4.12431 20.0128 4.54668 20.7599 4.95819C20.8812 5.01774 21.0208 5.02893 21.1501 4.98949C22.0498 4.66145 22.942 4.31337 23.8367 3.97406C24.2658 3.8113 24.4302 3.86764 24.6611 4.26204C25.7277 6.08505 26.793 7.90848 27.8571 9.73233C28.083 10.1192 28.0441 10.317 27.699 10.5937C26.9461 11.1935 26.1932 11.787 25.4592 12.3992C25.3571 12.5018 25.2979 12.6392 25.2935 12.7836C25.2785 13.5925 25.2785 14.4021 25.2935 15.2126C25.2962 15.357 25.3546 15.4947 25.4566 15.597C26.1945 16.2105 26.9474 16.804 27.6952 17.4037C28.0428 17.683 28.083 17.8795 27.8596 18.2639C26.7939 20.0878 25.7281 21.9112 24.6623 23.7342C24.4289 24.1311 24.2671 24.19 23.8392 24.0284C22.9608 23.6966 22.0824 23.3648 21.2154 23.0268C21.1287 22.9868 21.0328 22.9709 20.9378 22.9808C20.8428 22.9907 20.7523 23.0261 20.6758 23.0831C20.0032 23.4963 19.3118 23.8807 18.6179 24.2563C18.4397 24.3527 18.3343 24.4329 18.3029 24.6582C18.1774 25.5747 18.0206 26.4862 17.8738 27.4003C17.7985 27.8748 17.6504 28.0038 17.1698 28.0038H10.8129C10.3537 28.0038 10.2006 27.8785 10.1265 27.4165C9.97721 26.4825 9.82161 25.5497 9.68735 24.6132C9.67906 24.5385 9.65016 24.4676 9.60385 24.4083C9.55754 24.3491 9.49566 24.3038 9.42509 24.2776C8.71486 23.8882 8.00715 23.4913 7.31198 23.0731C7.24405 23.0212 7.16357 22.9882 7.07871 22.9774C6.99386 22.9667 6.90765 22.9785 6.82887 23.0118C5.9505 23.3561 5.06083 23.6891 4.17619 24.0247C4.06953 24.061 3.96036 24.0948 3.77214 24.1649ZM6.69963 14.0595C6.67202 17.9409 9.98976 21.1887 14.029 21.2251C17.9453 21.2589 21.2442 18.0498 21.2743 14.1772C21.307 10.0366 18.1373 6.81876 14.0089 6.78997C9.98474 6.76117 6.72723 9.99651 6.69963 14.0532V14.0595Z" fill="white"/>
<path d="M9.74618 18.5569C7.16502 16.3282 7.00943 12.3241 9.43624 9.72731C11.9057 7.08545 16.1872 7.11174 18.609 9.77489C21.0107 12.4168 20.7848 16.3871 18.2664 18.5394C17.5499 16.1817 15.9726 14.9772 13.4981 15.2014C11.4904 15.3879 10.277 16.6087 9.74618 18.5569ZM11.4904 11.9673C11.4904 13.3996 12.5771 14.4927 14 14.4864C14.6696 14.4864 15.3118 14.221 15.7852 13.7486C16.2587 13.2761 16.5247 12.6354 16.5247 11.9673C16.5247 11.2991 16.2587 10.6584 15.7852 10.1859C15.3118 9.71351 14.6696 9.4481 14 9.4481C12.5733 9.44184 11.4904 10.5324 11.4904 11.9673Z" fill="white"/>
<path d="M13.9912 20.2171C12.9015 20.2177 11.8299 19.9387 10.8793 19.407C10.8067 19.3789 10.7471 19.3249 10.7119 19.2556C10.6767 19.1863 10.6684 19.1065 10.6886 19.0314C10.7908 18.2281 11.183 17.4895 11.7916 16.9538C12.4003 16.4182 13.1838 16.1223 13.9954 16.1216C14.8069 16.1208 15.591 16.4152 16.2007 16.9497C16.8104 17.4841 17.204 18.222 17.3077 19.0252C17.329 19.0991 17.3222 19.1783 17.2886 19.2476C17.255 19.3169 17.1971 19.3714 17.1258 19.4008C16.169 19.9381 15.0891 20.2193 13.9912 20.2171Z" fill="white"/>
<path d="M12.4854 11.961C12.4854 11.5625 12.6441 11.1804 12.9265 10.8986C13.2089 10.6168 13.5919 10.4585 13.9912 10.4585C14.3906 10.4585 14.7736 10.6168 15.056 10.8986C15.3384 11.1804 15.497 11.5625 15.497 11.961C15.497 12.3595 15.3384 12.7417 15.056 13.0234C14.7736 13.3052 14.3906 13.4635 13.9912 13.4635C13.5919 13.4635 13.2089 13.3052 12.9265 13.0234C12.6441 12.7417 12.4854 12.3595 12.4854 11.961Z" fill="white"/>
</g>
<defs>
<clipPath id="clip0_256_315">
<rect width="28" height="28" fill="white"/>
</clipPath>
</defs>
</svg>
