<svg width="30" height="28" viewBox="0 0 30 28" fill="none" xmlns="http://www.w3.org/2000/svg">
<path d="M13.3874 9.38946C13.3081 8.97041 13.2201 8.55291 13.1522 8.1318C13.1007 7.81571 13.0729 7.4955 13.041 7.17633C13.0302 7.06976 12.9864 7.02189 12.8824 6.98122C12.3254 6.7753 11.773 6.55651 11.2196 6.34184C11.1681 6.32228 11.1197 6.29654 11.0466 6.26256C11.1063 6.23013 11.147 6.20387 11.1913 6.18431C11.7401 5.94647 12.2873 5.70349 12.8412 5.478C12.9674 5.42652 13.0008 5.35908 13.0157 5.23811C13.0796 4.69756 13.1494 4.1596 13.2253 3.62421C13.2474 3.46565 13.2968 3.31069 13.3396 3.12897C13.374 3.18045 13.3951 3.20928 13.4147 3.23965C13.7452 3.75805 14.0731 4.27285 14.3975 4.78765C14.4489 4.8726 14.5004 4.87157 14.5874 4.84737C15.356 4.63218 16.1262 4.42163 16.8958 4.21005C16.9137 4.20723 16.9317 4.20534 16.9498 4.20439L15.4441 6.23218L17.0914 8.09576C16.8453 8.04428 16.6075 8.00516 16.3707 7.94956C15.8096 7.81674 15.2496 7.67946 14.6909 7.53772C14.6039 7.51558 14.5601 7.53206 14.5148 7.6067C14.1776 8.16269 13.8368 8.71713 13.4976 9.27157L13.4255 9.38997L13.3874 9.38946Z" fill="white"/>
<path d="M17.6267 10.8623L18.5328 9.4919C18.024 9.08617 17.5611 8.62613 17.1521 8.11996C17.4759 8.13952 17.7776 8.17144 18.0787 8.17144C18.4468 8.17144 18.8149 8.15239 19.182 8.13128C19.2252 8.13128 19.2849 8.07054 19.3029 8.02472C19.5866 7.37916 19.8646 6.73154 20.1441 6.08444C20.156 6.05767 20.1668 6.03296 20.1781 6.0031H20.2177C20.2821 6.60284 20.3459 7.20258 20.4118 7.81777C20.7491 7.68064 21.0408 7.45118 21.2535 7.15574C21.1525 7.77345 20.9193 8.36206 20.5699 8.88135C20.4369 9.08329 20.3491 9.31158 20.3125 9.55059C20.2574 9.84248 20.158 10.1256 20.0684 10.4108C20.0479 10.4783 20.0051 10.539 20.0046 10.557C19.8502 10.4268 19.689 10.2996 19.5377 10.1647C19.4594 10.0947 19.4023 10.0989 19.3163 10.1581C18.8281 10.4839 18.2858 10.7205 17.7148 10.8566C17.6856 10.8601 17.6562 10.862 17.6267 10.8623Z" fill="white"/>
<path d="M10.9556 11.0605C10.7234 10.5241 10.4979 10.0026 10.273 9.48109C10.2682 9.45843 10.2663 9.43525 10.2673 9.41211C10.4465 9.56398 10.6076 9.70915 10.778 9.84197C11.0987 10.0922 11.4256 10.3341 11.7474 10.5828C11.7697 10.6044 11.7993 10.6169 11.8304 10.618C11.8615 10.619 11.8919 10.6085 11.9157 10.5884C12.4024 10.2837 12.8605 9.9357 13.2846 9.54853L13.4066 9.43888C13.3551 9.74055 13.3036 10.0129 13.2665 10.2868C13.2197 10.6384 13.1888 10.992 13.1461 11.3447C13.1353 11.4368 13.1723 11.4826 13.2516 11.5212C13.6634 11.7225 14.0707 11.9279 14.4804 12.1318C14.5133 12.1459 14.5398 12.1715 14.5551 12.2039L13.1435 12.2698C13.1388 12.6147 13.2118 12.9562 13.3571 13.269C13.1826 13.2 13.0338 13.1511 12.8938 13.0842C12.4973 12.8875 12.1455 12.6111 11.8606 12.2723C11.7779 12.1765 11.6639 12.113 11.5389 12.0932C10.8964 11.9629 10.2812 11.7642 9.75457 11.3534C9.70569 11.3153 9.66161 11.2714 9.62329 11.2227C10.0985 11.3066 10.5443 11.2103 10.9556 11.0605Z" fill="white"/>
<path d="M16.3567 1.29061C17.099 1.37092 17.7981 1.58817 18.5008 1.92433L18.5899 1.20361L18.7598 1.39666C19.0397 1.72116 19.2791 2.07848 19.4728 2.46076C19.516 2.54314 19.5739 2.61694 19.6437 2.67852C20.1354 3.10186 20.5366 3.62016 20.8231 4.20233C20.8416 4.23939 20.8576 4.278 20.8633 4.28984L20.0452 3.96912L20.0154 4.00207C20.1479 4.63407 20.2068 5.27929 20.1909 5.92485C20.088 5.73231 20.0082 5.56758 19.9129 5.41314C19.6221 4.94209 19.324 4.47877 19.0316 4.01134C19.0133 3.97823 18.9852 3.95154 18.9513 3.93487C18.9173 3.91821 18.879 3.91237 18.8416 3.91816C18.2525 3.95611 17.6673 4.04028 17.0913 4.16989C17.0707 4.17401 17.0501 4.17607 17.0295 4.17865C17.3786 3.72511 17.7255 3.27414 18.0735 2.82112C17.561 2.24763 16.985 1.73417 16.3567 1.29061Z" fill="white"/>
<path d="M12.3316 1.74106L10.677 2.34955C11.0492 1.87542 11.5053 1.48109 12.0232 1.11403C11.8852 0.91326 11.7509 0.718151 11.6114 0.513775C11.7299 0.484526 11.8503 0.463541 11.9717 0.450969C12.3861 0.432951 12.8006 0.427803 13.215 0.413904C13.2951 0.413919 13.3748 0.401768 13.4513 0.377868C14.1902 0.113873 14.9709 -0.0141459 15.7555 4.17337e-06C15.7829 -3.6925e-05 15.81 0.0053886 15.8353 0.015963C15.4337 0.168019 15.0608 0.38718 14.7326 0.664097C15.2644 0.8242 15.7699 1.00232 16.2471 1.24994L16.243 1.29061C15.9661 1.29061 15.6891 1.27722 15.4132 1.2937C15.0013 1.31841 14.5895 1.36526 14.1735 1.40026C14.1334 1.40178 14.0944 1.41362 14.0602 1.43463C14.0261 1.45565 13.9979 1.48512 13.9784 1.52021C13.7043 1.9599 13.5038 2.44139 13.3849 2.94569L13.3437 3.11043C12.9472 2.70075 12.6069 2.24027 12.3316 1.74106Z" fill="white"/>
<path d="M10.4365 20.4582C10.731 20.4582 11.0254 20.4582 11.3199 20.4623C11.3487 20.4623 11.3884 20.5138 11.4023 20.5529C11.635 21.1593 11.8656 21.7673 12.0947 22.3748C12.1112 22.418 12.1302 22.4602 12.1565 22.5236L12.681 20.9792C12.73 20.8335 12.7763 20.6867 12.8303 20.5431C12.8427 20.5102 12.8818 20.4649 12.9081 20.4644C13.1979 20.4582 13.4883 20.4608 13.826 20.4608C13.7771 20.52 13.757 20.5704 13.723 20.5792C13.62 20.6075 13.6031 20.6821 13.6087 20.7665C13.6267 21.0615 13.6448 21.3565 13.6664 21.651C13.6957 22.0566 13.7287 22.4623 13.7601 22.868C13.7652 22.9359 13.7765 23.0044 13.7771 23.0739C13.7771 23.2 13.8285 23.2731 13.9598 23.2937C13.9861 23.2973 14.0046 23.3508 14.0381 23.3967H12.8365C12.8762 23.3488 12.8962 23.2999 12.9287 23.2901C13.1047 23.235 13.1428 23.1979 13.1346 23.0049C13.1155 22.6497 13.0877 22.2955 13.0625 21.9408C13.0466 21.7189 13.0285 21.497 12.9925 21.2664C12.9771 21.3055 12.9596 21.3436 12.9462 21.3833C12.7274 22.0268 12.5081 22.6703 12.2929 23.3143C12.263 23.4039 12.226 23.445 12.1235 23.4404C11.8193 23.425 11.8996 23.4919 11.7863 23.2031C11.5444 22.5817 11.307 21.9588 11.0656 21.3364C11.0559 21.3055 11.0362 21.2787 11.0095 21.2602C11.0049 21.3302 10.9982 21.4003 10.9961 21.4703C10.9827 21.9887 10.9688 22.5071 10.959 23.0255C10.9554 23.2088 10.991 23.2432 11.1691 23.2891C11.2041 23.2983 11.2293 23.3405 11.2592 23.3709L11.2329 23.3956H10.2471C10.2816 23.3519 10.3027 23.2968 10.3315 23.2927C10.4715 23.27 10.5137 23.1794 10.5199 23.0564C10.5472 22.5302 10.5755 22.0041 10.6007 21.478C10.6121 21.2427 10.6167 21.007 10.6275 20.7717C10.6327 20.6687 10.6079 20.5982 10.4901 20.5792C10.4602 20.5745 10.4386 20.5215 10.4118 20.4911L10.4365 20.4582Z" fill="white"/>
<path d="M9.28658 6.40566L10.9854 6.24607L10.9988 6.28468C10.9612 6.31609 10.9236 6.34749 10.8866 6.37941C10.4384 6.75894 10.0238 7.17645 9.64745 7.62728C9.62216 7.65441 9.6051 7.68818 9.59826 7.72464C9.59142 7.7611 9.59509 7.79875 9.60884 7.8332C9.74915 8.32236 9.93602 8.79695 10.1669 9.25045C10.1803 9.27619 10.1921 9.30193 10.2045 9.32818L10.1798 9.36062L8.99572 8.574C8.7917 8.9219 8.64009 9.29797 8.54578 9.69009L8.50357 9.69318C8.43201 9.41776 8.33626 9.14543 8.29765 8.86538C8.24977 8.53642 8.25132 8.20077 8.22661 7.86821C8.21912 7.81917 8.2016 7.7722 8.17513 7.73024C8.06393 7.53359 7.94964 7.33848 7.83639 7.14286C7.78182 7.04916 7.81322 6.97966 7.89971 6.93127C8.04128 6.85148 8.18079 6.76757 8.32802 6.70116C8.36126 6.68853 8.39102 6.66818 8.41484 6.64177C8.43865 6.61536 8.45583 6.58366 8.46496 6.54929C8.62449 6.04326 8.85409 5.56205 9.14707 5.11969C9.19186 5.55624 9.2387 5.97786 9.28658 6.40566Z" fill="white"/>
<path d="M4.46959 20.4963C4.43973 20.5241 4.40833 20.5477 4.38105 20.5802C4.33626 20.6317 4.25801 20.6801 4.25595 20.7346C4.24359 21.0332 4.25029 21.3323 4.25029 21.6391H5.33137V21.4023C5.33137 21.1964 5.33137 20.9905 5.33137 20.7846C5.33137 20.6816 5.30717 20.6013 5.18825 20.575C5.15788 20.5683 5.13677 20.5236 5.10897 20.4973L5.13008 20.471H6.22918C6.18645 20.5199 6.16483 20.5678 6.13291 20.5766C6.02429 20.6054 5.99392 20.677 5.99392 20.7773C5.99392 21.5492 5.99392 22.3214 5.99392 23.094C5.99392 23.1969 6.02532 23.2659 6.13497 23.2932C6.16637 23.3009 6.18645 23.3493 6.23175 23.3997H5.09919C5.14141 23.3514 5.16354 23.3019 5.19649 23.2927C5.23707 23.2858 5.27356 23.2639 5.29858 23.2312C5.32361 23.1985 5.33533 23.1576 5.33137 23.1166V22.0849H4.25029V22.3856C4.25029 22.6214 4.25029 22.8571 4.25029 23.0929C4.25029 23.1933 4.28272 23.2649 4.39443 23.288C4.42378 23.2942 4.44591 23.3457 4.48143 23.3941H3.3463C3.39778 23.3426 3.42094 23.2963 3.45544 23.286C3.49565 23.2773 3.53123 23.254 3.55528 23.2207C3.57934 23.1873 3.59017 23.1462 3.58568 23.1053C3.58568 22.3207 3.58568 21.5363 3.58568 20.7521C3.59017 20.7112 3.57911 20.6702 3.55469 20.6371C3.53027 20.604 3.49428 20.5813 3.45389 20.5735C3.42043 20.5642 3.39623 20.5194 3.34424 20.4674H4.43819L4.46959 20.4963Z" fill="white"/>
<path d="M21.0194 23.4451C20.203 23.4698 19.5873 22.7907 19.578 21.9006C19.5682 21.0502 20.1922 20.4139 21.0266 20.4077C21.8611 20.4015 22.5005 21.0584 22.4969 21.9305C22.4969 22.9483 21.7453 23.461 21.0194 23.4451ZM20.2174 21.7462C20.2529 22.1107 20.3203 22.4515 20.5489 22.7403C20.8866 23.1717 21.5085 23.097 21.7366 22.6003C21.8802 22.2873 21.8529 21.9655 21.7798 21.6432C21.7384 21.4231 21.6354 21.2193 21.4828 21.0553C21.1224 20.6914 20.534 20.7943 20.3373 21.2664C20.2745 21.4183 20.256 21.5877 20.2174 21.7478V21.7462Z" fill="white"/>
<path d="M23.7937 21.1341C23.7937 21.7853 23.7937 22.4365 23.7937 23.0873C23.7937 23.2 23.8585 23.2654 23.9723 23.2885C24.0068 23.2952 24.0346 23.3354 24.0655 23.3601L24.0408 23.3894H23.1718C23.2042 23.3462 23.2233 23.2947 23.2495 23.2896C23.37 23.2654 23.3942 23.1866 23.3942 23.0837C23.3942 22.6979 23.3942 22.3121 23.3942 21.9264C23.3942 21.5537 23.3942 21.181 23.3942 20.8082C23.3942 20.6924 23.3823 20.5936 23.2397 20.5694C23.2161 20.5658 23.2001 20.5179 23.1687 20.4695H23.4395C23.632 20.4695 23.8251 20.4752 24.0171 20.4649C24.0495 20.4586 24.0832 20.463 24.1128 20.4776C24.1425 20.4922 24.1665 20.5161 24.1813 20.5457C24.5381 21.1305 24.8989 21.7122 25.2588 22.296C25.285 22.3387 25.3103 22.3799 25.3576 22.4504C25.3623 22.3851 25.3664 22.3537 25.3664 22.3223C25.3664 21.8335 25.3664 21.345 25.3664 20.8566C25.3664 20.6589 25.3437 20.6337 25.163 20.5694C25.1342 20.5591 25.1162 20.5179 25.0766 20.4705H25.9867C25.9491 20.5174 25.9296 20.5673 25.8997 20.5735C25.7968 20.5987 25.7643 20.6692 25.7612 20.7624C25.7587 20.8438 25.7612 20.9251 25.7612 21.0069V23.4111C25.6099 23.4111 25.4735 23.4178 25.3386 23.4069C25.3 23.4033 25.2567 23.3555 25.2315 23.3148C24.7853 22.6243 24.3404 21.9332 23.8966 21.2417C23.8719 21.2031 23.8451 21.165 23.8204 21.1264L23.7937 21.1341Z" fill="white"/>
<path d="M26.8041 22.3717C26.8406 22.4062 26.8921 22.4304 26.8998 22.4649C27.0543 23.1614 27.81 23.2247 28.2383 23.0404C28.3054 23.0156 28.3631 22.9706 28.4034 22.9116C28.4437 22.8525 28.4646 22.7824 28.4633 22.7109C28.4678 22.6393 28.448 22.5683 28.407 22.5093C28.3661 22.4504 28.3065 22.4069 28.2378 22.3861C27.9804 22.2929 27.7179 22.2188 27.4605 22.1287C27.3267 22.0843 27.198 22.0259 27.0764 21.9547C26.9613 21.8855 26.8659 21.788 26.7993 21.6714C26.7326 21.5548 26.697 21.4231 26.6958 21.2888C26.6946 21.1545 26.7279 21.0221 26.7925 20.9044C26.857 20.7866 26.9507 20.6874 27.0646 20.6162C27.3086 20.4566 27.5866 20.4067 27.8697 20.384C28.1863 20.3621 28.5043 20.3948 28.8098 20.4808C28.9127 20.5086 28.9431 20.555 28.9395 20.6589C28.9318 20.8937 28.9395 21.1284 28.9395 21.39C28.9076 21.3642 28.8576 21.3447 28.8432 21.3097C28.7964 21.1931 28.7258 21.0876 28.6361 20.9998C28.5463 20.9119 28.4393 20.8437 28.3218 20.7994C28.2043 20.755 28.0789 20.7356 27.9535 20.7423C27.8281 20.7489 27.7054 20.7816 27.5933 20.8381C27.463 20.9019 27.3812 21.0013 27.3807 21.147C27.3768 21.2149 27.3957 21.2822 27.4344 21.3382C27.4731 21.3941 27.5294 21.4355 27.5943 21.4559C27.8728 21.5516 28.1575 21.6288 28.437 21.7215C28.5593 21.7598 28.6773 21.8105 28.7892 21.8728C29.2617 22.1472 29.3153 22.8216 28.8978 23.1758C28.6661 23.3714 28.3892 23.4548 28.0957 23.4847C27.6983 23.5258 27.2967 23.4875 26.9143 23.3719C26.8314 23.3477 26.7995 23.3122 26.8015 23.2216C26.8087 22.9498 26.8041 22.6764 26.8041 22.3717Z" fill="white"/>
<path d="M2.57402 21.3153C2.54056 21.2911 2.48444 21.2721 2.47724 21.2422C2.32537 20.5802 1.50478 20.5251 1.10529 20.8721C0.724341 21.2031 0.632707 21.6443 0.735667 22.1117C0.838627 22.5792 1.13 22.9292 1.62524 23.0384C1.99127 23.1197 2.31456 22.9761 2.62087 22.7902C2.65999 22.7665 2.69757 22.7387 2.76038 22.697C2.73979 22.8886 2.72434 23.0574 2.70015 23.2221C2.69654 23.2484 2.65845 23.2736 2.63065 23.2916C1.65356 23.8991 0.202334 23.5264 0.0170055 22.1153C-0.107061 21.1707 0.455616 20.3547 1.44712 20.2106C1.79141 20.1599 2.14257 20.1839 2.47672 20.2811C2.51379 20.2919 2.56887 20.3326 2.56939 20.3609C2.57659 20.6662 2.57402 20.9735 2.57402 21.3153Z" fill="white"/>
<path d="M15.6017 22.0422C15.6496 22.0422 15.6974 22.0458 15.7453 22.0489C16.0815 22.0705 16.3826 21.9562 16.4475 21.6165C16.5283 21.1928 16.4068 20.8839 15.8853 20.871C15.7793 20.868 15.6727 20.8839 15.5533 20.8916C15.5507 20.9431 15.5461 20.9828 15.5461 21.0234C15.5461 21.6707 15.5461 22.3176 15.5461 22.9642C15.5461 23.1902 15.5626 23.2077 15.7777 23.2849C15.8107 23.2968 15.8292 23.3426 15.8766 23.3946H14.6982C14.6668 23.3431 14.6771 23.3097 14.7497 23.2705C14.8071 23.2325 14.8495 23.1757 14.8696 23.1099C14.8868 23.0392 14.8925 22.9662 14.8866 22.8937C14.8866 22.2255 14.8866 21.5573 14.8866 20.8891C14.8866 20.7614 14.9041 20.6219 14.7173 20.5961C14.6992 20.5936 14.69 20.5318 14.6658 20.4752H14.8434C15.229 20.4752 15.6156 20.4695 15.9996 20.4782C16.1703 20.4801 16.3402 20.501 16.5062 20.5405C16.9021 20.6435 17.1239 20.9416 17.1306 21.3457C17.1353 21.7807 16.9113 22.105 16.5206 22.2245C16.3668 22.2906 16.1977 22.3131 16.0319 22.2896C15.8661 22.2661 15.71 22.1974 15.5806 22.0911L15.6017 22.0422Z" fill="white"/>
<path d="M7.69163 23.3936H6.75366C6.78712 23.3477 6.80978 23.3122 6.83706 23.2808C6.89163 23.2185 6.97194 23.1686 7.00128 23.0965C7.31325 22.3243 7.61904 21.5485 7.92483 20.7743C7.96602 20.6713 7.9377 20.6147 7.83629 20.5761C7.80488 20.5642 7.78481 20.5205 7.74208 20.4695H8.62239L8.95752 21.5104C9.11711 22.0019 9.27653 22.4934 9.43577 22.9848C9.47644 23.1094 9.52741 23.2232 9.6592 23.2829C9.68648 23.2952 9.69575 23.3488 9.71891 23.3936H8.57966C8.55392 23.3421 8.55083 23.303 8.63783 23.2772C8.78403 23.2345 8.81286 23.1897 8.77631 23.0409C8.7341 22.8669 8.67644 22.6965 8.61878 22.5261C8.61127 22.5104 8.60003 22.4967 8.58604 22.4863C8.57204 22.4759 8.55571 22.4691 8.53848 22.4664C8.26923 22.4618 7.99948 22.4633 7.72406 22.4633C7.65044 22.6692 7.57786 22.8705 7.50784 23.0718C7.4682 23.1846 7.50784 23.2607 7.62522 23.2803C7.722 23.2973 7.7045 23.3431 7.69163 23.3936ZM8.22702 21.112C8.1045 21.4569 7.98815 21.7812 7.86666 22.121H8.4803C8.39742 21.7874 8.31454 21.4595 8.22702 21.112Z" fill="white"/>
<path d="M9.28752 17.5547C9.24839 17.5032 9.21493 17.4595 9.17992 17.4162C9.15573 17.3869 9.12844 17.3601 9.10425 17.3323C11.774 14.3933 16.7949 14.1524 19.7812 17.2952L19.5753 17.4904C18.1498 16.0592 16.4432 15.2988 14.4221 15.3102C12.401 15.3215 10.7079 16.0947 9.28752 17.5547Z" fill="white"/>
<path d="M14.5906 13.3586L15.5738 12.9282L14.6395 12.242L14.6616 12.2028C14.7821 12.2126 14.9031 12.2276 15.022 12.2322C15.441 12.2471 15.8601 12.2636 16.2796 12.2672C16.3588 12.2643 16.4339 12.2313 16.4897 12.175C16.8233 11.8013 17.1471 11.4198 17.4735 11.0425C17.5064 11.0044 17.5342 10.9611 17.5831 10.8952C17.6404 11.3024 17.6312 11.7162 17.5558 12.1205C18.1031 12.0153 18.6302 11.8242 19.1177 11.5542C17.8343 12.7233 16.3249 13.3333 14.5906 13.3586Z" fill="white"/>
<path d="M9.6494 2.51275L10.5884 2.38868L10.5997 2.42266C10.5004 2.49988 10.3974 2.57298 10.3011 2.65432C10.0134 2.89731 9.72559 3.14081 9.44399 3.391C9.39301 3.44049 9.35728 3.50355 9.34103 3.57273C9.22602 4.03768 9.1664 4.51461 9.16342 4.99357C9.16342 5.01365 9.16034 5.03424 9.15931 5.05432L9.1243 5.07182L8.63987 4.25432C8.3604 4.58751 8.11595 4.94857 7.9104 5.3318C8.1956 3.70657 9.03112 2.41031 10.2877 1.34312L9.6494 2.51275Z" fill="white"/>
<path d="M17.2009 24.7974C17.4794 24.7974 17.7276 24.7974 17.9757 24.7974C18.0055 24.8023 18.0343 24.8119 18.0612 24.8257C18.0406 24.8458 18.0231 24.8772 17.9989 24.8839C17.9057 24.906 17.8789 24.9653 17.8794 25.0533C17.8794 25.5032 17.8794 25.9526 17.8794 26.4026C17.8794 26.6502 17.9886 26.7768 18.2043 26.8062C18.5029 26.8463 18.6836 26.7655 18.7402 26.557C18.7577 26.4819 18.7656 26.405 18.7639 26.3279C18.7664 25.9125 18.7639 25.497 18.7639 25.0816C18.7639 24.9822 18.7551 24.8896 18.6228 24.8798C18.6068 24.8798 18.5935 24.8489 18.5785 24.8319C18.5966 24.8196 18.6151 24.7954 18.6331 24.7954C18.8819 24.7933 19.1302 24.7933 19.378 24.7954C19.3966 24.7954 19.4141 24.8201 19.4326 24.8329C19.4207 24.8484 19.412 24.8746 19.3976 24.8777C19.2725 24.904 19.2709 24.9997 19.2704 25.0965C19.2704 25.5248 19.2704 25.9532 19.2642 26.3835C19.2565 26.7696 19.0805 26.9874 18.7057 27.0759C18.4507 27.1372 18.1849 27.1372 17.9299 27.0759C17.5458 26.9843 17.3739 26.7671 17.3672 26.3732C17.3605 25.9537 17.3646 25.5336 17.3672 25.114C17.3672 25.0111 17.3806 24.9019 17.2354 24.8767C17.2236 24.8752 17.2169 24.834 17.2009 24.7974Z" fill="white"/>
<path d="M16.3919 25.5269C16.3605 25.5042 16.3213 25.4903 16.3085 25.4636C16.154 25.1444 15.9599 25.0342 15.5877 25.0625C15.3221 25.0826 15.1002 25.2746 15.0179 25.564C14.9715 25.7206 14.9598 25.8855 14.9837 26.0471C15.0075 26.2088 15.0662 26.3632 15.1558 26.4999C15.3103 26.749 15.5558 26.8407 15.804 26.7573C15.8631 26.7429 15.9152 26.7081 15.9511 26.6591C15.987 26.61 16.0044 26.5497 16.0001 26.4891C16.0001 26.4206 16.0001 26.3521 16.0001 26.2831C16.0037 26.1802 15.9661 26.1205 15.856 26.1122C15.8318 26.1122 15.8101 26.0783 15.7875 26.0607C15.8107 26.0438 15.8333 26.0124 15.8565 26.0118C16.1216 26.0088 16.3867 26.0118 16.6982 26.0118C16.657 26.0633 16.6395 26.1066 16.6122 26.1148C16.5092 26.14 16.4907 26.21 16.4912 26.2986V27.0476C16.3033 27.0857 16.3033 27.0857 16.2127 26.8613C16.1945 26.8662 16.1772 26.8738 16.1612 26.8839C15.6428 27.3349 14.763 27.1223 14.5242 26.3568C14.3512 25.8023 14.5391 25.1954 14.9983 24.9338C15.4143 24.6965 15.8544 24.6976 16.2982 24.8618C16.3292 24.8695 16.3562 24.8885 16.374 24.915C16.3918 24.9416 16.3991 24.9738 16.3944 25.0054C16.3872 25.1737 16.3919 25.3375 16.3919 25.5269Z" fill="white"/>
<path d="M20.6904 25.0749V25.7287C20.867 25.7287 21.0374 25.7354 21.2052 25.7241C21.2474 25.7215 21.287 25.6633 21.3246 25.6273C21.3483 25.596 21.381 25.5726 21.4183 25.5604V26.245C21.3745 26.1992 21.3524 26.1719 21.3262 26.1498C21.2809 26.1117 21.2361 26.0468 21.1866 26.0468C21.0255 26.034 20.8628 26.0422 20.6914 26.0422V26.7588C20.9812 26.7588 21.2675 26.7665 21.5527 26.7552C21.6747 26.7506 21.7071 26.6363 21.7349 26.5349C21.7627 26.4335 21.7637 26.4319 21.8703 26.4288C21.8569 26.6348 21.844 26.8438 21.8307 27.0595H20.0011C20.0206 27.0245 20.0314 26.9797 20.0494 26.9766C20.173 26.9539 20.172 26.8659 20.1715 26.7707C20.1715 26.2136 20.1715 25.6566 20.1715 25.0996C20.1715 25.0044 20.1715 24.9174 20.0484 24.8937C20.0304 24.8906 20.0206 24.8468 19.9995 24.8077H21.7545C21.7637 24.9776 21.7725 25.1465 21.7818 25.3148L21.7529 25.3395C21.7272 25.3112 21.6875 25.288 21.6788 25.2535C21.6687 25.2002 21.6391 25.1525 21.5958 25.1197C21.5526 25.0869 21.4987 25.0713 21.4446 25.0759C21.1975 25.0739 20.9524 25.0749 20.6904 25.0749Z" fill="white"/>
<path d="M10.2749 25.0708V25.7457C10.5272 25.7045 10.8098 25.8656 11.009 25.5799V26.2409C10.9647 26.2008 10.9405 26.1776 10.9148 26.1565C10.8685 26.1189 10.8232 26.0535 10.7732 26.051C10.6121 26.0371 10.4499 26.0458 10.2785 26.0458V26.7542C10.5694 26.7542 10.8592 26.7629 11.148 26.7501C11.268 26.7444 11.2968 26.6239 11.3251 26.5236C11.3534 26.4232 11.3529 26.4242 11.4595 26.4263C11.4456 26.6322 11.4322 26.8412 11.4178 27.0564H9.58301C9.61132 27.0173 9.62625 26.974 9.6489 26.9689C9.75186 26.9467 9.75547 26.8726 9.75547 26.7918C9.75547 26.2219 9.75547 25.652 9.75547 25.0821C9.75547 24.9889 9.74517 24.9112 9.63243 24.8901C9.61596 24.887 9.60669 24.8474 9.58455 24.8088H11.3411C11.3508 24.9771 11.3601 25.1424 11.3694 25.3076L11.3441 25.3349C11.3184 25.3128 11.2752 25.2942 11.27 25.268C11.2381 25.1135 11.1362 25.0703 10.9972 25.0708C10.7593 25.0708 10.5199 25.0708 10.2749 25.0708Z" fill="white"/>
<path d="M12.6347 27.0569H11.8784C11.8908 27.0252 11.906 26.9947 11.9237 26.9658C11.9752 26.9009 12.0468 26.8468 12.0782 26.7743C12.3088 26.208 12.5307 25.6391 12.7572 25.0713C12.7917 24.9853 12.8051 24.9169 12.6923 24.8788C12.6743 24.8731 12.6666 24.8335 12.646 24.7933C12.8648 24.7933 13.0578 24.7876 13.2483 24.7979C13.2828 24.7979 13.3291 24.8607 13.3435 24.9035C13.5201 25.4389 13.6921 25.9758 13.865 26.5127C13.8869 26.5995 13.9156 26.6844 13.951 26.7665C13.9966 26.836 14.0483 26.9013 14.1054 26.9616C14.1255 26.9874 14.1425 27.0131 14.1713 27.0569H13.2751L13.2529 27.0291C13.2802 27.0064 13.3044 26.973 13.3348 26.9627C13.4146 26.9354 13.448 26.8818 13.428 26.8051C13.3919 26.6651 13.3497 26.5261 13.3029 26.3892C13.2957 26.3676 13.2514 26.347 13.2246 26.3459C13.045 26.3423 12.8643 26.3403 12.6851 26.3459C12.6643 26.3496 12.6446 26.3579 12.6275 26.3703C12.6103 26.3827 12.5962 26.3989 12.5863 26.4175C12.5348 26.5302 12.4951 26.6476 12.4555 26.765C12.4236 26.8597 12.419 26.9447 12.5502 26.9709C12.5734 26.9755 12.5909 27.01 12.6347 27.0569ZM13.1968 26.07C13.1314 25.81 13.0692 25.564 13.0017 25.2978C12.906 25.566 12.8184 25.8126 12.7263 26.07H13.1968Z" fill="white"/>
<path d="M18.8716 23.3936H17.7906C17.8106 23.356 17.8245 23.2963 17.8477 23.2906C17.9918 23.2664 18.0021 23.164 18.0021 23.0512C18.0021 22.6315 18.0021 22.2118 18.0021 21.792V20.8041C18.0021 20.6945 17.9826 20.6008 17.8477 20.5725C17.8204 20.5663 17.8029 20.5143 17.771 20.4695H18.8788C18.8449 20.5148 18.8274 20.5673 18.797 20.5725C18.6848 20.5992 18.6575 20.6754 18.6565 20.7737C18.6565 20.9575 18.6565 21.1418 18.6565 21.3261C18.6565 21.8914 18.6565 22.4566 18.6565 23.0219C18.6565 23.1444 18.6528 23.269 18.8227 23.2927C18.8454 23.2968 18.8552 23.355 18.8716 23.3936Z" fill="white"/>
<path d="M11.3097 19.7683L11.1465 19.5897C12.6301 17.758 15.8677 17.4214 17.7751 19.6556L17.5872 19.8409C16.7599 18.8999 15.7292 18.382 14.4742 18.3655C13.2191 18.349 12.1709 18.836 11.3097 19.7683Z" fill="white"/>
<path d="M13.7287 15.773C13.7539 15.8976 13.7756 16.0077 13.7992 16.1251C13.5146 16.1817 13.2474 16.2373 12.9792 16.2862C12.9009 16.3006 12.8762 16.3254 12.9019 16.4052C12.9318 16.5019 12.9473 16.6034 12.9714 16.714L13.8085 16.5431C13.8348 16.6523 13.86 16.7583 13.8893 16.8793L13.059 17.06C13.0538 17.0806 13.0487 17.0893 13.0502 17.096C13.1269 17.4564 13.1532 17.4713 13.5295 17.3869C13.6947 17.3493 13.8615 17.3174 14.0366 17.2839C14.0644 17.4034 14.088 17.5063 14.1169 17.6319C13.7714 17.6834 13.4476 17.8224 13.094 17.7761C13.0117 17.7675 12.9343 17.7324 12.8736 17.6762C12.8129 17.6199 12.7721 17.5455 12.7573 17.4641C12.659 17.0358 12.5699 16.6054 12.4834 16.1745C12.4639 16.0783 12.5303 16.0257 12.6209 16.0062L13.5599 15.8044C13.6098 15.7951 13.6592 15.7864 13.7287 15.773Z" fill="white"/>
<path d="M8.27127 24.8283C8.24708 24.8489 8.22597 24.8798 8.19817 24.8885C8.16229 24.895 8.12993 24.9141 8.10704 24.9425C8.08415 24.9709 8.07228 25.0066 8.07359 25.043C8.07359 25.6093 8.07359 26.173 8.07359 26.749C8.33408 26.749 8.58839 26.7629 8.84579 26.7429C8.97449 26.7331 9.02906 26.6059 9.06818 26.4855C9.08105 26.4458 9.12224 26.4154 9.15055 26.3825L9.19071 26.4046C9.16445 26.6183 9.13923 26.8319 9.11091 27.0553H7.37964C7.41207 27.0142 7.42752 26.973 7.4512 26.9678C7.54849 26.9477 7.55416 26.8752 7.55416 26.801C7.55416 26.2176 7.55416 25.6352 7.55416 25.0538C7.55416 24.9776 7.53974 24.9097 7.4512 24.8839C7.43009 24.8777 7.41619 24.8468 7.39972 24.8278C7.42115 24.8127 7.44526 24.8019 7.47076 24.7959C7.72816 24.7959 7.98556 24.7959 8.24296 24.7959L8.27127 24.8283Z" fill="white"/>
<path d="M10.7234 16.8855L11.0147 16.6435C11.0889 16.7336 11.1594 16.818 11.2284 16.9009C11.3978 17.1104 11.5712 17.3174 11.735 17.5315C11.9604 17.8255 11.9707 18.1493 11.7725 18.4355C11.5424 18.7686 11.1682 18.9266 10.8289 18.8093C10.696 18.7639 10.5764 18.6862 10.4809 18.5833C10.2266 18.295 9.99338 17.9882 9.74268 17.6772L10.032 17.4414L10.6214 18.1622C10.657 18.2054 10.6909 18.2492 10.7275 18.2909C10.9756 18.574 11.3869 18.4911 11.5115 18.1323C11.5682 17.9696 11.4884 17.8394 11.3957 17.7205C11.2109 17.4847 11.0194 17.2541 10.8294 17.0214C10.7965 16.9781 10.763 16.9369 10.7234 16.8855Z" fill="white"/>
<path d="M17.48 18.2754L17.7889 18.0767L17.9433 18.1833C18.0025 17.9851 18.0591 17.7972 18.1235 17.583C18.072 17.6098 18.0427 17.6216 18.0164 17.6386C17.6967 17.8445 17.376 18.0505 17.0599 18.2631C16.9848 18.3145 16.9271 18.3187 16.854 18.2667C16.7809 18.2147 16.7032 18.1735 16.6172 18.1215C16.646 18.0983 16.6635 18.0813 16.6841 18.07C17.1835 17.7474 17.6832 17.4251 18.1832 17.1032C18.3335 17.0064 18.4005 17.0188 18.5235 17.1341C18.6064 17.2113 18.5853 17.2968 18.5606 17.3833C18.45 17.778 18.338 18.1726 18.2244 18.5673C18.1667 18.7732 18.108 18.9745 18.0442 19.1979C17.9459 19.1089 17.8558 19.0373 17.7796 18.9529C17.7669 18.9329 17.7585 18.9105 17.755 18.8871C17.7515 18.8637 17.7528 18.8398 17.759 18.817C17.8265 18.5596 17.829 18.5596 17.62 18.3949C17.5783 18.3583 17.5361 18.3228 17.48 18.2754Z" fill="white"/>
<path d="M16.7619 16.1508L16.6672 16.5004C16.4613 16.4453 16.2729 16.3938 16.0834 16.3459C15.7884 16.2687 15.7498 16.2945 15.6824 16.5936C15.6777 16.6142 15.6731 16.6347 15.6659 16.6687C15.8034 16.7053 15.9382 16.7418 16.0726 16.7768L16.488 16.8798C16.4561 16.9972 16.4278 17.1022 16.3969 17.2175L15.5701 17.0028C15.5048 17.2541 15.4414 17.5001 15.3781 17.7447C15.0337 17.6932 15.0106 17.6571 15.0976 17.3292C15.1804 17.0152 15.2602 16.7006 15.3426 16.3866C15.4384 16.0263 15.6417 15.8883 16.0072 15.9614C16.2538 16.0103 16.4952 16.0834 16.7619 16.1508Z" fill="white"/>
<path d="M22.4196 28C22.3651 28.0012 22.3108 27.9915 22.26 27.9715C22.2093 27.9515 22.163 27.9216 22.1238 27.8836C22.0847 27.8456 22.0535 27.8001 22.0321 27.7499C22.0107 27.6998 21.9994 27.6458 21.999 27.5912C21.9998 27.481 22.044 27.3754 22.1221 27.2975C22.2001 27.2195 22.3057 27.1754 22.416 27.1748C22.526 27.1758 22.6314 27.2191 22.7102 27.2958C22.789 27.3725 22.8352 27.4767 22.8392 27.5866C22.8382 27.697 22.7935 27.8026 22.7149 27.8801C22.6362 27.9576 22.53 28.0007 22.4196 28ZM22.7486 27.5907C22.7509 27.5458 22.7438 27.5008 22.7279 27.4587C22.7121 27.4165 22.6876 27.3781 22.6562 27.3458C22.6248 27.3136 22.5871 27.2881 22.5454 27.2711C22.5037 27.254 22.459 27.2458 22.414 27.2468C22.325 27.2478 22.2399 27.2836 22.1769 27.3465C22.114 27.4094 22.0782 27.4945 22.0773 27.5835C22.0769 27.6745 22.1116 27.7621 22.1741 27.8281C22.2366 27.8942 22.3221 27.9336 22.4129 27.9382C22.4578 27.9384 22.5023 27.9295 22.5437 27.9121C22.5851 27.8947 22.6226 27.8692 22.6539 27.837C22.6852 27.8048 22.7098 27.7666 22.726 27.7248C22.7423 27.6829 22.75 27.6382 22.7486 27.5933V27.5907Z" fill="white"/>
<path d="M22.3388 27.635L22.3192 27.8409C22.2497 27.7745 22.2364 27.6129 22.2678 27.3725C22.4433 27.3272 22.5808 27.3483 22.5947 27.4384C22.6044 27.5012 22.5597 27.5717 22.5391 27.6391L22.4989 27.6319L22.6055 27.8167L22.5797 27.8394L22.3738 27.6113L22.3388 27.635ZM22.3362 27.5763C22.4093 27.5542 22.4675 27.5398 22.5221 27.5176C22.5298 27.5145 22.5283 27.4548 22.5195 27.4517C22.4639 27.4306 22.4057 27.4183 22.3362 27.4003V27.5763Z" fill="white"/>
</svg>
