<svg width="14" height="30" viewBox="0 0 14 30" fill="none" xmlns="http://www.w3.org/2000/svg">
<g clip-path="url(#clip0_237_264)">
<path d="M13.9823 6.67586V7.78293C13.9746 7.79875 13.9682 7.81525 13.9634 7.83221C13.9406 7.93774 13.9198 8.04389 13.9002 8.14816C13.837 8.45778 13.7738 8.76719 13.7106 9.0764C13.6566 9.36958 13.5814 9.65847 13.4857 9.94081C13.4048 10.1645 13.3277 10.3888 13.2462 10.6119C13.1577 10.8539 13.0705 11.0965 12.9745 11.3354C12.8905 11.5439 12.8007 11.7499 12.7034 11.9527C12.5227 12.3281 12.3388 12.7022 12.1486 13.0731C11.985 13.389 11.8112 13.705 11.6393 14.0209C11.4782 14.3154 11.3133 14.6079 11.1502 14.9017C10.9695 15.2259 10.7863 15.5488 10.6075 15.8742C10.5032 16.0638 10.4046 16.2578 10.3029 16.4499C10.0712 16.8905 9.8395 17.3305 9.60781 17.7699C9.568 17.8444 9.54462 17.931 9.46374 17.9784C9.45426 17.9841 9.44984 17.9986 9.44415 18.01C9.35127 18.209 9.25964 18.4087 9.16612 18.6077C9.1339 18.6754 9.11557 18.7392 9.17497 18.803C9.1912 18.8257 9.20457 18.8503 9.21478 18.8763C9.34116 19.105 9.46311 19.3332 9.58633 19.5625C9.65331 19.6889 9.71965 19.8115 9.78221 19.9385C9.81719 19.9998 9.83509 20.0695 9.83403 20.1401C9.79738 20.123 9.77084 20.1091 9.74367 20.0977C9.69347 20.0743 9.64123 20.0554 9.58759 20.0415C9.54267 20.034 9.49658 20.0382 9.45374 20.0536C9.41091 20.0691 9.37277 20.0953 9.34301 20.1298C9.31324 20.1642 9.29284 20.2058 9.28377 20.2504C9.27471 20.295 9.27728 20.3413 9.29124 20.3846C9.34879 20.552 9.44241 20.7047 9.56547 20.832C9.64762 20.9242 9.73103 21.0159 9.81823 21.1018C9.93007 21.2111 10.0539 21.3091 10.1607 21.4228C10.2832 21.5447 10.3729 21.6955 10.4217 21.8613C10.4419 21.9378 10.4609 22.0149 10.4849 22.1008C10.5778 21.956 10.6239 21.7862 10.6169 21.6143C10.7948 21.7974 10.9127 22.0304 10.955 22.2822L10.9303 22.3036C10.926 22.2887 10.9201 22.2743 10.9127 22.2607C10.8691 22.2019 10.8255 22.1425 10.7781 22.0869C10.7706 22.0794 10.7618 22.0735 10.752 22.0695C10.7422 22.0654 10.7318 22.0634 10.7212 22.0635C10.713 22.0635 10.7016 22.0951 10.6991 22.1134C10.6922 22.1531 10.6884 22.1932 10.6877 22.2335C10.6833 22.3747 10.6871 22.5161 10.6991 22.6569C10.7281 22.8831 10.8533 23.0771 10.9373 23.285C10.9651 23.3545 11.0251 23.3608 11.075 23.3033C11.1806 23.1832 11.2463 23.0505 11.2172 22.8812C11.2164 22.8659 11.2175 22.8507 11.2204 22.8357C11.2905 22.9624 11.3538 23.0927 11.4099 23.2262C11.4169 23.2439 11.4005 23.278 11.3853 23.297C11.3348 23.3602 11.2791 23.4233 11.2261 23.4897C11.2162 23.5074 11.2079 23.5261 11.2014 23.5453C11.2245 23.544 11.2475 23.5413 11.2703 23.5371C11.3385 23.5188 11.4068 23.5004 11.4744 23.479C11.5174 23.465 11.5414 23.479 11.554 23.52C11.573 23.5883 11.5957 23.6552 11.6172 23.7229C11.6387 23.7905 11.6311 23.7987 11.561 23.8164L11.5016 23.829C11.4251 23.8448 11.348 23.8587 11.2722 23.8783C11.1964 23.8979 11.1945 23.9156 11.2444 23.9756C11.3171 24.0628 11.3809 24.1563 11.4479 24.2473C11.4599 24.2631 11.4687 24.2808 11.482 24.301C11.5061 24.2811 11.5314 24.2627 11.5578 24.2461C11.606 24.22 11.6558 24.197 11.7069 24.1772C11.7531 24.1601 11.7834 24.1772 11.7941 24.2303C11.8112 24.3118 11.8327 24.3927 11.851 24.4735C11.8586 24.507 11.8643 24.5405 11.8731 24.5873L11.7821 24.5576C11.712 24.5361 11.6425 24.5127 11.5717 24.4944C11.5496 24.4887 11.5085 24.4868 11.5035 24.4975C11.4981 24.5097 11.4954 24.5228 11.4954 24.5361C11.4954 24.5494 11.4981 24.5625 11.5035 24.5746C11.5325 24.6378 11.5711 24.6928 11.6039 24.7528C11.6109 24.7692 11.624 24.7821 11.6404 24.789C11.6568 24.7958 11.6752 24.796 11.6918 24.7895C11.7404 24.7762 11.7897 24.7642 11.8396 24.7554C11.8737 24.749 11.9028 24.7554 11.9142 24.7977C11.9344 24.8988 11.9603 24.9993 11.9774 25.101C11.9944 25.2027 12.0027 25.2956 12.0115 25.3936C12.026 25.5623 12.0494 25.7304 12.0494 25.8991C12.0494 26.1253 12.0317 26.3521 12.0197 26.579C12.0154 26.6569 12.007 26.7345 11.9944 26.8115C11.9881 26.8501 11.9609 26.8854 11.9534 26.924C11.9376 27.0042 11.9287 27.0864 11.9167 27.1679C11.8704 27.4833 11.7806 27.7908 11.6501 28.0816C11.581 28.2527 11.489 28.4137 11.3765 28.5599C11.3316 28.607 11.2934 28.66 11.2627 28.7173C11.2125 28.8306 11.1381 28.9315 11.0447 29.013C11.0049 29.0478 10.9664 29.0844 10.9253 29.1179C10.6789 29.315 10.4312 29.509 10.1392 29.6392C9.91461 29.7409 9.68217 29.8244 9.44415 29.8888C9.41836 29.899 9.39014 29.9015 9.36297 29.8959C9.3358 29.8902 9.31086 29.8768 9.29124 29.8572C9.24808 29.8177 9.19549 29.7899 9.13851 29.7765C9.08153 29.7631 9.02207 29.7646 8.96582 29.7807C8.8565 29.8022 8.74971 29.8332 8.64229 29.8629C8.53487 29.8926 8.42935 29.9261 8.32256 29.9558C8.29541 29.9637 8.2664 29.9622 8.24017 29.9517C8.21394 29.9411 8.192 29.9221 8.17785 29.8976L8.25115 29.8553C8.31434 29.8205 8.37437 29.7877 8.43314 29.7498C8.57973 29.655 8.73328 29.5811 8.914 29.5893C9.06944 29.5969 9.22552 29.6101 9.3816 29.619C9.46539 29.6314 9.55056 29.6314 9.63435 29.619C9.71713 29.5969 9.786 29.5286 9.86625 29.4926C9.96925 29.4471 9.99768 29.3624 10.0198 29.2651C10.0317 29.2118 10.0509 29.1604 10.0767 29.1122C10.1108 29.049 10.1557 28.9947 10.1942 28.9359C10.222 28.8936 10.2144 28.8588 10.1759 28.8424C10.1089 28.8146 10.1 28.8019 10.1184 28.7331C10.1329 28.6768 10.1538 28.6225 10.1715 28.5669C10.1803 28.5385 10.1917 28.5088 10.1506 28.4904C10.1423 28.4968 10.1347 28.504 10.1279 28.5119C10.0596 28.6162 9.96735 28.6383 9.85045 28.601C9.79914 28.5877 9.74582 28.5838 9.69311 28.5896C9.6281 28.5995 9.56717 28.6274 9.51723 28.6702C9.4673 28.713 9.43038 28.7689 9.41066 28.8316C9.39866 28.8784 9.38539 28.9245 9.37591 28.9713C9.34811 29.1109 9.38096 29.1767 9.50924 29.2411C9.5315 29.2496 9.55551 29.2524 9.57913 29.2493C9.60275 29.2463 9.62525 29.2374 9.64459 29.2235C9.66394 29.2096 9.67953 29.1911 9.68999 29.1697C9.70044 29.1483 9.70542 29.1246 9.70449 29.1008H9.66026C9.58696 29.1008 9.5699 29.0882 9.56611 29.0168C9.56713 28.9779 9.57668 28.9398 9.59409 28.905C9.61149 28.8702 9.63632 28.8397 9.66682 28.8156C9.69732 28.7915 9.73275 28.7744 9.7706 28.7655C9.80844 28.7565 9.84779 28.7561 9.88584 28.764C9.89988 28.7656 9.91344 28.7701 9.92565 28.7772C9.93787 28.7842 9.94848 28.7938 9.9568 28.8052C9.96512 28.8166 9.97097 28.8296 9.97399 28.8434C9.977 28.8572 9.97711 28.8715 9.9743 28.8854C9.97017 28.9532 9.95612 29.02 9.9326 29.0838C9.90442 29.1616 9.85561 29.2303 9.79138 29.2825C9.72716 29.3347 9.64994 29.3684 9.568 29.3801C9.52281 29.3863 9.47849 29.3978 9.43594 29.4142C9.34851 29.4468 9.2536 29.4539 9.16233 29.4345C9.00797 29.4041 8.84842 29.4132 8.69853 29.461C8.57607 29.5027 8.46491 29.5721 8.37374 29.6638C8.26316 29.7776 8.14752 29.8875 8.03442 29.9987H7.89856C7.91227 29.9693 7.92855 29.9412 7.94722 29.9147C8.01672 29.8307 8.09002 29.7504 8.1589 29.667C8.20446 29.6204 8.22988 29.5578 8.22967 29.4926C8.16915 29.5089 8.10965 29.5287 8.05148 29.552C7.95164 29.6 7.85433 29.6544 7.75639 29.7068C7.68518 29.7404 7.62349 29.7912 7.57693 29.8547C7.54942 29.8875 7.51988 29.9185 7.48847 29.9476C7.47512 29.9626 7.45715 29.9729 7.43737 29.9766C7.41759 29.9804 7.39711 29.9775 7.37915 29.9684C7.29006 29.9406 7.19907 29.9198 7.10934 29.8957L7.02151 29.8717L7.26225 29.619L7.13588 29.54C7.13635 29.5318 7.13784 29.5238 7.1403 29.516C7.14714 29.5056 7.15544 29.4962 7.16494 29.4882C7.22354 29.4506 7.27335 29.4009 7.31097 29.3423C7.34859 29.2837 7.37314 29.2178 7.38294 29.1489C7.38932 29.1281 7.39438 29.107 7.39811 29.0857C7.39884 29.0482 7.39438 29.0107 7.38484 28.9745C7.38378 28.966 7.38026 28.958 7.3747 28.9515C7.36915 28.945 7.36181 28.9403 7.3536 28.9379C7.34539 28.9356 7.33666 28.9357 7.32851 28.9382C7.32036 28.9408 7.31314 28.9457 7.30775 28.9523C7.18137 29.0623 7.05057 29.1716 6.92862 29.2866C6.84963 29.3599 6.89513 29.4446 6.9242 29.5255C6.94947 29.5943 7.00444 29.5918 7.06195 29.5886C7.06195 29.5886 7.06826 29.595 7.07522 29.6032C7.04046 29.6664 7.00318 29.7296 6.97032 29.7927C6.96637 29.8034 6.96023 29.8131 6.95229 29.8212C6.94435 29.8293 6.9348 29.8356 6.92425 29.8398C6.91371 29.8439 6.9024 29.8459 6.89107 29.8454C6.87974 29.8449 6.86863 29.842 6.85848 29.837C6.72136 29.7921 6.58361 29.7498 6.44649 29.7055C6.43963 29.7023 6.43343 29.6978 6.42817 29.6923L6.43448 29.6733L6.87175 29.7561C6.82329 29.6462 6.74654 29.5511 6.64933 29.4806C6.58108 29.4332 6.50905 29.3909 6.43954 29.3454C6.37559 29.3137 6.30521 29.2973 6.23386 29.2973C6.16251 29.2973 6.09213 29.3137 6.02818 29.3454C6.02439 29.3454 6.02313 29.3542 6.02123 29.3586C6.03703 29.4414 6.03703 29.4414 5.95804 29.4749C5.94136 29.4807 5.92528 29.4881 5.91002 29.497C5.76921 29.5883 5.60073 29.627 5.43421 29.6063C5.3647 29.6 5.29267 29.6177 5.23074 29.5672C5.21494 29.5591 5.19684 29.5569 5.17956 29.5608C5.05338 29.5644 4.92775 29.5429 4.80991 29.4977C4.54213 29.4052 4.28973 29.2732 4.06112 29.1059C3.97203 29.0427 3.89494 28.9643 3.80268 28.9087C3.66493 28.8266 3.59037 28.6888 3.48674 28.5776C3.38311 28.4664 3.31171 28.3249 3.19481 28.2225C3.18137 28.2077 3.17162 28.19 3.16638 28.1707C3.0697 27.9262 2.96986 27.6829 2.87824 27.4364C2.84101 27.3335 2.81144 27.2279 2.78977 27.1205C2.76892 27.0219 2.76134 26.9208 2.7487 26.8204C2.73636 26.7794 2.73313 26.7363 2.73922 26.694C2.75213 26.6402 2.74928 26.5838 2.73101 26.5316C2.7209 26.4722 2.71142 26.4128 2.70131 26.354C2.70078 26.3388 2.6969 26.3239 2.68993 26.3104C2.64128 26.251 2.6615 26.1904 2.67351 26.124C2.68107 26.0627 2.6798 26.0005 2.66971 25.9395C2.66592 25.901 2.64633 25.8637 2.64254 25.8251C2.63907 25.7723 2.63907 25.7193 2.64254 25.6665C2.64633 25.5825 2.62169 25.494 2.68172 25.4182C2.68741 25.4113 2.68551 25.3986 2.68677 25.3885C2.69436 25.3196 2.69815 25.2495 2.71142 25.1806C2.81378 24.6271 2.91552 24.0729 3.02231 23.52C3.07159 23.2673 3.12973 23.0145 3.18849 22.758C3.22324 22.6063 3.29844 22.4641 3.30223 22.3043C3.30422 22.2893 3.30871 22.2748 3.3155 22.2613C3.42608 21.9542 3.53729 21.6484 3.64598 21.3413C3.82164 20.8484 3.99414 20.3549 4.17044 19.8627C4.24121 19.6649 4.33473 19.4741 4.52114 19.3641C4.65405 19.286 4.75585 19.1643 4.80928 19.0197C4.82566 18.9829 4.85274 18.9519 4.887 18.9306C4.89624 18.9269 4.90454 18.9212 4.9113 18.9139C4.91806 18.9066 4.92311 18.8979 4.92607 18.8884C4.92904 18.8789 4.92985 18.8689 4.92845 18.859C4.92704 18.8491 4.92346 18.8397 4.91796 18.8314C4.87183 18.7196 4.83202 18.6046 4.78337 18.4934C4.76091 18.4492 4.73334 18.4079 4.70122 18.3702C4.67016 18.3386 4.64144 18.3048 4.61529 18.2691C4.44678 17.9594 4.27828 17.6485 4.10978 17.3364C3.98972 17.1108 3.86271 16.889 3.75719 16.6571C3.56257 16.2287 3.34394 15.8136 3.11709 15.4016C2.9389 15.0793 2.76323 14.7545 2.58757 14.431C2.52817 14.3223 2.47067 14.2124 2.41254 14.103C2.27984 13.8503 2.14462 13.5975 2.01571 13.3448C1.92662 13.1691 1.8489 12.9878 1.76296 12.8108C1.63658 12.5511 1.49946 12.294 1.36866 12.0342C1.2227 11.7455 1.0761 11.4573 0.93519 11.166C0.818561 10.9306 0.722372 10.6856 0.647682 10.4337C0.533943 10.0324 0.414517 9.63309 0.300145 9.2331C0.24138 9.02711 0.179455 8.82048 0.13396 8.61133C0.106734 8.45998 0.0877497 8.30725 0.07709 8.15384C0.073513 8.07476 0.0466982 7.9985 0 7.93458L0 6.32706C0.0260346 6.29931 0.0462201 6.2666 0.0593552 6.23089C0.0724903 6.19517 0.0783067 6.15718 0.0764581 6.11917C0.0751 6.08128 0.0778543 6.04336 0.0846726 6.00607C0.152724 5.62559 0.24367 5.24957 0.357015 4.88005C0.50941 4.37161 0.719511 3.8823 0.983213 3.42166C1.24516 2.96857 1.56907 2.55427 1.94557 2.19075C2.02266 2.11681 2.10354 2.03657 2.2116 2.02646C2.32122 2.00941 2.42581 1.96865 2.51806 1.90703C2.72026 1.79203 2.92247 1.67955 3.15563 1.63469C3.22294 1.61599 3.28784 1.58948 3.34899 1.5557C3.36542 1.54749 3.37427 1.52284 3.3869 1.50641C3.36873 1.49727 3.34938 1.49068 3.3294 1.48683C3.24915 1.48114 3.16827 1.4824 3.08865 1.47229C3.00904 1.46218 2.98629 1.41353 3.03494 1.34592C3.05026 1.32585 3.06717 1.30704 3.08549 1.28968C3.1866 1.19616 3.2858 1.10517 3.38374 1.01102C3.56299 0.824 3.79219 0.692405 4.04406 0.631885C4.22605 0.588917 4.40487 0.531416 4.58812 0.495398C4.96725 0.420204 5.35017 0.354488 5.73183 0.285612C5.77551 0.269735 5.82189 0.262648 5.86832 0.26476C5.95109 0.283717 6.02692 0.25465 6.10527 0.248963C6.36814 0.230638 6.61078 0.122586 6.87112 0.0802497C6.93483 0.064629 7.00154 0.0661551 7.06447 0.0846729C7.09027 0.0961212 7.11915 0.0986079 7.14652 0.091737C7.17389 0.084866 7.19817 0.0690327 7.21549 0.0467598C7.23131 0.0270431 7.25378 0.0137845 7.27868 0.00947862C7.38737 0.00947862 7.50047 -0.025275 7.60221 0.0454961C7.61965 0.0550213 7.6392 0.0600183 7.65908 0.0600294C7.78545 0.0739309 7.91183 0.0853048 8.03821 0.0998382C8.08331 0.1057 8.12803 0.114139 8.17217 0.125114C8.36635 0.158929 8.55523 0.218206 8.73391 0.301409C8.75715 0.310516 8.7813 0.317083 8.80595 0.320998C8.85249 0.330111 8.89815 0.343219 8.94244 0.360175C9.0606 0.415149 9.17497 0.477705 9.29376 0.532679C9.38286 0.574384 9.47891 0.602187 9.56674 0.645155C9.75821 0.74365 9.96233 0.815305 10.1733 0.8581C10.4261 0.903596 10.6687 0.978158 10.9272 0.959834C10.9499 0.960269 10.9725 0.963884 10.9942 0.970576C11.0536 0.985109 11.1136 0.995851 11.1711 1.01544C11.3577 1.07333 11.5277 1.17493 11.6671 1.31179C11.8257 1.47356 11.9742 1.64606 12.1177 1.82172C12.2478 1.97286 12.3663 2.1336 12.4721 2.30259C12.6491 2.60526 12.8096 2.91805 12.9682 3.23083C13.1186 3.52592 13.2576 3.82606 13.4016 4.12368C13.5978 4.51505 13.7463 4.92851 13.844 5.35523C13.9064 5.6249 13.9424 5.90002 13.9514 6.17668C13.9545 6.32011 13.9609 6.46418 13.9672 6.60762C13.9699 6.63082 13.975 6.65368 13.9823 6.67586ZM6.63479 2.46435C6.55473 2.44898 6.47197 2.45642 6.39594 2.48584C6.24808 2.55576 6.10127 2.62632 5.95552 2.69752C5.94015 2.7063 5.92575 2.71668 5.91255 2.72848C5.77796 2.83843 5.6421 2.94774 5.50877 3.05959C5.42223 3.12476 5.34148 3.19728 5.26739 3.27632C5.04107 3.54176 4.83851 3.82657 4.66205 4.12747C4.5409 4.31682 4.43321 4.51446 4.33979 4.71892C4.16382 5.1629 4.01732 5.618 3.90126 6.08126C3.89133 6.13834 3.87212 6.19341 3.84439 6.24429C3.82699 6.26723 3.81553 6.29412 3.81101 6.32255C3.80649 6.35099 3.80906 6.38011 3.81848 6.40731C3.82095 6.41736 3.82091 6.42785 3.81838 6.43788C3.81585 6.4479 3.81089 6.45715 3.80395 6.46481C3.77804 6.4844 3.74076 6.49325 3.74771 6.53559C3.75394 6.56713 3.76174 6.59834 3.77109 6.62911C3.78758 6.67313 3.79882 6.71894 3.80458 6.76559C3.80458 6.93178 3.79573 7.0986 3.79005 7.26478C3.79065 7.26982 3.79065 7.27491 3.79005 7.27995C3.75213 7.52575 3.79005 7.76903 3.81848 8.01167C3.84252 8.1789 3.87563 8.3447 3.91769 8.50833C3.96887 8.7377 4.02068 8.96645 4.08071 9.19393C4.14074 9.4214 4.19888 9.63309 4.27028 9.84856C4.35823 10.1273 4.46009 10.4015 4.57548 10.67C4.79537 11.1553 5.03107 11.6336 5.27055 12.1094C5.37987 12.3255 5.51193 12.5303 5.63578 12.7413C5.91128 13.2064 6.19247 13.6727 6.46671 14.1416C6.57097 14.3191 6.7024 14.4834 6.75232 14.6894C6.75714 14.7038 6.76394 14.7174 6.77254 14.7299C6.79971 14.7741 6.82688 14.7836 6.8648 14.7488C6.90305 14.7167 6.93315 14.676 6.95263 14.63C7.00192 14.4866 7.04488 14.3413 7.0828 14.1947C7.11428 14.0568 7.1609 13.9229 7.22181 13.7953C7.32039 13.5994 7.42086 13.4029 7.50616 13.2007C7.67551 12.7982 7.83537 12.3913 7.99777 11.985C8.13489 11.6406 8.28022 11.2981 8.40217 10.9474C8.51275 10.6283 8.59553 10.2991 8.69158 9.9743C8.78626 9.65967 8.85847 9.33871 8.90768 9.01384C8.9418 8.78699 8.97087 8.55888 8.99362 8.33077C9.01573 8.08749 9.03279 7.84296 9.03595 7.59842C9.03595 7.38737 9.02395 7.17505 9.00752 6.96653C8.99425 6.78581 8.97466 6.60446 8.94433 6.42564C8.88963 6.07752 8.76772 5.74336 8.58542 5.44179L8.33267 5.02159C8.32632 5.01061 8.31869 5.00042 8.30992 4.99126C8.22777 4.91986 8.15005 4.84277 8.06222 4.77958C7.83853 4.61971 7.60789 4.46806 7.38358 4.30882C7.31103 4.24999 7.22868 4.20443 7.1403 4.17423C6.87894 4.09518 6.60955 4.04559 6.33717 4.02637C6.09999 4.01004 5.86173 4.02064 5.62694 4.05797C5.49695 4.07386 5.36803 4.09749 5.24085 4.12874C5.09666 4.17544 4.95494 4.22943 4.81623 4.2905C4.78865 4.30221 4.76387 4.31966 4.74356 4.34168C4.6987 4.3897 4.65762 4.44152 4.61718 4.49144C4.59886 4.51292 4.58117 4.5382 4.54831 4.51798C4.51545 4.49776 4.52493 4.46553 4.54199 4.43836C4.66078 4.25385 4.76884 4.05923 4.90216 3.88736C5.12775 3.59353 5.34448 3.29338 5.63325 3.05011C5.86366 2.84472 6.12513 2.67709 6.40795 2.55345C6.47493 2.52754 6.54506 2.49911 6.63479 2.46435ZM3.21503 5.55237C3.21503 5.4816 3.21503 5.41083 3.21503 5.34006C3.21931 5.17988 3.17042 5.02279 3.07602 4.89332C2.99157 4.78352 2.89514 4.68348 2.78851 4.59507C2.70956 4.52365 2.61432 4.47266 2.51111 4.44657C2.34303 4.40929 2.17495 4.35748 2.0056 4.40234C1.84953 4.44341 1.69787 4.49965 1.54496 4.5502C1.53134 4.55688 1.51945 4.56661 1.5102 4.57864C1.46787 4.62224 1.4268 4.66647 1.38383 4.7107C1.25437 4.84174 1.15837 5.00203 1.10393 5.178C1.04948 5.35397 1.03821 5.54047 1.07105 5.72172C1.09758 5.89928 1.19742 6.03766 1.29284 6.18173C1.40775 6.35412 1.5813 6.47895 1.78128 6.53306C1.88744 6.56213 1.99928 6.56971 2.10797 6.5893C2.25254 6.61455 2.40139 6.58721 2.52754 6.51221C2.59073 6.47745 2.65392 6.45407 2.71711 6.42122C2.78041 6.39106 2.84017 6.35397 2.8953 6.31064C2.94573 6.26073 2.99181 6.20661 3.03305 6.14887C3.15942 5.99722 3.24094 5.83293 3.21377 5.6282C3.21261 5.60292 3.21303 5.5776 3.21503 5.55237ZM9.57306 27.3726C9.5164 27.4036 9.47377 27.4552 9.45391 27.5166C9.43405 27.5781 9.43847 27.6448 9.46627 27.7031C9.4766 27.7199 9.49319 27.732 9.51239 27.7366C9.5819 27.748 9.65899 27.7461 9.69501 27.6778C9.75125 27.5717 9.79232 27.4579 9.83845 27.3461C9.84124 27.3364 9.84124 27.3261 9.83845 27.3164C9.8296 27.2614 9.81823 27.2071 9.81001 27.1521C9.80761 27.1294 9.79774 27.1082 9.78195 27.0917C9.76617 27.0752 9.74537 27.0645 9.72281 27.0611C9.66468 27.0466 9.60844 27.0251 9.54209 27.0042L9.30703 27.1483C9.25585 27.0219 9.16486 26.9183 9.24384 26.7742C9.28681 26.6978 9.27102 26.6567 9.2034 26.603C9.18977 26.5924 9.17961 26.5779 9.17421 26.5615C9.16881 26.545 9.16841 26.5274 9.17307 26.5107C9.18129 26.4254 9.18761 26.3395 9.18887 26.2542C9.18567 26.1821 9.1639 26.112 9.12568 26.0507C9.10293 26.0899 9.08777 26.1139 9.0764 26.1367C9.03474 26.2365 9.01678 26.3446 9.02395 26.4526C9.02395 26.56 9.0151 26.5689 8.91526 26.6024C8.90528 26.6071 8.89557 26.6123 8.8862 26.6182C8.88749 26.6355 8.88981 26.6528 8.89315 26.67C8.90241 26.7023 8.90374 26.7365 8.89703 26.7695C8.89032 26.8025 8.87577 26.8333 8.8546 26.8595L8.69221 27.0876C8.68441 27.0623 8.67512 27.0374 8.66441 27.0131C8.64214 26.9624 8.6155 26.9138 8.58479 26.8678C8.52792 26.79 8.37374 26.7237 8.31118 26.7591C8.2372 26.8018 8.17009 26.8555 8.11214 26.9183C8.08623 26.9461 8.09192 27.003 8.0837 27.0447C8.0837 27.0592 8.0837 27.0744 8.07802 27.0895C8.06969 27.1447 8.07376 27.2009 8.08994 27.2543C8.10612 27.3076 8.13399 27.3567 8.17154 27.3979C8.17805 27.4048 8.18603 27.4101 8.19489 27.4135C8.20375 27.4169 8.21326 27.4183 8.22272 27.4175C8.27547 27.4032 8.32186 27.3715 8.35442 27.3276C8.38698 27.2837 8.4038 27.2301 8.40217 27.1755C8.40349 27.1572 8.39832 27.139 8.38758 27.1241C8.37684 27.1092 8.3612 27.0985 8.34341 27.094L8.23409 27.3088C8.17596 27.2361 8.14373 27.1736 8.1709 27.0946C8.18247 27.061 8.20324 27.0314 8.23083 27.009C8.25843 26.9867 8.29174 26.9726 8.32698 26.9682C8.3424 26.965 8.35833 26.9653 8.37363 26.969C8.38893 26.9727 8.40321 26.9798 8.41544 26.9897C8.44751 27.0255 8.47196 27.0674 8.48728 27.1129C8.5026 27.1584 8.50847 27.2066 8.50454 27.2545C8.48685 27.3644 8.46979 27.4737 8.45336 27.5837C8.4404 27.6437 8.4505 27.7064 8.48164 27.7593C8.51278 27.8122 8.56268 27.8515 8.62144 27.8693C8.71702 27.9018 8.81507 27.9265 8.91463 27.9432C9.1042 27.9735 9.18887 27.9192 9.25459 27.7372C9.25459 27.7303 9.25901 27.7233 9.26154 27.7157C9.28934 27.6374 9.31209 27.5565 9.34684 27.4813C9.38 27.4054 9.42245 27.3338 9.47322 27.2684C9.48508 27.2542 9.49991 27.2427 9.51667 27.2349C9.53343 27.2271 9.55171 27.223 9.57021 27.223C9.58872 27.223 9.60699 27.2271 9.62375 27.2349C9.64051 27.2427 9.65535 27.2542 9.66721 27.2684C9.70026 27.3035 9.71999 27.349 9.72299 27.3971C9.72599 27.4453 9.71207 27.4929 9.68364 27.5319C9.67304 27.5435 9.66017 27.5528 9.64582 27.5592C9.63147 27.5656 9.61595 27.569 9.60023 27.5691C9.5838 27.5691 9.56295 27.523 9.56042 27.4958C9.56061 27.4545 9.56484 27.4132 9.57306 27.3726ZM9.1023 28.5612C9.14073 28.5207 9.16587 28.4693 9.17434 28.4141C9.18281 28.3589 9.17421 28.3024 9.14969 28.2522C9.14071 28.225 9.12486 28.2007 9.10369 28.1814C9.08251 28.1622 9.05672 28.1487 9.02882 28.1424C9.00092 28.136 8.97185 28.137 8.94443 28.1451C8.91701 28.1533 8.89216 28.1684 8.8723 28.189C8.83245 28.2238 8.79624 28.2625 8.76424 28.3047C8.68589 28.4102 8.61196 28.5189 8.53297 28.6238C8.5216 28.6396 8.49317 28.6427 8.46978 28.6516C8.46384 28.6311 8.4617 28.6096 8.46347 28.5884C8.48179 28.5252 8.5058 28.462 8.52666 28.3938C8.54435 28.3394 8.56141 28.2857 8.57847 28.2314L8.56457 28.2231C8.54688 28.2389 8.52792 28.2541 8.51086 28.2712L8.2164 28.5656C8.20515 28.5794 8.1922 28.5917 8.17785 28.6023C8.16522 28.6092 8.14121 28.6168 8.13362 28.6105C8.12843 28.6041 8.12463 28.5967 8.12246 28.5888C8.12028 28.5808 8.11978 28.5725 8.12099 28.5644C8.12536 28.5498 8.13291 28.5364 8.1431 28.5252C8.19555 28.4449 8.25115 28.3666 8.30107 28.2851C8.34109 28.2258 8.37436 28.1622 8.40028 28.0955C8.41355 28.0663 8.41919 28.0342 8.41667 28.0022C8.41415 27.9702 8.40355 27.9394 8.38587 27.9126C8.36819 27.8859 8.34401 27.864 8.31558 27.8491C8.28716 27.8343 8.25542 27.8268 8.22335 27.8276C8.17556 27.8216 8.12703 27.8269 8.08169 27.8431C8.03635 27.8594 7.99547 27.8861 7.96238 27.9211C7.88656 27.9988 7.88782 28.0108 7.98829 28.0513C8.06917 28.0835 8.09445 28.1182 8.07675 28.1934C8.07124 28.2322 8.05765 28.2694 8.03686 28.3026C8.01607 28.3358 7.98854 28.3643 7.95606 28.3862C7.86823 28.4405 7.78419 28.5012 7.70331 28.5631C7.62977 28.6131 7.57759 28.6888 7.55701 28.7753C7.53644 28.8618 7.54895 28.9529 7.5921 29.0307C7.6477 29.1489 7.74944 29.2506 7.7229 29.3928C7.78043 29.3612 7.84152 29.3366 7.90488 29.3195C7.97242 29.3113 8.0409 29.3164 8.10645 29.3346C8.19242 29.3577 8.28398 29.3471 8.36236 29.3049C8.4832 29.2438 8.57676 29.1397 8.6246 29.013C8.6682 28.9056 8.70295 28.7944 8.74086 28.685C8.7543 28.6455 8.77554 28.6091 8.80333 28.5779C8.83112 28.5468 8.86489 28.5215 8.90263 28.5037C8.98793 28.4601 8.99046 28.4588 9.05933 28.5246C9.07134 28.5378 9.08524 28.5486 9.1023 28.5612ZM9.50734 24.1525L9.53767 24.1652C9.56225 24.1236 9.58339 24.08 9.60086 24.035C9.64118 23.9152 9.6625 23.7898 9.66405 23.6635C9.66725 23.5722 9.65035 23.4814 9.61453 23.3974C9.57871 23.3134 9.52486 23.2384 9.45679 23.1775C9.38033 23.1093 9.28808 23.0587 9.20404 22.9962C9.0915 22.9089 8.94942 22.8688 8.80784 22.8843C8.68779 22.8938 8.56583 22.8843 8.44451 22.8894C8.3491 22.8894 8.25494 22.9033 8.15763 22.8989C8.03572 22.8984 7.91656 22.8626 7.81452 22.7959C7.65213 22.6847 7.53839 22.37 7.71595 22.1747C7.75296 22.1317 7.80123 22.0997 7.85536 22.0826C7.90949 22.0654 7.96733 22.0636 8.02241 22.0774C8.07896 22.0965 8.12879 22.1315 8.1659 22.1783C8.203 22.225 8.22581 22.2815 8.23157 22.3409C8.23514 22.3643 8.233 22.3881 8.22534 22.4104C8.21768 22.4327 8.20472 22.4529 8.18757 22.4691C8.17043 22.4853 8.14961 22.4971 8.12689 22.5035C8.10418 22.5099 8.08026 22.5107 8.05717 22.5058L7.97818 22.4983C8.00661 22.5488 8.02494 22.5874 8.04895 22.6215C8.06253 22.6478 8.08562 22.668 8.11354 22.678C8.14147 22.688 8.17213 22.687 8.19934 22.6752C8.25635 22.6616 8.30717 22.6294 8.34371 22.5836C8.38024 22.5378 8.40038 22.481 8.40091 22.4224C8.40796 22.3363 8.39332 22.2498 8.35833 22.1707C8.32334 22.0917 8.26911 22.0227 8.2006 21.97C8.15914 21.9322 8.10958 21.9043 8.0557 21.8885C8.00182 21.8727 7.94504 21.8695 7.88972 21.879C7.74608 21.9084 7.59798 21.9084 7.45435 21.879C7.3861 21.8657 7.36715 21.879 7.35956 21.9473C7.35673 21.9672 7.35673 21.9874 7.35956 22.0073C7.37473 22.092 7.39179 22.176 7.40696 22.26C7.41201 22.2878 7.41264 22.3169 7.4158 22.3529C7.36715 22.3472 7.32987 22.3416 7.28942 22.3397C7.20665 22.3365 7.19211 22.3574 7.20602 22.4382C7.2256 22.5577 7.30522 22.6398 7.37915 22.7264C7.41264 22.7656 7.44234 22.8054 7.48025 22.849C7.45308 22.8667 7.43602 22.8768 7.42022 22.8888C7.35704 22.933 7.34945 22.9817 7.4019 23.0341C7.45057 23.0848 7.50558 23.1289 7.56556 23.1655C7.66729 23.2287 7.78229 23.2129 7.89161 23.1946C8.13299 23.1542 8.37248 23.1036 8.61322 23.0581C8.72315 23.0299 8.83735 23.0224 8.95002 23.036C9.07088 23.0516 9.18553 23.0987 9.28246 23.1725C9.3794 23.2464 9.4552 23.3444 9.50229 23.4568C9.57001 23.6138 9.5827 23.789 9.5383 23.9541C9.52946 24.0217 9.51998 24.0881 9.50734 24.1538V24.1525ZM9.21162 20.832L9.19835 20.8465C9.2072 20.8661 9.21415 20.887 9.22426 20.9059C9.35632 21.1555 9.48586 21.407 9.62234 21.6547C9.70259 21.8 9.79043 21.9422 9.88015 22.0825C9.90388 22.1268 9.94167 22.1619 9.98757 22.1823C10.0496 22.2003 10.1064 22.2331 10.1529 22.2779C10.1995 22.3227 10.2345 22.3782 10.2549 22.4395C10.4621 22.9134 10.67 23.3873 10.8747 23.8619C10.9133 23.9516 10.9537 24.0451 10.9215 24.1475C10.9052 24.2061 10.9017 24.2676 10.9113 24.3276C10.9209 24.3877 10.9433 24.445 10.9771 24.4957C11.022 24.574 11.075 24.6486 11.1243 24.725C11.1281 24.7346 11.1342 24.743 11.142 24.7497C11.1667 24.7642 11.1932 24.7863 11.2185 24.7857C11.233 24.7857 11.2558 24.7459 11.2577 24.7225C11.2684 24.6069 11.2798 24.4912 11.2791 24.3756C11.2782 24.3235 11.2664 24.2721 11.2447 24.2247C11.2229 24.1773 11.1917 24.1349 11.1528 24.1001C11.0693 24.0151 11.0047 23.9135 10.9632 23.8018C10.9228 23.6988 10.8962 23.5895 10.8526 23.4859C10.7964 23.3538 10.7262 23.2262 10.6668 23.0967C10.5346 22.8212 10.4021 22.5459 10.2694 22.2708C10.2405 22.2168 10.2301 22.1549 10.2397 22.0945C10.2518 22.031 10.25 21.9657 10.2345 21.903C10.219 21.8403 10.1902 21.7817 10.15 21.7312C10.0868 21.6503 10.0236 21.5732 9.95724 21.498C9.81065 21.3324 9.68174 21.1486 9.4985 21.019C9.40561 20.9558 9.30766 20.8958 9.21162 20.8332V20.832ZM7.83032 19.5884L7.82021 19.5966C7.79177 19.5663 7.76523 19.5335 7.73554 19.5057C7.67024 19.4425 7.60431 19.3793 7.53776 19.3161C7.53182 19.3093 7.5245 19.3038 7.51626 19.3C7.50803 19.2963 7.49909 19.2943 7.49005 19.2943C7.481 19.2943 7.47206 19.2963 7.46383 19.3C7.4556 19.3038 7.44827 19.3093 7.44234 19.3161C7.42693 19.3403 7.42129 19.3694 7.42654 19.3976C7.42975 19.4227 7.44081 19.4461 7.45814 19.4646C7.49944 19.5155 7.54534 19.5624 7.59526 19.6049C7.71604 19.7003 7.82544 19.8092 7.92131 19.9297C7.97866 19.9931 8.04216 20.0506 8.11088 20.1015C8.14689 20.1325 8.18986 20.1552 8.22461 20.1875C8.27011 20.2304 8.31118 20.2791 8.35099 20.3265C8.4483 20.4371 8.64103 20.4048 8.74402 20.3391C8.75939 20.326 8.77004 20.3083 8.77435 20.2886C8.81606 20.1249 8.80279 19.9726 8.67641 19.8462C8.63864 19.8024 8.60321 19.7567 8.57026 19.7091C8.4641 19.5783 8.36363 19.4418 8.24863 19.3193C8.16043 19.2344 8.0667 19.1554 7.96807 19.0829C7.90554 19.0282 7.82492 18.9987 7.74185 19.0001C7.7477 19.0477 7.76458 19.0931 7.79113 19.133C7.81768 19.1728 7.85317 19.2059 7.89477 19.2295C7.92929 19.2512 7.96242 19.2751 7.99398 19.3009L7.98639 19.3243H7.87708C7.7804 19.3243 7.77471 19.3313 7.79304 19.4235C7.80378 19.4791 7.81768 19.5347 7.83032 19.5884ZM8.58858 21.7147C8.60409 21.6923 8.61802 21.6689 8.63028 21.6446C8.64355 21.6117 8.65303 21.5776 8.66504 21.5441C8.67297 21.5147 8.6884 21.4879 8.70981 21.4663C8.73123 21.4447 8.7579 21.429 8.7872 21.4207C8.81651 21.4125 8.84745 21.4121 8.87699 21.4194C8.90653 21.4267 8.93365 21.4416 8.9557 21.4626C8.98991 21.4926 9.02045 21.5265 9.0467 21.5637C9.13237 21.6888 9.19645 21.8275 9.23626 21.9738C9.2664 22.0779 9.30248 22.1803 9.34431 22.2803C9.38655 22.3762 9.45975 22.4552 9.5522 22.5046C9.70196 22.5886 9.85298 22.5469 10.0072 22.5077C9.98626 22.4831 9.96176 22.4618 9.93449 22.4446C9.84284 22.39 9.7684 22.3107 9.71965 22.2158C9.59328 21.9631 9.4669 21.7103 9.34052 21.4575C9.3283 21.4245 9.31173 21.3933 9.29124 21.3647C9.18634 21.2454 9.07955 21.1279 8.97087 21.0121C8.92773 20.9646 8.8675 20.9362 8.80342 20.9331C8.75514 20.9342 8.70766 20.9457 8.66414 20.9666C8.62062 20.9875 8.58206 21.0175 8.55103 21.0545C8.52 21.0915 8.49722 21.1347 8.48419 21.1812C8.47116 21.2277 8.46819 21.2765 8.47547 21.3242C8.49948 21.4279 8.52602 21.5302 8.55319 21.6332C8.56324 21.6616 8.57484 21.6895 8.58795 21.7166L8.58858 21.7147ZM6.97285 27.1489C6.91851 27.2481 6.86985 27.3328 6.82625 27.4206C6.80224 27.4674 6.78076 27.4984 6.71757 27.4838C6.65438 27.4693 6.62847 27.4927 6.61331 27.5609C6.60207 27.6091 6.60052 27.6591 6.60877 27.7079C6.61701 27.7567 6.63488 27.8034 6.66133 27.8453C6.70935 27.9249 6.76686 27.9988 6.82057 28.0753C6.90271 28.1934 6.99181 28.3066 7.06511 28.4298C7.10538 28.4909 7.12549 28.5632 7.12261 28.6364C7.10217 28.7959 7.02475 28.9427 6.90461 29.0496C6.81888 29.1174 6.71522 29.1587 6.60636 29.1684C6.58361 29.1716 6.54759 29.1956 6.54759 29.2108C6.54759 29.25 6.58551 29.255 6.6152 29.2506C6.6784 29.2503 6.74091 29.2374 6.79908 29.2127C6.94757 29.1204 7.10681 29.0421 7.21613 28.8936C7.2719 28.8154 7.29647 28.7191 7.285 28.6238C7.27002 28.4869 7.21282 28.3582 7.12134 28.2554C7.01397 28.1172 6.94449 27.9534 6.91977 27.7802C6.90848 27.7202 6.91661 27.6581 6.94297 27.603C6.96932 27.5479 7.01255 27.5026 7.06637 27.4737C7.12256 27.4437 7.18802 27.436 7.24965 27.4522C7.31128 27.4683 7.36453 27.5072 7.39874 27.5609C7.43665 27.6311 7.41959 27.6999 7.34693 27.7701C7.29132 27.8232 7.28374 27.8238 7.19717 27.7701C7.16368 27.7499 7.13398 27.729 7.09607 27.7701C7.07695 27.787 7.06462 27.8103 7.06137 27.8356C7.05811 27.861 7.06416 27.8866 7.07837 27.9078C7.11825 27.9504 7.16776 27.9827 7.22273 28.0022C7.27771 28.0217 7.33655 28.0277 7.39432 28.0197C7.45725 28.0092 7.51391 27.9754 7.55292 27.9249C7.5871 27.87 7.60883 27.8083 7.61658 27.7441C7.62434 27.6799 7.61792 27.6148 7.59778 27.5533C7.58512 27.5154 7.5608 27.4825 7.52828 27.4592C7.43223 27.3872 7.35198 27.3088 7.35704 27.1704C7.273 27.2083 7.19654 27.2406 7.12197 27.2772C7.1149 27.2826 7.10664 27.2862 7.09789 27.2877C7.08914 27.2892 7.08015 27.2887 7.07167 27.286C7.06319 27.2833 7.05547 27.2787 7.04916 27.2724C7.04286 27.2662 7.03814 27.2585 7.03541 27.25C7.01771 27.2197 6.99876 27.1932 6.97222 27.1508L6.97285 27.1489ZM7.91373 23.7405L7.92005 23.7665C7.95669 23.7715 7.99271 23.7772 8.02873 23.7804C8.09192 23.786 8.10266 23.7968 8.09192 23.8612C8.08307 23.9048 8.07296 23.9484 8.06096 24.0009C8.07907 23.9974 8.09683 23.9924 8.11403 23.9857C8.18986 23.9453 8.26695 23.9067 8.34025 23.8625C8.56245 23.7291 8.81661 23.6584 9.07576 23.6578C9.18129 23.6578 9.28681 23.6483 9.39171 23.642C9.4066 23.6376 9.42083 23.6312 9.43404 23.623C9.41585 23.5892 9.39471 23.5571 9.37085 23.527C9.32675 23.4815 9.27945 23.4393 9.22931 23.4006C9.11244 23.3067 8.9709 23.2485 8.82175 23.2331C8.62168 23.2213 8.4229 23.2721 8.25305 23.3785C8.23647 23.385 8.22219 23.3963 8.21196 23.4109C8.20174 23.4255 8.19603 23.4428 8.19555 23.4606C8.19555 23.52 8.15827 23.5472 8.11467 23.5782C8.0401 23.6325 7.97818 23.6881 7.91309 23.7424L7.91373 23.7405ZM8.94939 20.3467C8.98409 20.338 9.01608 20.3208 9.04245 20.2967C9.06882 20.2725 9.08874 20.2421 9.10041 20.2083C9.11545 20.1531 9.11722 20.0952 9.10558 20.0391C9.09394 19.9831 9.06921 19.9307 9.03343 19.8861C8.92664 19.7388 8.81669 19.5941 8.71306 19.4437C8.68136 19.3952 8.65708 19.3421 8.64103 19.2864C8.63186 19.2493 8.63462 19.2103 8.64891 19.1749C8.66321 19.1395 8.68831 19.1095 8.72064 19.0892C8.85587 19.0046 9.09598 19.1208 9.11241 19.2788C9.12126 19.3616 9.06249 19.4052 8.98604 19.3666C8.95034 19.3397 8.91789 19.3088 8.88936 19.2744C8.8685 19.2561 8.84513 19.2409 8.82301 19.2245C8.81117 19.2555 8.80372 19.288 8.80089 19.3211C8.80271 19.3491 8.81542 19.3752 8.83628 19.3938C8.89368 19.4413 8.9575 19.4804 9.02584 19.5101C9.12063 19.5429 9.19203 19.4968 9.22994 19.4027C9.24211 19.3706 9.24588 19.3359 9.2409 19.302C9.23592 19.268 9.22237 19.2359 9.20151 19.2087C9.1478 19.1259 9.09219 19.0444 9.03722 18.9629C8.97403 18.8712 8.97403 18.8687 8.87356 18.9085C8.85579 18.9182 8.8349 18.9205 8.81548 18.9148C8.79605 18.9091 8.77967 18.8959 8.76993 18.8782C8.76235 18.8681 8.7554 18.8573 8.74718 18.8479C8.70421 18.8011 8.67578 18.8011 8.63534 18.8479C8.61954 18.8675 8.60438 18.8883 8.58984 18.9111C8.54119 18.9806 8.54119 18.9806 8.46031 18.9578C8.45652 18.9578 8.45146 18.961 8.44198 18.9641C8.41957 19.0197 8.41957 19.0817 8.44198 19.1373C8.50513 19.3242 8.5938 19.5016 8.70548 19.6643C8.85939 19.8589 8.94509 20.0986 8.94939 20.3467ZM10.6473 23.556C10.5746 23.3734 10.5171 23.1946 10.4331 23.029C10.3288 22.8243 10.1411 22.7289 9.91617 22.7062C9.85804 22.7005 9.84224 22.7207 9.85993 22.7776C9.87446 22.8237 9.89279 22.8679 9.90985 22.9128C9.98062 23.1023 10.0508 23.2919 10.1241 23.4815C10.1379 23.521 10.1621 23.5562 10.1941 23.5833C10.2261 23.6104 10.2647 23.6285 10.306 23.6357C10.4261 23.6609 10.5272 23.6053 10.6473 23.5579V23.556ZM7.6496 20.3745C7.67108 20.3985 7.68878 20.4181 7.70584 20.4377C7.7229 20.4573 7.75512 20.4952 7.77787 20.5255C7.80062 20.5558 7.78735 20.5887 7.7665 20.6228C7.74565 20.657 7.71784 20.6513 7.68625 20.6424C7.62874 20.6309 7.57734 20.599 7.54156 20.5525C7.50579 20.5061 7.48805 20.4482 7.49163 20.3897C7.49163 20.372 7.49163 20.3543 7.49163 20.3366C7.48919 20.3005 7.5011 20.2649 7.52477 20.2376C7.54844 20.2103 7.58195 20.1934 7.618 20.1906C7.65784 20.1826 7.69894 20.1834 7.73845 20.1928C7.77795 20.2023 7.81491 20.2203 7.84675 20.2456C7.96744 20.3366 8.08434 20.4352 8.20503 20.5243C8.28299 20.5877 8.36534 20.6456 8.45146 20.6974C8.48753 20.7169 8.52896 20.7242 8.56952 20.7181C8.61008 20.7121 8.64758 20.6931 8.67641 20.6639C8.73518 20.6108 8.72886 20.5748 8.6543 20.5565C8.42962 20.495 8.21849 20.3919 8.03189 20.2525C7.93834 20.1844 7.84132 20.1211 7.74122 20.063C7.65023 20.0112 7.55166 19.9745 7.45119 19.9297C7.43665 19.9606 7.42654 19.9777 7.42022 19.996C7.4119 20.0265 7.39701 20.0548 7.3766 20.0789C7.35619 20.103 7.33075 20.1224 7.30206 20.1356C7.2256 20.1723 7.22118 20.202 7.27805 20.2683C7.32228 20.3202 7.35072 20.3701 7.31407 20.4383C7.29701 20.4693 7.30901 20.4939 7.33808 20.5154C7.41454 20.5735 7.4872 20.6355 7.56303 20.6949C7.59505 20.723 7.63051 20.747 7.66856 20.7663C7.77218 20.8111 7.93268 20.7031 7.91309 20.5969C7.9004 20.516 7.8575 20.4428 7.79304 20.3922C7.77471 20.3733 7.75035 20.3613 7.72416 20.3584C7.69798 20.3556 7.67161 20.3619 7.6496 20.3764V20.3745ZM9.75062 24.8514C9.88142 24.6688 9.99579 24.483 10.1361 24.32C10.2763 24.157 10.4419 24.0198 10.5999 23.8669C10.5809 23.8568 10.574 23.8499 10.5676 23.8505C10.4381 23.8688 10.306 23.8815 10.1923 23.9567C10.0533 24.0483 9.91554 24.1424 9.77652 24.2334C9.70067 24.2809 9.64405 24.3536 9.61666 24.4388C9.58317 24.5468 9.55852 24.658 9.53198 24.768C9.53064 24.7873 9.53213 24.8066 9.53641 24.8255L9.61413 24.7996L9.69248 24.7718L9.75062 24.8514ZM6.33844 28.0159C6.33275 28.0658 6.33844 28.1113 6.32138 28.1347C6.30432 28.1581 6.25819 28.1618 6.21964 28.1751C6.24543 28.2317 6.29011 28.2775 6.34602 28.3047C6.48863 28.3986 6.59425 28.539 6.6449 28.7021C6.67018 28.7786 6.7043 28.8525 6.73653 28.9264C6.74764 28.9445 6.76056 28.9615 6.77507 28.977C6.82704 28.8781 6.86247 28.7714 6.87996 28.661C6.89424 28.5847 6.88948 28.506 6.86612 28.432C6.84275 28.3579 6.8015 28.2907 6.746 28.2364C6.63479 28.1277 6.48503 28.0791 6.33654 28.0178L6.33844 28.0159ZM2.01571 7.73238C2.04594 7.73682 2.07679 7.73333 2.10526 7.72225C2.13373 7.71117 2.15883 7.69289 2.17811 7.66919C2.23435 7.61105 2.28679 7.54976 2.34177 7.491C2.34677 7.48703 2.3508 7.48199 2.35358 7.47624C2.35636 7.4705 2.3578 7.4642 2.3578 7.45782C2.3578 7.45144 2.35636 7.44514 2.35358 7.4394C2.3508 7.43366 2.34677 7.42861 2.34177 7.42465C2.26215 7.34061 2.18506 7.25404 2.10228 7.17189C2.08264 7.15141 2.05618 7.13882 2.0279 7.13649C1.99962 7.13416 1.97146 7.14226 1.94873 7.15926C1.88073 7.21536 1.81576 7.27506 1.75411 7.33808C1.73866 7.35064 1.72621 7.36649 1.71765 7.38447C1.70909 7.40245 1.70465 7.42211 1.70465 7.44203C1.70465 7.46194 1.70909 7.4816 1.71765 7.49958C1.72621 7.51756 1.73866 7.53341 1.75411 7.54597C1.79392 7.59147 1.84005 7.63064 1.88049 7.67235C1.89473 7.69419 1.91469 7.71169 1.93821 7.72295C1.96172 7.7342 1.98788 7.73878 2.01382 7.73617L2.01571 7.73238ZM2.58441 3.89052C2.616 3.88389 2.64673 3.87371 2.67603 3.86019C2.76323 3.80521 2.84854 3.74645 2.93511 3.69021C2.96607 3.66999 2.96417 3.64787 2.94901 3.61944C2.89151 3.51581 2.83527 3.41155 2.7765 3.30918C2.77272 3.29813 2.76636 3.28815 2.75794 3.28006C2.74952 3.27197 2.73929 3.266 2.7281 3.26267C2.71692 3.25933 2.70509 3.25871 2.69362 3.26087C2.68214 3.26302 2.67135 3.26789 2.66213 3.27506C2.56798 3.32814 2.47699 3.3869 2.38789 3.4482C2.36561 3.46142 2.34926 3.48268 2.34221 3.50761C2.33515 3.53254 2.33793 3.55922 2.34998 3.58216C2.3934 3.66724 2.44172 3.74973 2.49468 3.82922C2.51301 3.86208 2.55471 3.87598 2.58251 3.89431L2.58441 3.89052ZM6.86353 18.3183C6.85193 18.3632 6.85033 18.41 6.85885 18.4556C6.86736 18.5011 6.88579 18.5442 6.91282 18.5818C6.95712 18.643 7.00502 18.7014 7.05626 18.7569C7.07362 18.7724 7.08534 18.7932 7.08957 18.8161C7.0938 18.8389 7.09031 18.8626 7.07964 18.8833C7.05184 18.9547 7.07142 18.9938 7.13524 19.0355C7.18769 19.0703 7.23824 19.1076 7.28879 19.1449C7.29737 19.1535 7.30756 19.1603 7.31878 19.165C7.33 19.1696 7.34204 19.172 7.35419 19.172C7.36635 19.172 7.37838 19.1696 7.38961 19.165C7.40083 19.1603 7.41102 19.1535 7.41959 19.1449C7.45552 19.1132 7.48949 19.0795 7.52133 19.0437C7.53392 19.0309 7.54229 19.0145 7.54534 18.9968C7.54839 18.9791 7.54596 18.9609 7.53839 18.9445C7.50011 18.8477 7.43974 18.7612 7.36209 18.6918C7.35374 18.684 7.34362 18.6784 7.33261 18.6754C7.3216 18.6725 7.31003 18.6722 7.2989 18.6747C7.2433 18.6968 7.21044 18.6678 7.18264 18.6305C7.14156 18.5762 7.10555 18.518 7.06511 18.463C7.01887 18.3908 6.94675 18.3391 6.86353 18.3183ZM10.7913 24.1317C10.7738 24.1439 10.7573 24.1577 10.742 24.1728C10.6536 24.2802 10.5689 24.3901 10.4767 24.4938C10.4435 24.5263 10.4183 24.566 10.4028 24.6098C10.3874 24.6536 10.3821 24.7004 10.3876 24.7465C10.3897 24.7886 10.3897 24.8308 10.3876 24.8729C10.3876 24.9026 10.3876 24.9361 10.4223 24.9487C10.4387 24.9563 10.4574 24.9574 10.4746 24.9516C10.4918 24.9458 10.5061 24.9337 10.5146 24.9178C10.5541 24.8596 10.59 24.799 10.622 24.7364C10.6329 24.7013 10.6548 24.6706 10.6843 24.6487C10.7138 24.6268 10.7495 24.6148 10.7863 24.6144C10.8495 24.6144 10.8615 24.5961 10.8539 24.5348C10.8406 24.4192 10.8255 24.3042 10.8103 24.1892C10.8057 24.1687 10.7993 24.1486 10.7913 24.1292V24.1317ZM8.44198 22.6474C8.49005 22.6454 8.53694 22.6319 8.57875 22.6081C8.62056 22.5843 8.65608 22.5509 8.68235 22.5105C8.70862 22.4702 8.72489 22.4242 8.72979 22.3764C8.73469 22.3285 8.72809 22.2802 8.71053 22.2354C8.64618 22.1026 8.53947 21.995 8.40723 21.9296C8.39548 21.9281 8.3836 21.9281 8.37184 21.9296C8.52476 22.1564 8.61196 22.3858 8.44198 22.6474ZM10.6289 25.2046C10.7446 25.2406 10.9019 25.1907 10.9449 25.1029C10.9999 24.9841 10.991 24.7901 10.9101 24.7174C10.816 24.8786 10.7105 25.0309 10.6289 25.2046ZM5.656 20.3751L5.67559 20.3713C5.67048 20.3377 5.66266 20.3045 5.65221 20.2721C5.61619 20.1887 5.57575 20.1078 5.53784 20.0251C5.45317 19.8425 5.36976 19.6586 5.28509 19.476C5.208 19.3123 5.12838 19.1486 5.04876 18.9856C5.0336 18.9547 5.0178 18.9224 4.96851 18.9281C4.96851 18.942 4.9603 18.9559 4.96472 18.9654C5.19346 19.4355 5.42389 19.9054 5.656 20.3751ZM11.4017 24.7699C11.4264 24.8767 11.4485 24.9765 11.4738 25.0757C11.4767 25.0839 11.4814 25.0913 11.4877 25.0973C11.4939 25.1034 11.5015 25.1079 11.5098 25.1105C11.5606 25.1233 11.6129 25.129 11.6652 25.1275C11.6807 25.1255 11.6956 25.12 11.7087 25.1115C11.7219 25.103 11.7329 25.0917 11.7412 25.0784C11.7494 25.0651 11.7546 25.0501 11.7563 25.0346C11.758 25.019 11.7563 25.0033 11.7512 24.9885C11.676 24.8615 11.5806 24.7642 11.4017 24.7699ZM11.0776 24.8565C11.0689 24.8814 11.0619 24.907 11.0567 24.9329C11.0428 25.0302 11.0314 25.1275 11.0175 25.2242C11.0062 25.3032 11.0302 25.3291 11.1073 25.3108C11.1359 25.3024 11.1622 25.2877 11.1844 25.2678C11.2133 25.2367 11.234 25.1988 11.2444 25.1577C11.2548 25.1165 11.2547 25.0734 11.2441 25.0322C11.2334 24.9911 11.2126 24.9533 11.1835 24.9224C11.1544 24.8914 11.118 24.8683 11.0776 24.8552V24.8565ZM7.59589 19.7464C7.50888 19.6697 7.39938 19.6231 7.28374 19.6137C7.2136 19.6137 7.1681 19.6434 7.15736 19.6908C7.15476 19.7248 7.16336 19.7587 7.18185 19.7873C7.20033 19.816 7.22768 19.8378 7.25973 19.8494C7.28387 19.857 7.30959 19.8581 7.33429 19.8526C7.42086 19.8203 7.503 19.7837 7.59589 19.7451V19.7464ZM11.3638 25.1174C11.3597 25.1976 11.3597 25.278 11.3638 25.3582C11.3708 25.4245 11.4352 25.4523 11.5041 25.4302C11.5622 25.4119 11.5812 25.362 11.5521 25.2956C11.5357 25.259 11.5142 25.2248 11.499 25.1876C11.4901 25.1606 11.4709 25.1382 11.4457 25.1251C11.4204 25.112 11.3911 25.1092 11.3638 25.1174ZM8.08181 19.0412L8.11277 19.0349C8.12605 18.9744 8.13596 18.9132 8.14247 18.8517C8.14816 18.7322 8.09002 18.6709 7.96112 18.6514C7.94691 18.6688 7.9376 18.6897 7.93416 18.7119C7.93072 18.7341 7.93326 18.7568 7.94153 18.7777C7.9845 18.8675 8.03442 18.9565 8.08181 19.0412Z" fill="white"/>
<path d="M10.3837 21.1921C10.2984 21.129 10.2086 21.0658 10.1309 20.9931C10.0243 20.901 9.92476 20.8008 9.83331 20.6936C9.78239 20.6216 9.74315 20.5421 9.71704 20.4579C9.70688 20.4315 9.70695 20.4023 9.71724 20.376C9.72753 20.3497 9.7473 20.3282 9.77265 20.3157C9.8429 20.2846 9.92254 20.2824 9.99444 20.3094C10.0102 20.3168 10.0227 20.3296 10.0298 20.3454C10.1474 20.5982 10.2645 20.8528 10.3812 21.1094C10.3897 21.1325 10.3967 21.1561 10.402 21.1801L10.3837 21.1921Z" fill="white"/>
</g>
<defs>
<clipPath id="clip0_237_264">
<rect width="13.9823" height="30" fill="white"/>
</clipPath>
</defs>
</svg>
